<svg width="195" height="234" viewBox="0 0 195 234" fill="none" xmlns="http://www.w3.org/2000/svg">
    <g clip-path="url(#clip0_501_933)">
        <path d="M193.134 76.0805C193.084 73.6167 194.287 73.1688 194.279 71.1168C194.272 67.5982 190.685 65.1344 190.462 64.9827C190.073 64.7226 187.515 63.0681 184.245 63.5594C177.834 64.5203 176.444 72.5402 171.402 72.309C169.082 72.2006 167.75 70.4305 165.913 71.3336C164.443 72.0561 163.925 73.8768 163.687 74.715C162.83 77.7278 164.17 78.9272 164.069 81.4993C164.011 82.9949 163.5 84.0643 154.042 95.0392C153.48 95.6967 152.724 96.5854 151.658 97.7197C148.755 100.79 146.774 102.178 139.491 110.328C131.849 118.882 129.082 122.892 130.307 126.122C131.092 128.195 133.628 130.233 136.185 130.363C137.705 130.442 138.879 129.828 139.923 129.236C147.307 125.023 151.931 119.316 156.664 116.65C156.887 116.519 157.658 116.093 158.702 115.457C160.763 114.207 162.081 113.405 163.406 112.293C165.329 110.682 165.106 110.299 167.721 107.813C170.955 104.743 172.655 104.251 175.565 102.214C177.2 101.065 178.36 100.046 179.613 98.9552C181.328 97.4596 181.191 97.4163 183.15 95.6245C186.313 92.7272 187.602 91.9758 189.749 89.4686C190.022 89.1507 190.454 88.6378 190.98 87.8936C192.522 85.7405 194.38 83.1322 194.229 80.1988C194.121 78.1758 193.184 78.2408 193.134 76.0733V76.0805Z" fill="#F7F8F8" stroke="#313235" stroke-width="2" stroke-miterlimit="10"/>
        <path d="M1.86557 76.0805C1.91599 73.6167 0.713044 73.1688 0.720247 71.1168C0.72745 67.5982 4.31468 65.1344 4.53799 64.9827C4.92696 64.7226 7.48413 63.0681 10.7544 63.5594C17.1653 64.5203 18.5556 72.5402 23.5979 72.309C25.9173 72.2006 27.2499 70.4305 29.0868 71.3336C30.5562 72.0561 31.0749 73.8768 31.3126 74.715C32.1698 77.7278 30.83 78.9272 30.9308 81.4993C30.9884 82.9949 31.4999 84.0643 40.9578 95.0392C41.5196 95.6967 42.276 96.5854 43.3421 97.7197C46.245 100.79 48.2259 102.178 55.5084 110.328C63.1511 118.882 65.9171 122.892 64.6926 126.122C63.9074 128.195 61.3719 130.233 58.8147 130.363C57.2948 130.442 56.1207 129.828 55.0762 129.236C47.6928 125.023 43.0683 119.316 38.3358 116.65C38.1125 116.519 37.3417 116.093 36.2972 115.457C34.2371 114.207 32.9189 113.405 31.5935 112.293C29.6702 110.682 29.8935 110.299 27.2787 107.813C24.0445 104.743 22.3445 104.251 19.4344 102.214C17.7992 101.065 16.6395 100.046 15.3861 98.9552C13.6717 97.4596 13.8086 97.4163 11.8493 95.6245C8.68708 92.7272 7.39769 91.9758 5.25111 89.4686C4.97739 89.1507 4.54519 88.6378 4.01935 87.8936C2.47785 85.7405 0.619401 83.1322 0.77067 80.1988C0.878719 78.1758 1.81515 78.2408 1.86557 76.0733V76.0805Z" fill="#F7F8F8" stroke="#313235" stroke-width="2" stroke-miterlimit="10"/>
        <path d="M142.733 214.564C138.469 213.343 136.934 213.726 135.803 212.447C135.479 212.079 135.062 211.436 134.917 210.309L134.982 209.926C135.58 209.182 136.351 208.011 136.689 206.436C137.057 204.695 136.603 203.835 137.064 202.491C137.691 200.663 139.391 199.782 140.154 199.298C143.194 197.361 144.375 193.33 145.874 188.214C149.706 175.144 143.669 153.201 138.49 134.373C138.411 134.084 138.346 133.838 138.253 133.527C137.518 130.941 135.631 124.865 132.072 117.842C128.665 111.122 125.697 107.43 123.587 105.111C123.176 104.663 121.174 102.474 119.077 100.754C110.21 93.4425 98.2456 93.1029 96.0918 93.0668C94.7736 93.0451 77.9323 93.0668 65.7228 105.877C61.2567 110.566 59.0021 115.219 57.7775 118.116C34.1796 174.003 46.1442 192.983 46.1442 192.983C47.6857 197.477 49.5226 199.182 50.992 199.861C51.5179 200.107 52.9225 200.649 53.4916 201.985C53.859 202.845 53.7077 203.618 53.6645 204.11C53.542 205.417 53.9166 207.397 56.2721 210.215C56.2721 210.244 56.2793 210.265 56.2865 210.294C55.1844 211.848 54.0678 212.773 53.2755 213.322C51.1793 214.767 49.8899 214.608 47.4985 216.385C46.9078 216.826 46.0578 217.469 45.215 218.517C43.6951 220.417 43.1909 222.433 42.9964 223.632C42.8451 224.564 42.6867 225.489 42.5354 226.421C42.3625 227.454 42.521 230.25 44.5019 231.666C45.6472 232.49 46.987 232.512 47.8154 232.425C50.9632 231.789 53.3835 231.977 55.0187 232.28C56.4305 232.541 56.8411 232.779 58.3034 233.025C61.4368 233.545 63.9075 232.988 64.9232 232.801C67.4443 232.331 71.8095 232.1 79.8916 233.176C80.3886 233.176 83.0466 233.126 85.1932 230.973C86.5474 229.614 87.3902 227.729 87.3902 225.655V219.636C87.3902 216.241 88.0889 211.291 89.3999 206.66C89.8105 205.208 90.6605 203.907 91.8635 202.997C92.9007 202.209 94.1109 201.559 95.5948 201.545C96.3511 201.545 97.0498 201.696 97.6837 201.949C99.679 202.737 101.156 204.485 101.754 206.552C103.086 211.212 103.792 216.212 103.792 219.636V225.655C103.792 229.809 107.149 233.176 111.291 233.176C112.811 232.613 115.087 232.013 117.795 232.273C119.135 232.403 119.863 232.671 120.979 232.909C124.134 233.588 126.223 233.104 129.465 232.801C137.467 232.049 138.901 233.624 144.152 231.984C146.198 231.341 147.754 230.554 148.82 229.036C150.008 227.36 150.095 225.503 150.145 224.492C150.196 223.422 150.296 221.226 148.985 219.384C148.899 219.261 148.287 218.632 147.069 217.389C145.881 216.176 145.535 215.858 145.045 215.533C144.267 215.02 143.561 214.781 142.711 214.543L142.733 214.564Z" fill="#F7F8F8" stroke="#313235" stroke-width="2" stroke-miterlimit="10"/>
        <path d="M130.977 115.956C129.976 115.458 129.371 115.414 128.082 114.692C124.955 112.943 123.515 110.205 122.996 109.779C112.998 101.535 99.5062 101.145 97.0715 101.108C78.6599 100.834 68.5609 119.345 62.8271 115.552C61.5521 114.706 60.3636 112.734 60.6373 107.821C59.1534 110.92 57.1221 115.371 54.9395 120.819C50.92 130.847 46.3676 142.191 44.2642 156.59C43.2774 163.331 42.5066 172.977 43.7096 184.775C57.6335 187.969 75.5553 190.772 96.4736 190.859C116.081 190.946 133.023 188.619 146.421 185.837C147.711 174.227 147.286 164.552 146.594 157.66C146.594 157.66 145.276 144.517 136.675 123.326C135.623 120.739 134.104 117.51 130.985 115.963L130.977 115.956Z" fill="#212732" stroke="#313235" stroke-width="2" stroke-miterlimit="10"/>
        <path d="M104.865 153.158H88.0169C86.0792 153.158 84.6098 151.742 84.7322 150.023C84.8547 148.339 86.461 147.002 88.3267 147.002H104.548C106.414 147.002 108.028 148.339 108.143 150.023C108.265 151.735 106.796 153.158 104.858 153.158H104.865Z" fill="#2CE3A7"/>
        <g style="mix-blend-mode:lighten">
            <path d="M101.739 166.257L101.257 150.023C101.206 148.339 102.683 147.002 104.549 147.002C106.414 147.002 108.028 148.339 108.143 150.023L109.317 166.257C109.468 168.338 107.862 170.058 105.723 170.058C103.583 170.058 101.804 168.338 101.739 166.257Z" fill="#0280F4"/>
        </g>
        <path d="M94.6438 164.559C94.615 167.551 92.0578 170.058 88.9388 170.058C85.8198 170.058 83.4715 167.558 83.6876 164.559C83.9037 161.561 86.4393 159.386 89.3782 159.386C92.3172 159.386 94.6726 161.662 94.6438 164.559Z" fill="#2CE3EF"/>
        <path d="M54.9394 120.819C58.1304 123.521 62.5676 126.794 68.3014 129.72C75.0869 133.181 80.8135 134.705 83.0178 135.233C100.507 139.481 114.95 134.85 119.135 133.441C127.52 130.63 133.052 126.859 136.344 121.534C137.15 120.226 137.511 119.569 137.46 118.868C136.97 112.033 55.3283 107.344 53.5851 117.755C53.3907 118.918 54.2118 120.038 54.9394 120.811V120.819Z" fill="#0D1219"/>
        <path d="M121.238 128.304C109.396 131.194 99.5998 131.23 95.5227 131.179C81.7573 130.991 73.1998 130.883 63.1728 125.753C57.3958 122.798 47.4408 116.296 48.3196 111.447C48.6006 109.901 49.9188 108.868 51.1433 108.189H140.284C141.422 108.81 142.783 109.851 143.108 111.447C143.886 115.313 138.036 119.727 135.631 121.548C129.472 126.208 123.608 127.726 121.246 128.304H121.238Z" fill="#2CE3A7" stroke="#313235" stroke-width="2" stroke-miterlimit="10"/>
        <path d="M147.912 129.286C151.397 129.286 154.222 126.453 154.222 122.957C154.222 119.462 151.397 116.628 147.912 116.628C144.427 116.628 141.602 119.462 141.602 122.957C141.602 126.453 144.427 129.286 147.912 129.286Z" fill="#1280F4" stroke="#313235" stroke-width="2" stroke-miterlimit="10"/>
        <path d="M156.059 116.101C159.544 116.101 162.369 113.267 162.369 109.771C162.369 106.276 159.544 103.442 156.059 103.442C152.574 103.442 149.749 106.276 149.749 109.771C149.749 113.267 152.574 116.101 156.059 116.101Z" fill="#2CE3EF" stroke="#313235" stroke-width="2" stroke-miterlimit="10"/>
        <path d="M53.895 109.836C55.2708 110.198 74.5252 115.284 92.166 119.287C94.7736 119.879 98.8363 120.754 103.374 119.287C106.753 118.196 106.609 117.025 109.908 115.855C114.712 114.143 118.876 115.241 125.294 116.931C129.904 118.145 131.366 119.251 132.072 120.732C132.699 122.047 131.806 122.639 131.633 123.571C132.303 123.188 133.131 122.668 133.988 122.112C135.306 121.245 136.265 120.544 136.459 120.407C139.031 118.506 140.536 117.401 141.782 115.501C142.661 114.164 143.194 113.355 143.172 112.343C143.122 109.894 139.794 107.539 135.09 106.325L53.9022 109.844L53.895 109.836Z" fill="#156347"/>
        <path d="M171.604 56.0743C170.458 58.2491 168.621 57.6639 166.979 60.6984C166.007 62.4975 166.252 63.4512 165.041 64.4266C163.586 65.6043 161.649 65.4453 160.388 65.4453C160.388 65.4453 157.867 65.3586 155.432 64.1087C150.426 61.5365 148.942 48.0472 146.162 39.3193C140.788 22.4414 127.671 14.5443 129.925 12.1311C131.337 10.6211 137.1 12.9909 140.024 14.6166C143.165 16.3651 143.36 17.4344 148.582 21.6972C154.806 26.7837 155.123 25.7722 157.759 28.6839C161.144 32.4265 160.294 33.7198 164.998 39.8467C167.613 43.257 168.571 43.5098 169.932 46.1181C170.804 47.7943 173.376 52.7219 171.604 56.0888V56.0743Z" fill="#F7F8F8" stroke="#313235" stroke-width="2" stroke-miterlimit="10" stroke-linecap="round"/>
        <path d="M27.3652 51.1105C28.5033 53.2419 30.3257 52.6711 31.9537 55.6551C32.9189 57.4252 32.6812 58.3573 33.8769 59.3182C35.3176 60.4742 37.2409 60.3225 38.487 60.3225C38.487 60.3225 40.9866 60.2358 43.3997 59.0075C48.3627 56.4787 49.8178 43.2279 52.5694 34.6444C57.8927 18.0411 70.8946 10.2813 68.6544 7.90424C67.2569 6.41587 61.5375 8.74958 58.6346 10.3536C55.5156 12.0731 55.3283 13.1208 50.1563 17.3186C43.9831 22.3256 43.6734 21.3285 41.0658 24.1897C37.7091 27.8745 38.5591 29.1389 33.8985 35.1646C31.3054 38.5171 30.3617 38.77 29.0147 41.3277C28.1503 42.975 25.6076 47.8158 27.3652 51.1249V51.1105Z" fill="#F7F8F8" stroke="#313235" stroke-width="2" stroke-miterlimit="10" stroke-linecap="round"/>
        <path d="M154.907 98.7819C156.03 96.441 156.816 93.8472 157.622 91.5351C160.475 83.3708 163.925 73.9492 160.547 65.2502C159.077 61.4786 157.147 57.8805 156.196 54.0946C154.64 47.9171 155.641 41.8119 154.345 35.8728C153.192 30.584 151.391 25.5048 148.013 21.1625C144.455 16.5817 139.42 13.8434 129.494 8.45348C125.337 6.19924 122.456 4.61694 118.156 3.22249C110.823 0.845424 104.786 0.729822 103.057 0.729822C99.355 0.722597 101.415 1.17055 88.2187 2.81066C84.8548 3.22971 80.4104 3.73547 74.6765 5.5562C74.2011 5.70071 73.4664 5.93913 72.5804 6.26427C60.8535 10.556 53.6502 19.1972 50.9633 22.7809C48.8024 25.6637 45.1575 30.5407 43.3207 37.6719C41.3542 45.2944 43.6808 46.7249 42.0961 55.5035C41.5054 58.7837 40.7635 62.0278 39.2076 65.1562C37.558 68.4798 35.1738 71.7817 35.0873 75.6038C35.0297 77.923 35.8653 80.0833 36.0381 82.4098C36.2326 84.9964 35.5987 87.7347 35.9301 90.343C36.5856 95.4801 40.5978 98.3773 43.6016 101.896C47.0015 105.884 50.0269 110.133 54.7307 112.654C61.12 116.072 68.1072 118.362 75.3897 119.121C75.3897 119.121 90.0411 121.382 97.655 116.05C97.691 116.028 98.008 115.783 98.4906 115.66C98.6491 115.616 98.8219 115.595 99.0092 115.595C102.301 115.53 103.353 123.087 108.59 125.428C109.922 126.028 111.125 126.1 111.752 126.107C112.112 126.086 112.242 125.963 112.306 125.862C112.861 124.944 110.124 121.397 109.814 120.233C109.807 120.204 109.627 119.525 109.627 119.525C109.569 119.28 109.512 119.034 109.461 118.788C109.411 118.543 109.375 118.29 109.339 118.044C109.31 117.798 109.288 117.546 109.281 117.293C109.274 117.047 109.281 116.794 109.303 116.556C109.36 115.891 109.389 115.848 109.418 115.833C109.447 115.826 109.562 115.804 109.85 116.267C109.951 116.483 110.117 116.801 110.39 117.127C110.628 117.416 110.808 117.538 111.197 117.842C112.371 118.767 112.587 119.07 113.517 119.655C113.517 119.655 113.646 119.735 113.783 119.814C114.302 120.11 121.375 122.199 121.606 121.194C121.822 120.262 115.512 119.121 114.374 114.706C114.374 114.684 114.352 114.663 114.352 114.634C114.446 114.135 120.165 115.783 124.545 115.877C130.099 115.999 134.32 113.601 135.724 112.82C137.993 111.556 139.744 109.605 141.905 108.247C144.865 106.39 148.496 105.906 151.233 103.738C152.825 102.474 153.985 100.726 154.914 98.7964L154.907 98.7819Z" fill="#F7F8F8" stroke="#313235" stroke-width="2" stroke-miterlimit="10"/>
        <path d="M80.4893 35.0781C80.5037 35.9524 80.6765 37.4624 81.7138 39.0303C81.8867 39.2904 84.5087 43.0763 90.1345 43.4882C94.2187 43.7844 99.333 42.2382 99.9093 39.8756C100.183 38.7485 99.4411 37.3251 98.6055 37.2095C97.7843 37.1012 96.7687 38.25 96.4517 39.2976C96.0339 40.6776 96.8335 41.8986 96.992 42.1298C98.7712 44.702 104.21 45.2944 108.035 44.3696C113.588 43.0258 115.411 38.6112 115.684 37.9104" stroke="#313235" stroke-width="2" stroke-linecap="round" stroke-linejoin="round"/>
        <path d="M97.093 63.126C99.8014 60.8717 100.392 60.142 100.392 60.142C100.983 59.4123 101.703 58.4585 102.467 57.3025C102.69 57.0569 102.748 56.7028 102.603 56.3994C102.467 56.1176 102.178 55.9008 101.811 55.9008C100.363 55.5829 98.476 55.3084 96.2718 55.3301C94.2909 55.3517 92.5837 55.6046 91.2295 55.9008C91.071 55.9297 90.6028 56.0381 90.4227 56.3994C90.2571 56.7317 90.4371 57.1002 90.538 57.3025C91.5681 59.3328 92.5477 60.4238 92.5477 60.4238C94.0604 62.1072 94.2981 61.8471 95.7892 63.126C95.8756 63.1982 96.1133 63.4005 96.4303 63.4077C96.7472 63.4077 96.9921 63.2127 97.093 63.126Z" fill="#313235"/>
        <path d="M83.7454 53.5093C83.1331 57.7505 80.4103 61.457 77.7018 61.457C74.9934 61.457 73.6752 57.7505 74.6765 53.5093C75.5985 49.6078 78.1772 46.6599 80.5111 46.6599C82.845 46.6599 84.3072 49.6078 83.7454 53.5093Z" fill="#313235"/>
        <path d="M119.07 53.5093C120.035 57.7505 118.688 61.457 115.98 61.457C113.272 61.457 110.577 57.7505 110.001 53.5093C109.468 49.6078 110.959 46.6599 113.286 46.6599C115.613 46.6599 118.177 49.6078 119.07 53.5093Z" fill="#313235"/>
        <path d="M106.032 75.8855C104.238 78.8695 101.789 82.9517 97.7843 83.0095C93.2175 83.0745 90.4874 77.8508 89.0756 75.1414C87.6637 72.4319 88.2544 71.5866 88.593 71.2831C89.3277 70.6257 90.401 71.1603 92.4035 70.315C93.6208 69.802 94.7301 68.9711 95.1623 68.6243C96.1204 67.844 96.603 67.1937 97.2153 67.2732C97.6547 67.331 97.7555 67.7212 98.2309 68.2486C98.8 68.8772 99.7436 69.289 101.602 70.1343C102.877 70.7124 103.518 71.0014 104.123 71.1242C105.78 71.4565 106.508 71.0158 107.041 71.3698C108.236 72.1718 106.248 75.546 106.039 75.8928L106.032 75.8855Z" fill="#FF8398"/>
        <path d="M119.38 65.4453C119.113 65.9655 115.987 71.6806 109.05 71.919C102.618 72.1358 98.6199 67.4322 97.5034 65.9149C97.345 65.691 97.0208 65.691 96.8551 65.9149C95.7242 67.4322 91.6688 72.143 85.2362 71.919C78.2995 71.6806 77.4999 67.6706 77.2334 67.1432" stroke="#313235" stroke-width="3" stroke-linecap="round" stroke-linejoin="round"/>
    </g>
    <defs>
        <clipPath id="clip0_501_933">
            <rect width="195" height="234" fill="white"/>
        </clipPath>
    </defs>
</svg>
