<svg width="159" height="234" viewBox="0 0 159 234" fill="none" xmlns="http://www.w3.org/2000/svg">
    <g clip-path="url(#clip0_548_3953)">
        <path d="M157.21 65.4598C155.696 67.7488 153.804 67.1301 151.663 70.3059C150.411 72.1755 150.548 73.1516 149.151 74.1552C147.479 75.3581 145.448 75.2 144.12 75.2C144.12 75.2 141.47 75.1107 139.027 73.8253C133.975 71.172 133.665 56.8537 131.449 47.2166C126.955 27.6879 112.488 18.1264 115.262 15.1431C117.01 13.2666 123.534 16.2086 126.776 18.2157C130.245 20.3535 130.369 21.6595 135.916 26.8012C142.427 32.8296 142.902 31.6404 145.531 35.0498C148.869 39.3872 147.754 40.8651 152.193 47.8008C154.623 51.5952 155.634 51.877 156.763 54.7434C157.486 56.5719 159.578 61.8854 157.21 65.4598Z" fill="#F7F8F8" stroke="#313235" stroke-width="2" stroke-miterlimit="10" stroke-linecap="round"/>
        <path d="M1.78978 60.1668C3.30394 62.4558 5.19663 61.8372 7.33709 65.0129C8.58971 66.8826 8.45206 67.8587 9.84922 68.8622C11.5217 70.0652 13.552 69.9071 14.8803 69.9071C14.8803 69.9071 17.5301 69.8177 19.9734 68.5323C25.0252 65.879 25.3349 51.5607 27.5511 41.9236C32.0453 22.3949 46.5124 12.8334 43.7388 9.85015C41.9906 7.97359 35.466 10.9156 32.2243 12.9228C28.7555 15.0605 28.6316 16.3666 23.0843 21.5082C16.5734 27.5366 16.0985 26.3474 13.4694 29.7569C10.1314 34.0943 11.2464 35.5721 6.80714 42.5079C4.37761 46.3022 3.36588 46.5841 2.23715 49.4505C1.51448 51.2789 -0.577804 56.5924 1.78978 60.1668Z" fill="#F7F8F8" stroke="#313235" stroke-width="2" stroke-miterlimit="10" stroke-linecap="round"/>
        <path d="M121.126 215.509C117.051 214.347 115.585 214.712 114.505 213.495C114.195 213.145 113.796 212.533 113.658 211.46L113.72 211.096C114.292 210.388 115.028 209.275 115.351 207.776C115.702 206.119 115.269 205.301 115.709 204.023C116.308 202.284 117.932 201.445 118.662 200.985C121.566 199.142 122.695 195.307 124.127 190.44C127.788 178.005 122.021 157.129 117.072 139.216C116.996 138.941 116.934 138.707 116.845 138.412C116.143 135.951 114.34 130.17 110.94 123.489C107.684 117.096 104.849 113.583 102.832 111.377C102.44 110.951 100.526 108.868 98.5237 107.232C90.0513 100.276 78.6194 99.9526 76.5615 99.9183C75.302 99.8976 59.2107 99.9183 47.5448 112.106C43.2777 116.567 41.1234 120.994 39.9534 123.75C17.4063 176.919 28.8381 194.977 28.8381 194.977C30.311 199.252 32.066 200.875 33.4701 201.521C33.9725 201.755 35.3146 202.27 35.8583 203.542C36.2093 204.36 36.0648 205.095 36.0235 205.563C35.9065 206.807 36.2644 208.69 38.515 211.371C38.515 211.399 38.5218 211.419 38.5287 211.447C37.4757 212.925 36.4089 213.804 35.6518 214.327C33.649 215.702 32.417 215.55 30.132 217.241C29.5677 217.661 28.7555 218.272 27.9503 219.269C26.4981 221.077 26.0163 222.995 25.8305 224.136C25.6859 225.023 25.5345 225.902 25.39 226.789C25.2248 227.772 25.3762 230.432 27.2689 231.78C28.3632 232.563 29.6434 232.584 30.4349 232.501C33.4425 231.896 35.7551 232.075 37.3174 232.364C38.6664 232.611 39.0587 232.838 40.4558 233.072C43.4497 233.567 45.8104 233.037 46.7809 232.859C49.1898 232.412 53.3606 232.192 61.0827 233.216C61.5576 233.216 64.0973 233.168 66.1483 231.12C67.4422 229.827 68.2475 228.033 68.2475 226.06V220.335C68.2475 217.104 68.9151 212.395 70.1677 207.989C70.56 206.607 71.3721 205.37 72.5215 204.504C73.5126 203.755 74.6688 203.136 76.0866 203.122C76.8093 203.122 77.4769 203.267 78.0826 203.507C79.989 204.257 81.3999 205.92 81.9712 207.886C83.2445 212.32 83.9189 217.076 83.9189 220.335V226.06C83.9189 230.013 87.1262 233.216 91.0836 233.216C92.5359 232.68 94.7107 232.109 97.2986 232.357C98.5787 232.481 99.2738 232.735 100.341 232.962C103.355 233.608 105.351 233.147 108.448 232.859C116.095 232.144 117.464 233.642 122.482 232.082C124.436 231.47 125.923 230.721 126.942 229.277C128.077 227.683 128.16 225.916 128.208 224.954C128.256 223.936 128.353 221.847 127.1 220.094C127.017 219.977 126.432 219.379 125.269 218.197C124.134 217.042 123.803 216.74 123.335 216.43C122.592 215.942 121.917 215.715 121.105 215.488L121.126 215.509Z" fill="#F7F8F8" stroke="#313235" stroke-width="2" stroke-miterlimit="10"/>
        <path d="M35.6514 214.341C38.4044 213.763 42.3756 213.262 47.097 213.777C50.7241 214.169 53.7386 215.049 55.9961 215.901" fill="#F7F8F8"/>
        <path d="M35.6514 214.341C38.4044 213.763 42.3756 213.262 47.097 213.777C50.7241 214.169 53.7386 215.049 55.9961 215.901" stroke="#313235" stroke-width="2" stroke-miterlimit="10" stroke-linecap="round"/>
        <path d="M121.126 215.509C118.373 214.932 114.402 214.43 109.68 214.946C106.053 215.337 103.039 216.217 100.781 217.07" fill="#F7F8F8"/>
        <path d="M121.126 215.509C118.373 214.932 114.402 214.43 109.68 214.946C106.053 215.337 103.039 216.217 100.781 217.07" stroke="#313235" stroke-width="2" stroke-miterlimit="10" stroke-linecap="round"/>
        <path d="M109.893 121.702C108.936 121.227 108.358 121.186 107.126 120.499C104.139 118.835 102.763 116.23 102.267 115.825C92.7143 107.981 79.8233 107.61 77.497 107.576C59.9053 107.315 50.256 124.926 44.7775 121.317C43.5593 120.512 42.4237 118.636 42.6853 113.962C41.2675 116.911 39.3266 121.145 37.2412 126.328C33.4007 135.869 29.051 146.661 27.0413 160.36C26.0984 166.774 25.362 175.95 26.5113 187.175C39.8152 190.213 56.939 192.881 76.9258 192.963C95.66 193.045 111.848 190.832 124.649 188.186C125.881 177.139 125.475 167.935 124.814 161.378C124.814 161.378 123.555 148.874 115.337 128.713C114.332 126.252 112.88 123.18 109.9 121.709L109.893 121.702Z" fill="#212732" stroke="#313235" stroke-width="2" stroke-miterlimit="10"/>
        <path d="M84.9368 157.088H68.8386C66.9872 157.088 65.5832 155.741 65.7002 154.105C65.8172 152.503 67.352 151.232 69.1345 151.232H84.634C86.4166 151.232 87.9582 152.503 88.0684 154.105C88.1854 155.734 86.7813 157.088 84.9299 157.088H84.9368Z" fill="#2CE3A7"/>
        <g style="mix-blend-mode:lighten">
            <path d="M81.9574 169.551L81.4963 154.105C81.4481 152.503 82.8591 151.232 84.6416 151.232C86.4242 151.232 87.9659 152.503 88.076 154.105L89.1979 169.551C89.3424 171.53 87.8076 173.166 85.7635 173.166C83.7194 173.166 82.0194 171.53 81.9574 169.551Z" fill="#0280F4"/>
        </g>
        <path d="M75.1778 167.935C75.1503 170.781 72.707 173.166 69.7268 173.166C66.7467 173.166 64.503 170.788 64.7095 167.935C64.9159 165.082 67.3386 163.013 70.1467 163.013C72.9547 163.013 75.2053 165.179 75.1778 167.935Z" fill="#2CE3EF"/>
        <path d="M37.2415 126.328C40.2905 128.898 44.5301 132.012 50.0086 134.796C56.4919 138.089 61.9635 139.539 64.0696 140.041C80.7804 144.083 94.5798 139.677 98.5786 138.336C106.59 135.662 111.876 132.074 115.021 127.008C115.792 125.764 116.136 125.138 116.088 124.472C115.62 117.969 37.6132 113.508 35.9476 123.413C35.7618 124.52 36.5464 125.585 37.2415 126.321V126.328Z" fill="#0D1219"/>
        <path d="M100.588 133.442C89.2732 136.192 79.913 136.226 76.0175 136.178C62.865 135.999 54.6886 135.896 45.1081 131.016C39.5883 128.204 30.0767 122.018 30.9163 117.406C31.1848 115.935 32.4443 114.952 33.6143 114.305H118.785C119.873 114.897 121.174 115.886 121.483 117.406C122.227 121.083 116.638 125.283 114.339 127.015C108.455 131.449 102.852 132.892 100.595 133.442H100.588Z" fill="#2CE3A7" stroke="#313235" stroke-width="2" stroke-miterlimit="10"/>
        <path d="M133.851 121.832C137.181 121.832 139.88 119.136 139.88 115.811C139.88 112.485 137.181 109.789 133.851 109.789C130.522 109.789 127.822 112.485 127.822 115.811C127.822 119.136 130.522 121.832 133.851 121.832Z" fill="#2CE3A7" stroke="#313235" stroke-width="2" stroke-miterlimit="10"/>
        <path d="M36.2441 115.88C37.5587 116.223 55.9557 121.062 72.811 124.871C75.3024 125.434 79.1842 126.266 83.5202 124.871C86.7481 123.833 86.6104 122.719 89.7626 121.605C94.3533 119.976 98.3314 121.021 104.464 122.63C108.868 123.784 110.266 124.836 110.94 126.245C111.539 127.496 110.685 128.06 110.52 128.947C111.16 128.582 111.952 128.087 112.771 127.558C114.03 126.733 114.946 126.067 115.132 125.936C117.589 124.128 119.027 123.076 120.218 121.269C121.057 119.997 121.567 119.227 121.546 118.265C121.498 115.935 118.318 113.694 113.824 112.539L36.251 115.886L36.2441 115.88Z" fill="#156347"/>
        <path d="M135.132 107.431C136.474 105.287 137.506 102.881 138.545 100.723C142.269 92.9689 146.873 83.7648 144.313 74.9937C143.177 71.11 141.512 67.3569 140.906 63.3494C139.894 56.7024 141.656 49.9935 140.886 43.3258C140.184 37.2631 138.718 31.3241 135.338 26.1549C131.718 20.6215 126.15 17.2602 115.021 10.5444C110.293 7.69175 106.989 5.67771 101.972 3.89738C93.3617 0.831636 86.1901 0.687285 84.1392 0.680411C79.7343 0.666664 82.1845 1.25094 66.5543 3.36809C62.5831 3.90425 57.3524 4.55727 50.6832 6.87376C50.1326 7.05935 49.2792 7.3618 48.2537 7.77424C34.8397 13.1702 27.2964 23.7835 24.5847 28.0796C22.4305 31.4959 18.8447 37.1944 17.5921 45.3468C16.2913 53.8291 18.9823 55.3964 18.2115 64.8342C17.9293 68.2848 17.4888 71.6599 16.188 74.8769C14.8184 78.2588 12.6986 81.5789 13.0358 85.3801C13.2423 87.6623 14.3435 89.7725 14.7702 92.0272C15.2451 94.5155 14.8941 97.1207 15.5067 99.5815C16.7042 104.373 21.0058 107.033 24.3232 110.243C28.0328 113.831 31.3502 117.598 36.1336 119.811C42.5687 122.788 49.4581 124.76 56.5334 125.407C56.5334 125.407 70.7182 127.338 78.0344 122.767C78.0688 122.746 78.3785 122.533 78.8465 122.43C79.0048 122.396 79.17 122.375 79.3489 122.368C82.5424 122.313 83.5197 128.782 88.5096 130.755C89.7759 131.256 90.9253 131.318 91.5172 131.325C91.8613 131.311 91.9921 131.201 92.0472 131.119C92.5978 130.349 90.0375 127.345 89.7553 126.355C89.7553 126.335 89.5832 125.75 89.5832 125.75C89.5282 125.544 89.48 125.331 89.4387 125.118C89.3974 124.905 89.363 124.692 89.3355 124.479C89.3079 124.266 89.2942 124.052 89.2873 123.833C89.2873 123.619 89.2873 123.406 89.3148 123.193C89.3836 122.616 89.4043 122.575 89.4387 122.568C89.4662 122.561 89.5763 122.54 89.8516 122.939C89.9411 123.125 90.0994 123.399 90.3609 123.681C90.5881 123.929 90.7533 124.032 91.1249 124.3C92.2399 125.09 92.4464 125.352 93.3273 125.853C93.3273 125.853 93.4512 125.922 93.582 125.991C94.0706 126.245 100.829 128.026 101.084 127.173C101.325 126.376 95.2682 125.4 94.2702 121.599C94.2702 121.585 94.2496 121.564 94.2565 121.537C94.3597 121.104 99.8726 122.533 104.119 122.616C109.501 122.726 113.734 120.643 115.145 119.963C117.43 118.856 119.268 117.137 121.477 115.934C124.519 114.278 128.139 113.852 131.023 111.906C132.709 110.765 134.017 109.184 135.111 107.425L135.132 107.431Z" fill="#F7F8F8" stroke="#313235" stroke-width="2" stroke-miterlimit="10"/>
        <path d="M55.3428 50.6602C55.5217 52.0693 56.0104 54.4477 57.5934 56.8741C57.8549 57.2728 61.6472 62.8613 68.5916 63.4455C73.6021 63.8648 79.8583 61.6446 80.6016 58.1595C80.9664 56.4411 80.0373 54.2414 78.9705 54.0696C77.9174 53.8977 76.6235 55.685 76.2381 57.2934C75.7426 59.3693 76.7543 61.1634 76.9608 61.5071C79.1425 65.1778 85.7153 66.0095 90.4092 64.7172C97.3399 62.8063 100.293 56.2486 100.761 55.1763" stroke="#313235" stroke-width="2" stroke-linecap="round" stroke-linejoin="round"/>
        <path d="M77.4766 91.9309C79.8854 89.9237 80.4223 89.2707 80.4223 89.2707C80.9591 88.6108 81.6267 87.731 82.3494 86.6518C82.5627 86.4249 82.6178 86.0881 82.4939 85.8063C82.3769 85.5382 82.1154 85.3389 81.7713 85.3389C80.4429 85.0364 78.7016 84.7752 76.6644 84.7958C74.8406 84.8164 73.2645 85.057 72.0325 85.3389C71.888 85.3664 71.4612 85.4695 71.3098 85.8063C71.1722 86.1225 71.3511 86.4662 71.4544 86.6518C72.4661 88.5283 73.3815 89.525 73.3815 89.525C74.7717 91.0304 74.9782 90.8036 76.3272 91.9309C76.4029 91.9996 76.6162 92.1715 76.8984 92.1784C77.1806 92.1784 77.394 92.0065 77.4834 91.9309H77.4766Z" fill="#313235"/>
        <path d="M96.6243 96.9626C96.3422 97.3888 93.2381 101.946 87.4706 102.132C82.1298 102.297 78.8261 98.5849 77.8695 97.3476C77.7318 97.1689 77.4565 97.1689 77.3189 97.3476C76.3691 98.5849 73.0586 102.304 67.7178 102.132C61.9433 101.953 60.9247 98.7773 60.6494 98.3512" stroke="#313235" stroke-width="4" stroke-linecap="round" stroke-linejoin="round"/>
        <path d="M60.642 84.789C62.9873 84.789 64.8885 81.336 64.8885 77.0765C64.8885 72.817 62.9873 69.364 60.642 69.364C58.2967 69.364 56.3955 72.817 56.3955 77.0765C56.3955 81.336 58.2967 84.789 60.642 84.789Z" fill="#313235"/>
        <path d="M93.5541 84.789C95.8994 84.789 97.8007 81.336 97.8007 77.0765C97.8007 72.817 95.8994 69.364 93.5541 69.364C91.2088 69.364 89.3076 72.817 89.3076 77.0765C89.3076 81.336 91.2088 84.789 93.5541 84.789Z" fill="#313235"/>
        <path opacity="0.1" d="M60.6418 92.4945C66.237 92.4945 70.7729 87.9643 70.7729 82.3761C70.7729 76.7879 66.237 72.2578 60.6418 72.2578C55.0466 72.2578 50.5107 76.7879 50.5107 82.3761C50.5107 87.9643 55.0466 92.4945 60.6418 92.4945Z" fill="#00A0E9"/>
        <path d="M60.6418 92.4945C66.237 92.4945 70.7729 87.9643 70.7729 82.3761C70.7729 76.7879 66.237 72.2578 60.6418 72.2578C55.0466 72.2578 50.5107 76.7879 50.5107 82.3761C50.5107 87.9643 55.0466 92.4945 60.6418 92.4945Z" stroke="#212123" stroke-width="2" stroke-miterlimit="10"/>
        <path opacity="0.1" d="M93.5549 92.4945C99.1501 92.4945 103.686 87.9643 103.686 82.3761C103.686 76.7879 99.1501 72.2578 93.5549 72.2578C87.9597 72.2578 83.4238 76.7879 83.4238 82.3761C83.4238 87.9643 87.9597 92.4945 93.5549 92.4945Z" fill="#00A0E9"/>
        <path d="M93.5549 92.4945C99.1501 92.4945 103.686 87.9643 103.686 82.3761C103.686 76.7879 99.1501 72.2578 93.5549 72.2578C87.9597 72.2578 83.4238 76.7879 83.4238 82.3761C83.4238 87.9643 87.9597 92.4945 93.5549 92.4945Z" stroke="#212123" stroke-width="2" stroke-miterlimit="10"/>
        <path d="M70.7324 82.3762C71.6065 81.7163 73.685 80.3278 76.6032 80.1903C80.0858 80.0254 82.5841 81.737 83.4238 82.3762" stroke="#212123" stroke-width="2" stroke-miterlimit="10"/>
        <path d="M120.052 128.355C114.36 126.857 105.798 131.291 103.933 131.627C103.906 131.627 103.761 131.655 103.561 131.696C103.149 131.786 102.529 131.93 101.806 132.184C101.744 132.205 101.366 132.342 100.946 132.528C98.7368 133.49 97.5806 134.783 95.4126 135.298C94.4215 135.539 94.2701 135.36 93.2996 135.69C92.1709 136.075 91.7304 136.528 90.9183 136.982C89.4317 137.814 89.0187 137.326 86.6442 138C84.201 138.701 84.4556 139.271 82.3564 139.711C81.3034 139.931 81.1726 139.807 78.516 140.103C76.6439 140.316 76.4375 140.412 75.5634 140.495C71.3857 140.907 67.0084 139.656 66.506 139.512C65.3222 139.168 64.3242 138.769 63.2574 139.216C62.4384 139.56 62.0805 140.185 61.172 140.261C60.3324 140.33 59.6717 139.869 59.417 139.711C56.5883 137.883 51.213 138.233 44.4475 134.033C41.8528 132.425 39.7192 130.548 38.6524 129.552C37.331 128.314 36.684 127.682 36.2573 127.091C35.5553 126.115 35.3764 125.517 34.6606 125.235C33.7796 124.884 32.8436 125.317 32.1691 125.627C31.5015 125.936 30.5517 126.506 29.0375 128.369C28.1979 129.393 27.3445 130.521 26.7113 131.813C25.8991 133.47 25.3348 136.178 26.8971 140.639C27.6542 143.67 28.7623 144.193 29.4161 146.654C29.7877 148.063 29.6914 149.121 30.4141 149.424C30.7306 149.554 30.944 149.424 31.3157 149.465C32.6578 149.596 33.4905 151.61 33.6075 151.871C34.5986 154.064 41.6257 157.714 49.8847 159.769C63.2574 163.103 73.0306 160.58 77.167 161.254C77.4836 161.309 78.6192 161.515 79.9063 161.082C80.9868 160.718 81.6613 160.071 81.8884 159.865C83.6366 158.284 85.9353 158.367 92.3843 156.311C95.4401 155.335 96.3624 154.923 99.5077 154.036C100.279 153.816 101.118 153.624 102.653 153.287C104.511 152.881 116.686 150.427 122.502 147.265C122.839 147.08 123.514 146.702 124.168 145.98C125.372 144.653 126.102 142.626 125.868 140.632C125.703 139.23 125.221 139.168 125.193 137.835C125.159 136.089 125.978 135.422 126.081 134.377C126.288 132.212 123.328 129.222 120.052 128.355Z" fill="#F7F8F8" stroke="#313235" stroke-width="2" stroke-miterlimit="10"/>
        <path d="M79.7827 110.002C78.0414 111.638 79.4661 117.055 82.3567 120.32C83.1138 121.172 84.1255 122.313 85.8118 123.097C87.1814 123.729 88.0417 123.688 89.2943 124.582C89.8174 124.96 90.3749 125.503 91.3247 126.864C91.951 127.764 93.8574 130.493 94.6764 134.329C94.9586 135.656 95.0206 136.666 95.5849 139.244C96.0874 141.54 96.404 142.392 96.7343 143.719C98.2416 149.843 96.3076 151.136 98.0764 154.971C98.7922 156.525 99.8934 158.924 102.089 159.7C102.791 159.948 103.906 160.14 105.255 161.034C106.129 161.611 106.494 162.086 106.92 162.464C108.861 164.196 112.385 164.251 114.945 163.392C116.453 162.883 119.805 161.323 120.1 159.15C120.162 158.724 120.169 157.796 120.844 157.13C121.271 156.71 121.656 156.69 122.034 156.504C122.675 156.188 123.335 155.384 123.886 150.455C124.127 148.269 124.251 147.176 124.168 145.973C124.072 144.55 123.934 142.873 122.984 141.196C122.296 139.979 121.794 139.849 120.582 138.536C118.834 136.639 117.76 134.521 115.613 130.287C114.911 128.899 114.505 127.991 113.473 127.063C112.784 126.438 112.261 126.211 111.704 125.434C110.926 124.341 110.823 123.193 110.782 122.822C110.513 120.643 108.318 116.773 103.913 109.033C101.58 104.929 100.485 103.314 98.7578 101.554C97.691 100.475 97.34 100.434 96.1218 99.2173C90.423 93.5189 88.668 88.3222 85.6947 88.7415C84.7381 88.8721 83.8778 89.5595 83.4717 90.3225C82.2948 92.5153 85.213 96.5571 86.6858 100.633C86.8235 101.004 87.1057 101.829 86.9611 102.847C86.851 103.644 86.5138 104.249 86.2866 104.593C83.5749 104.991 82.632 105.857 82.3085 106.62C82.0883 107.143 82.164 107.562 81.7717 108.256C81.166 109.322 80.3126 109.501 79.7827 109.996V110.002Z" fill="#F7F8F8" stroke="#313235" stroke-width="2" stroke-miterlimit="10"/>
        <path d="M126.074 134.377C129.404 134.377 132.103 131.681 132.103 128.355C132.103 125.03 129.404 122.334 126.074 122.334C122.744 122.334 120.045 125.03 120.045 128.355C120.045 131.681 122.744 134.377 126.074 134.377Z" fill="#2CE3A7" stroke="#313235" stroke-width="2" stroke-miterlimit="10"/>
    </g>
    <defs>
        <clipPath id="clip0_548_3953">
            <rect width="159" height="234" fill="white"/>
        </clipPath>
    </defs>
</svg>
