<svg width="46" height="46" viewBox="0 0 46 46" fill="none" xmlns="http://www.w3.org/2000/svg">
<path opacity="0.2" d="M18.7452 14.5596C18.6294 14.5596 18.5135 14.5266 18.4143 14.4493C18.1716 14.2674 18.122 13.9199 18.304 13.6773C18.8444 12.9548 19.054 12.3537 18.9327 11.8849C18.8555 11.5816 18.6404 11.372 18.3922 11.1238C18.0723 10.804 17.6753 10.4014 17.576 9.75063C17.4712 9.06678 17.7249 8.35535 18.3205 7.6329C18.5135 7.39576 18.861 7.36818 19.0981 7.5612C19.3353 7.75423 19.3628 8.10167 19.1698 8.33881C18.7783 8.81309 18.6073 9.23223 18.6624 9.58518C18.7066 9.86644 18.8775 10.0484 19.1698 10.3462C19.4676 10.644 19.8371 11.0191 19.9915 11.6036C20.2066 12.4088 19.9309 13.3298 19.1808 14.339C19.0705 14.4824 18.9051 14.5596 18.7397 14.5596H18.7452Z" fill="#2CE3A7"/>
<path opacity="0.2" d="M21.8614 14.5596C21.7456 14.5596 21.6298 14.5266 21.5305 14.4493C21.2878 14.2674 21.2382 13.9199 21.4202 13.6773C21.9606 12.9548 22.1702 12.3537 22.0489 11.8849C21.9717 11.5816 21.7566 11.372 21.5084 11.1238C21.1886 10.804 20.7915 10.4014 20.6922 9.75063C20.5874 9.06678 20.8411 8.35535 21.4367 7.6329C21.6297 7.39576 21.9772 7.36818 22.2143 7.5612C22.4515 7.75423 22.479 8.10167 22.286 8.33881C21.8945 8.81309 21.7235 9.23223 21.7787 9.58518C21.8228 9.86644 21.9937 10.0484 22.286 10.3462C22.5838 10.644 22.9533 11.0191 23.1078 11.6036C23.3228 12.4088 23.0471 13.3298 22.2971 14.339C22.1868 14.4824 22.0213 14.5596 21.8559 14.5596H21.8614Z" fill="#2CE3A7"/>
<path opacity="0.2" d="M25.0931 14.5596C24.9773 14.5596 24.8614 14.5266 24.7622 14.4493C24.5195 14.2674 24.4699 13.9199 24.6519 13.6773C25.1923 12.9548 25.4019 12.3537 25.2806 11.8849C25.2034 11.5816 24.9883 11.372 24.7401 11.1238C24.4202 10.804 24.0232 10.4014 23.9239 9.75063C23.8191 9.06678 24.0728 8.35535 24.6684 7.6329C24.8614 7.39576 25.2089 7.36818 25.446 7.5612C25.6832 7.75423 25.7107 8.10167 25.5177 8.33881C25.1262 8.81309 24.9552 9.23223 25.0103 9.58518C25.0545 9.86644 25.2254 10.0484 25.5177 10.3462C25.8155 10.644 26.185 11.0191 26.3394 11.6036C26.5545 12.4088 26.2788 13.3298 25.5287 14.339C25.4184 14.4824 25.253 14.5596 25.0876 14.5596H25.0931Z" fill="#2CE3A7"/>
<path d="M32.6375 27.2275C31.3967 30.3876 28.3193 32.6266 24.7181 32.6266H19.137C14.4383 32.6266 10.6274 28.8158 10.6274 24.1171V17.6205C10.6274 17.0028 11.1293 16.501 11.747 16.501H32.097C32.7147 16.501 33.2166 17.0028 33.2166 17.6205" stroke="url(#paint0_linear_416_33313)" stroke-width="2" stroke-miterlimit="10" stroke-linecap="round"/>
<path style="mix-blend-mode:lighten" d="M34.8546 25.8323C36.8222 25.8323 38.4173 24.2373 38.4173 22.2697C38.4173 20.3021 36.8222 18.707 34.8546 18.707C32.887 18.707 31.292 20.3021 31.292 22.2697C31.292 24.2373 32.887 25.8323 34.8546 25.8323Z" fill="url(#paint1_linear_416_33313)"/>
<path opacity="0.2" d="M35.2626 20.2345V19.2694C35.2626 18.6518 34.7608 18.1499 34.1431 18.1499H13.7875C13.1698 18.1499 12.668 18.6518 12.668 19.2694V25.766C12.668 30.4647 16.4788 34.2755 21.1775 34.2755H26.7586C30.9113 34.2755 34.3692 31.2975 35.1137 27.3598C35.1634 27.3598 35.213 27.3653 35.2681 27.3653C37.237 27.3653 38.8308 25.7715 38.8308 23.8027C38.8308 21.8339 37.237 20.2401 35.2681 20.2401L35.2626 20.2345Z" fill="#2CE3A7"/>
<defs>
<linearGradient id="paint0_linear_416_33313" x1="10.0759" y1="24.5638" x2="33.7736" y2="24.5638" gradientUnits="userSpaceOnUse">
<stop stop-color="#0280F4"/>
<stop offset="0.45" stop-color="#18B4CB"/>
<stop offset="0.81" stop-color="#26D6B1"/>
<stop offset="1" stop-color="#2CE3A7"/>
</linearGradient>
<linearGradient id="paint1_linear_416_33313" x1="38.4173" y1="22.2697" x2="31.292" y2="22.2697" gradientUnits="userSpaceOnUse">
<stop stop-color="#2CE3A7"/>
<stop offset="0.22" stop-color="#24D2B3"/>
<stop offset="0.65" stop-color="#12A7D5"/>
<stop offset="1" stop-color="#0280F4"/>
</linearGradient>
</defs>
</svg>
