<svg width="46" height="46" viewBox="0 0 46 46" fill="none" xmlns="http://www.w3.org/2000/svg">
<path style="mix-blend-mode:lighten" d="M30.3317 14.7356C32.2993 14.7356 33.8943 13.1406 33.8943 11.173C33.8943 9.2054 32.2993 7.61035 30.3317 7.61035C28.3641 7.61035 26.769 9.2054 26.769 11.173C26.769 13.1406 28.3641 14.7356 30.3317 14.7356Z" fill="url(#paint0_linear_416_33274)"/>
<path style="mix-blend-mode:lighten" d="M37.6389 15.144C36.7124 14.2174 35.2123 14.2174 34.2858 15.144L30.4088 19.0209L26.9896 15.6017C24.574 13.1862 20.6419 13.1862 18.2264 15.6017L17.6252 16.2028L14.0516 19.7765C13.1251 20.703 13.1251 22.2031 14.0516 23.1296C14.9781 24.0561 16.4781 24.0561 17.4046 23.1296L21.5794 18.9548C22.1475 18.3867 23.0685 18.3867 23.6365 18.9548L27.337 22.6553C29.0301 24.3484 31.7876 24.3484 33.4807 22.6553L37.6389 18.497C38.5654 17.5705 38.5654 16.0705 37.6389 15.144Z" stroke="url(#paint1_linear_416_33274)" stroke-width="2" stroke-miterlimit="10"/>
<path style="mix-blend-mode:lighten" d="M35.4716 33.2159L27.2654 25.0538L24.4859 22.2853L23.5759 21.3864C23.1678 20.9838 22.5005 20.9838 22.0924 21.3864L16.3128 27.1661C15.9322 27.5466 15.4249 27.7562 14.8899 27.7562C14.3495 27.7562 13.8421 27.5411 13.4671 27.1605L10.3511 24.017C9.45221 23.1126 7.99075 23.1071 7.08631 24.0005C6.18186 24.8994 6.17634 26.3609 7.06976 27.2653L10.1857 30.4088C11.4376 31.6718 13.1031 32.3666 14.8789 32.3721H14.8954C16.6547 32.3721 18.3423 31.6718 19.5831 30.4309L21.2817 28.7323L22.7708 27.3205C22.8866 27.2929 23.0134 27.3205 23.1072 27.4142L32.2233 36.4808C33.1278 37.3797 34.5892 37.3742 35.4882 36.4697C36.3871 35.5653 36.3816 34.1038 35.4771 33.2049L35.4716 33.2159Z" stroke="url(#paint2_linear_416_33274)" stroke-width="2" stroke-miterlimit="10"/>
<g opacity="0.2">
<g style="mix-blend-mode:lighten">
<path d="M31.6864 16.5467C33.654 16.5467 35.2491 14.9516 35.2491 12.984C35.2491 11.0164 33.654 9.42139 31.6864 9.42139C29.7188 9.42139 28.1238 11.0164 28.1238 12.984C28.1238 14.9516 29.7188 16.5467 31.6864 16.5467Z" fill="#2CE3A7"/>
</g>
<g style="mix-blend-mode:lighten">
<g style="mix-blend-mode:lighten">
<path d="M38.999 16.955C38.0725 16.0285 36.5724 16.0285 35.6459 16.955L31.7689 20.832L28.3497 17.4127C25.9342 14.9972 22.002 14.9972 19.5865 17.4127L18.9853 18.0139L15.4117 21.5875C14.4852 22.514 14.4852 24.0141 15.4117 24.9406C16.3382 25.8671 17.8382 25.8671 18.7648 24.9406L22.9396 20.7658C23.5076 20.1978 24.4286 20.1978 24.9966 20.7658L28.6971 24.4663C30.3902 26.1594 33.1477 26.1594 34.8408 24.4663L38.999 20.3081C39.9255 19.3816 39.9255 17.8815 38.999 16.955Z" fill="#2CE3A7"/>
</g>
<g style="mix-blend-mode:lighten">
<path d="M28.6199 26.8654L25.8404 24.0969L24.9304 23.1979C24.5223 22.7953 23.855 22.7953 23.4469 23.1979L17.6673 28.9776C17.2867 29.3581 16.7794 29.5677 16.2444 29.5677C15.704 29.5677 15.1966 29.3526 14.8216 28.9721L11.7056 25.8286C10.8067 24.9241 9.34525 24.9186 8.4408 25.812C7.53635 26.7109 7.53084 28.1724 8.42425 29.0768L11.5402 32.2204C12.7921 33.4833 14.4576 34.1782 16.2334 34.1837H16.2499C18.0092 34.1837 19.6968 33.4833 20.9376 32.2424L22.6362 30.5438L24.1252 29.132C24.2411 29.1044 24.3679 29.132 24.4617 29.2258L33.5778 38.2923C34.4823 39.1912 35.9437 39.1857 36.8427 38.2813C37.7416 37.3768 37.7361 35.9154 36.8316 35.0164L28.6254 26.8543L28.6199 26.8654Z" fill="#2CE3A7"/>
</g>
</g>
</g>
<defs>
<linearGradient id="paint0_linear_416_33274" x1="33.8943" y1="11.173" x2="26.769" y2="11.173" gradientUnits="userSpaceOnUse">
<stop stop-color="#2CE3A7"/>
<stop offset="0.22" stop-color="#24D2B3"/>
<stop offset="0.65" stop-color="#12A7D5"/>
<stop offset="1" stop-color="#0280F4"/>
</linearGradient>
<linearGradient id="paint1_linear_416_33274" x1="25.848" y1="24.205" x2="25.848" y2="13.5171" gradientUnits="userSpaceOnUse">
<stop stop-color="#0280F4"/>
<stop offset="0.45" stop-color="#18B4CB"/>
<stop offset="0.81" stop-color="#26D6B1"/>
<stop offset="1" stop-color="#2CE3A7"/>
</linearGradient>
<linearGradient id="paint2_linear_416_33274" x1="21.2707" y1="37.4404" x2="21.2707" y2="20.8129" gradientUnits="userSpaceOnUse">
<stop stop-color="#0280F4"/>
<stop offset="0.45" stop-color="#18B4CB"/>
<stop offset="0.81" stop-color="#26D6B1"/>
<stop offset="1" stop-color="#2CE3A7"/>
</linearGradient>
</defs>
</svg>
