<svg width="12" height="7" viewBox="0 0 12 7" fill="none" xmlns="http://www.w3.org/2000/svg">
<path d="M6 7C5.91244 7 5.8318 6.9833 5.75806 6.9499C5.67972 6.9165 5.60829 6.86639 5.54378 6.79959L0.179723 1.12372C0.0599079 0.994887 -3.67092e-08 0.839808 -2.87834e-08 0.658486C-2.33604e-08 0.534423 0.0276489 0.424676 0.0829487 0.329243C0.138248 0.229038 0.214285 0.150306 0.31106 0.0930465C0.403226 0.0310151 0.509216 -5.13124e-07 0.629032 -4.97041e-07C0.799539 -4.74153e-07 0.949308 0.0644167 1.07834 0.193251L6 5.40389L10.9217 0.193252C11.0507 0.0644181 11.2005 9.21994e-07 11.371 9.44881e-07C11.4908 9.60965e-07 11.5968 0.0310167 11.6889 0.093048C11.7857 0.150308 11.8618 0.22904 11.9171 0.329244C11.9724 0.424677 12 0.534425 12 0.658488C12 0.83981 11.9378 0.994888 11.8134 1.12372L6.45622 6.79959C6.3917 6.86639 6.32258 6.9165 6.24885 6.9499C6.17051 6.9833 6.08756 7 6 7Z" fill="#AFAFAF"/>
</svg>
