<svg width="22" height="22" viewBox="0 0 22 22" fill="none" xmlns="http://www.w3.org/2000/svg">
<path d="M3.88672 21.7583C2.66016 21.7583 1.73828 21.4536 1.12109 20.8442C0.511719 20.2427 0.207031 19.3364 0.207031 18.1255V3.81689C0.207031 2.60596 0.511719 1.69971 1.12109 1.09814C1.73828 0.48877 2.66016 0.184082 3.88672 0.184082H18.1016C19.3281 0.184082 20.2461 0.48877 20.8555 1.09814C21.4727 1.69971 21.7812 2.60596 21.7812 3.81689V18.1255C21.7812 19.3364 21.4727 20.2427 20.8555 20.8442C20.2461 21.4536 19.3281 21.7583 18.1016 21.7583H3.88672ZM3.91016 19.8716H18.0781C18.6562 19.8716 19.1016 19.7192 19.4141 19.4146C19.7344 19.1021 19.8945 18.6411 19.8945 18.0317V3.91064C19.8945 3.30127 19.7344 2.84424 19.4141 2.53955C19.1016 2.22705 18.6562 2.0708 18.0781 2.0708H3.91016C3.32422 2.0708 2.875 2.22705 2.5625 2.53955C2.25 2.84424 2.09375 3.30127 2.09375 3.91064V18.0317C2.09375 18.6411 2.25 19.1021 2.5625 19.4146C2.875 19.7192 3.32422 19.8716 3.91016 19.8716ZM4.84766 11.938C4.50391 11.938 4.26172 11.8442 4.12109 11.6567C3.98047 11.4614 3.9375 11.2466 3.99219 11.0122C4.04688 10.7778 4.20312 10.6021 4.46094 10.4849L15.5234 5.22314C15.8281 5.08252 16.1016 5.05908 16.3438 5.15283C16.5938 5.24658 16.7656 5.41455 16.8594 5.65674C16.9531 5.89893 16.9297 6.17236 16.7891 6.47705L11.5859 17.563C11.4688 17.813 11.293 17.9692 11.0586 18.0317C10.832 18.0864 10.6211 18.0435 10.4258 17.9028C10.2305 17.7622 10.1328 17.5161 10.1328 17.1646V12.3247C10.1328 12.0669 10.0078 11.938 9.75781 11.938H4.84766Z" fill="#D9D9D9"/>
</svg>
