<svg width="189" height="142" viewBox="0 0 189 142" fill="none" xmlns="http://www.w3.org/2000/svg">
    <g clip-path="url(#clip0_550_3996)" filter="url(#filter0_d_550_3996)">
        <path d="M154.679 4H8.32108C5.93462 4 4 5.92511 4 8.29986V108.7C4 111.075 5.93462 113 8.32108 113H154.679C157.065 113 159 111.075 159 108.7V8.29986C159 5.92511 157.065 4 154.679 4Z" fill="#212732"/>
        <path d="M45.3223 45.528V27.312H58.3303C61.0983 27.312 62.4823 28.416 62.4823 30.624V35.328C62.4823 37.536 61.0983 38.64 58.3303 38.64H48.6583V45.528H45.3223ZM48.6583 35.76H58.0423C58.7783 35.76 59.1463 35.464 59.1463 34.872V31.08C59.1463 30.488 58.7783 30.192 58.0423 30.192H48.6583V35.76ZM60.7282 45.528L69.2962 27.312H72.7522L81.2962 45.528H77.8642L75.8242 41.232H66.2002L64.1842 45.528H60.7282ZM67.4962 38.4H74.5522L71.0242 30.912L67.4962 38.4ZM82.8926 45.528V42.648H95.5886C96.3246 42.648 96.6926 42.352 96.6926 41.76V38.112C96.6926 37.536 96.3246 37.248 95.5886 37.248H87.0206C84.2686 37.248 82.8926 36.144 82.8926 33.936V30.624C82.8926 28.416 84.2686 27.312 87.0206 27.312H98.6606V30.192H87.3326C86.5966 30.192 86.2286 30.488 86.2286 31.08V33.504C86.2286 34.096 86.5966 34.392 87.3326 34.392H95.9006C98.6526 34.392 100.029 35.496 100.029 37.704V42.216C100.029 44.424 98.6526 45.528 95.9006 45.528H82.8926ZM102.369 45.528V42.648H115.065C115.801 42.648 116.169 42.352 116.169 41.76V38.112C116.169 37.536 115.801 37.248 115.065 37.248H106.497C103.745 37.248 102.369 36.144 102.369 33.936V30.624C102.369 28.416 103.745 27.312 106.497 27.312H118.137V30.192H106.809C106.073 30.192 105.705 30.488 105.705 31.08V33.504C105.705 34.096 106.073 34.392 106.809 34.392H115.377C118.129 34.392 119.505 35.496 119.505 37.704V42.216C119.505 44.424 118.129 45.528 115.377 45.528H102.369Z" fill="white"/>
        <path d="M110.888 66H24.1117C22.9454 66 22 67.0372 22 68.3167V69.6833C22 70.9628 22.9454 72 24.1117 72H110.888C112.055 72 113 70.9628 113 69.6833V68.3167C113 67.0372 112.055 66 110.888 66Z" fill="#3C4554"/>
        <path d="M77.8901 82H24.1099C22.9446 82 22 82.8643 22 83.9306V85.0694C22 86.1357 22.9446 87 24.1099 87H77.8901C79.0554 87 80 86.1357 80 85.0694V83.9306C80 82.8643 79.0554 82 77.8901 82Z" fill="#3C4554"/>
        <path d="M133 88V131L148.519 115.136L163 129.939V88H133Z" fill="#3C4554"/>
        <path d="M171.861 66.2336C171.629 65.9849 171.489 65.6585 171.505 65.3165L171.551 64.0731L151.839 82.2583L136.002 67.6324L141.255 61.9126L151.855 71.6891L171.706 53.3796C171.489 53.0221 171.117 52.7734 170.652 52.7734H162.749C162.315 52.7734 161.912 52.5403 161.68 52.1672L156.442 43.6031C156.024 42.9037 155.063 42.7949 154.489 43.3699L149.252 48.6235C148.818 49.0587 148.136 49.1208 147.64 48.7478L140.76 43.7896C140.109 43.3233 139.194 43.572 138.884 44.3181L135.181 52.8822C134.979 53.3485 134.53 53.6438 134.034 53.6438H127.371C126.673 53.6438 126.115 54.2034 126.115 54.9028V64.8347C126.115 65.1611 125.976 65.4875 125.743 65.7207L120.366 71.1141C119.886 71.5959 119.87 72.3886 120.366 72.8859L125.124 77.7664C125.356 78.0151 125.495 78.3415 125.48 78.6835L125.093 89.921C125.062 90.636 125.635 91.2266 126.348 91.2266H134.251C134.685 91.2266 135.088 91.4597 135.32 91.8328L140.558 100.397C140.976 101.096 141.937 101.205 142.511 100.63L147.748 95.3765C148.182 94.9413 148.864 94.8792 149.36 95.2522L156.24 100.21C156.891 100.677 157.806 100.428 158.116 99.6975L161.819 91.1333C162.021 90.667 162.47 90.3717 162.966 90.3717H169.629C170.327 90.3717 170.885 89.8122 170.885 89.1128V79.1808C170.885 78.8544 171.024 78.528 171.257 78.2949L176.634 72.9015C177.114 72.4197 177.13 71.627 176.634 71.1296L171.876 66.2491L171.861 66.2336Z" fill="#2CE3A7"/>
    </g>
    <defs>
        <filter id="filter0_d_550_3996" x="0" y="-1" width="189" height="143" filterUnits="userSpaceOnUse" color-interpolation-filters="sRGB">
            <feFlood flood-opacity="0" result="BackgroundImageFix"/>
            <feColorMatrix in="SourceAlpha" type="matrix" values="0 0 0 0 0 0 0 0 0 0 0 0 0 0 0 0 0 0 127 0" result="hardAlpha"/>
            <feOffset dx="4" dy="4"/>
            <feGaussianBlur stdDeviation="4"/>
            <feComposite in2="hardAlpha" operator="out"/>
            <feColorMatrix type="matrix" values="0 0 0 0 0 0 0 0 0 0 0 0 0 0 0 0 0 0 0.25 0"/>
            <feBlend mode="normal" in2="BackgroundImageFix" result="effect1_dropShadow_550_3996"/>
            <feBlend mode="normal" in="SourceGraphic" in2="effect1_dropShadow_550_3996" result="shape"/>
        </filter>
        <clipPath id="clip0_550_3996">
            <rect width="173" height="127" fill="white" transform="translate(4 3)"/>
        </clipPath>
    </defs>
</svg>
