<svg width="135" height="32" viewBox="0 0 135 32" fill="none" xmlns="http://www.w3.org/2000/svg">
    <path d="M0 24.3139V1.46802H5.07765V20.3145H14.7934V24.3139H0Z" fill="white"/>
    <path d="M15.9658 2.32759C15.9658 0.774071 16.8731 0 18.6878 0C20.5025 0 21.4098 0.774071 21.4098 2.32759C21.4098 3.06941 21.1844 3.64458 20.7279 4.05312C20.277 4.46703 19.5951 4.6713 18.6878 4.6713C16.8731 4.6713 15.9658 3.89186 15.9658 2.32759ZM21.1731 24.3134H16.1743V6.843H21.1731V24.3134Z" fill="white"/>
    <path d="M40.9416 24.3129H35.9429V14.1102C35.9429 12.8524 35.7062 11.9063 35.2384 11.272C34.7707 10.6377 34.0212 10.3259 32.9955 10.3259C31.5979 10.3259 30.5891 10.772 29.9635 11.6644C29.338 12.5567 29.028 14.0296 29.028 16.0938V24.3129H24.0293V6.84255H27.8446L28.5152 9.07876H28.7913C29.3493 8.23481 30.1157 7.59512 31.0907 7.16508C32.0656 6.73504 33.1815 6.51465 34.4269 6.51465C36.5572 6.51465 38.1746 7.06295 39.2735 8.16492C40.3781 9.26152 40.9304 10.8527 40.9304 12.9222V24.3129H40.9416Z" fill="white"/>
    <path d="M51.9946 24.6247C49.0472 24.6247 46.7423 23.8506 45.0798 22.2971C43.4173 20.7436 42.5889 18.545 42.5889 15.7014C42.5889 12.8577 43.3553 10.5086 44.8882 8.91212C46.4211 7.3156 48.5457 6.51465 51.2507 6.51465C53.9558 6.51465 55.855 7.21884 57.2977 8.62184C58.7404 10.0302 59.4618 11.9708 59.4618 14.4489V16.7603H47.6496C47.706 18.115 48.123 19.1739 48.912 19.9319C49.701 20.6952 50.7999 21.0715 52.2201 21.0715C53.3246 21.0715 54.3672 20.964 55.3478 20.7436C56.3284 20.5232 57.3597 20.1738 58.4248 19.6954V23.3829C57.5513 23.7969 56.6158 24.1086 55.6239 24.3129C54.6321 24.5172 53.4204 24.6193 51.989 24.6193L51.9946 24.6247ZM51.2902 9.90658C50.2307 9.90658 49.4023 10.2291 48.7993 10.8688C48.1963 11.5085 47.8525 12.4169 47.768 13.5942H54.7786C54.7561 12.4169 54.4348 11.5085 53.8149 10.8688C53.195 10.2291 52.3497 9.90658 51.2902 9.90658Z" fill="white"/>
    <path d="M81.0277 1.46802V16.2506C81.0277 17.9385 80.6332 19.4168 79.8386 20.6908C79.044 21.9648 77.9056 22.9377 76.4066 23.615C74.9075 24.2924 73.1436 24.631 71.0979 24.631C68.0208 24.631 65.6257 23.8784 63.9238 22.3733C62.2218 20.8682 61.3652 18.8094 61.3652 16.1915V1.46802H66.426V15.455C66.426 17.2182 66.7979 18.5083 67.5418 19.3308C68.2857 20.1532 69.5143 20.5671 71.2275 20.5671C72.9407 20.5671 74.0903 20.1532 74.8399 19.3254C75.5894 18.4976 75.9614 17.1967 75.9614 15.4282V1.46802H81.0221H81.0277Z" fill="white"/>
    <path d="M94.1767 24.6247C92.0239 24.6247 90.3389 23.8775 89.1159 22.3885H88.8567C89.0314 23.8452 89.1159 24.6892 89.1159 24.9203V31.9999H84.1172V6.84255H88.1804L88.8849 9.11101H89.1159C90.2825 7.3801 92.0182 6.51465 94.3063 6.51465C96.4703 6.51465 98.161 7.31022 99.3839 8.90674C100.607 10.4979 101.221 12.7126 101.221 15.5455C101.221 17.4108 100.934 19.0288 100.359 20.4049C99.7841 21.781 98.9669 22.8293 97.9074 23.5442C96.8479 24.2645 95.6025 24.6247 94.171 24.6247H94.1767ZM92.7002 10.3259C91.466 10.3259 90.5643 10.686 89.9951 11.4117C89.4259 12.1374 89.1328 13.3308 89.1103 14.9972V15.5132C89.1103 17.3893 89.4033 18.7331 89.9894 19.5448C90.5755 20.3565 91.4998 20.7651 92.7678 20.7651C95.0051 20.7651 96.1266 19.0073 96.1266 15.481C96.1266 13.7608 95.8504 12.4707 95.2982 11.616C94.7459 10.7559 93.8836 10.3259 92.7002 10.3259Z" fill="white"/>
    <path d="M102.264 22.0777C102.264 21.2015 102.512 20.5403 103.002 20.0941C103.492 19.6479 104.208 19.4222 105.149 19.4222C106.09 19.4222 106.755 19.6533 107.257 20.1102C107.753 20.5671 108.001 21.223 108.001 22.0777C108.001 22.9324 107.747 23.5505 107.246 24.0236C106.744 24.4966 106.045 24.7331 105.149 24.7331C104.253 24.7331 103.52 24.502 103.019 24.0397C102.517 23.5774 102.264 22.9216 102.264 22.0777ZM107.161 16.7344H103.165L102.331 1.46802H108.001L107.167 16.7344H107.161Z" fill="white"/>
    <path d="M132.751 1H119.249C118.007 1 117 1.96251 117 3.14983V3.91267C117 5.09999 118.007 6.0625 119.249 6.0625H132.751C133.993 6.0625 135 5.09999 135 3.91267V3.14983C135 1.96251 133.993 1 132.751 1Z" fill="#2CE3A7"/>
    <g style="mix-blend-mode:lighten">
        <path d="M135 16.7507V3.2493C135 2.00705 134.037 1 132.85 1H132.087C130.9 1 129.938 2.00705 129.938 3.2493V16.7507C129.938 17.993 130.9 19 132.087 19H132.85C134.037 19 135 17.993 135 16.7507Z" fill="#0280F4"/>
    </g>
    <path d="M120.656 19C122.676 19 124.312 17.363 124.312 15.3437C124.312 13.3245 122.676 11.6875 120.656 11.6875C118.637 11.6875 117 13.3245 117 15.3437C117 17.363 118.637 19 120.656 19Z" fill="#2CE3EF"/>
</svg>
