<svg width="54" height="54" viewBox="0 0 54 54" fill="none" xmlns="http://www.w3.org/2000/svg">
    <circle cx="27" cy="27" r="27" fill="white"/>
    <path d="M31.4297 20.9062C31.5938 20.9062 31.8477 20.9258 32.1914 20.9648C32.543 20.9961 32.9414 21.082 33.3867 21.2227C33.832 21.3633 34.2852 21.5898 34.7461 21.9023C35.207 22.2148 35.6328 22.6523 36.0234 23.2148C35.9844 23.2383 35.8359 23.3438 35.5781 23.5312C35.3281 23.7188 35.043 23.9922 34.7227 24.3516C34.4023 24.7031 34.1211 25.1523 33.8789 25.6992C33.6445 26.2383 33.5273 26.8828 33.5273 27.6328C33.5273 28.4922 33.6758 29.2188 33.9727 29.8125C34.2773 30.4062 34.6289 30.8867 35.0273 31.2539C35.4336 31.6211 35.793 31.8906 36.1055 32.0625C36.4258 32.2266 36.5977 32.3125 36.6211 32.3203C36.6133 32.3516 36.5547 32.5273 36.4453 32.8477C36.3359 33.1602 36.1641 33.5664 35.9297 34.0664C35.7031 34.5586 35.4062 35.0742 35.0391 35.6133C34.7031 36.0898 34.3555 36.5469 33.9961 36.9844C33.6445 37.4219 33.2578 37.7773 32.8359 38.0508C32.4219 38.332 31.9531 38.4727 31.4297 38.4727C31.0312 38.4727 30.6914 38.4258 30.4102 38.332C30.1289 38.2383 29.8594 38.1289 29.6016 38.0039C29.3516 37.8867 29.0742 37.7812 28.7695 37.6875C28.4648 37.5938 28.0859 37.5469 27.6328 37.5469C27.0391 37.5469 26.543 37.625 26.1445 37.7812C25.7539 37.9453 25.3828 38.1055 25.0312 38.2617C24.6797 38.418 24.2656 38.4961 23.7891 38.4961C23.0625 38.4961 22.4219 38.207 21.8672 37.6289C21.3203 37.0508 20.7578 36.3594 20.1797 35.5547C19.7344 34.9141 19.3281 34.1758 18.9609 33.3398C18.5938 32.5039 18.3008 31.6172 18.082 30.6797C17.8633 29.7422 17.7539 28.8047 17.7539 27.8672C17.7539 26.3672 18.0391 25.1055 18.6094 24.082C19.1797 23.0586 19.9102 22.2852 20.8008 21.7617C21.6914 21.2383 22.6172 20.9766 23.5781 20.9766C24.0859 20.9766 24.5625 21.0586 25.0078 21.2227C25.4609 21.3867 25.8828 21.5547 26.2734 21.7266C26.6641 21.8906 27.0195 21.9727 27.3398 21.9727C27.6445 21.9727 28.0039 21.8867 28.418 21.7148C28.832 21.5352 29.2891 21.3555 29.7891 21.1758C30.2969 20.9961 30.8438 20.9062 31.4297 20.9062ZM30.6094 19.0078C30.2188 19.4844 29.7266 19.8789 29.1328 20.1914C28.5469 20.5039 27.9922 20.6602 27.4688 20.6602C27.3594 20.6602 27.2539 20.6484 27.1523 20.625C27.1445 20.5938 27.1328 20.5391 27.1172 20.4609C27.1094 20.3828 27.1055 20.2969 27.1055 20.2031C27.1055 19.6094 27.2344 19.0312 27.4922 18.4688C27.75 17.9062 28.0469 17.4375 28.3828 17.0625C28.7969 16.5703 29.3203 16.1602 29.9531 15.832C30.5938 15.5039 31.207 15.3281 31.793 15.3047C31.8164 15.4375 31.8281 15.5898 31.8281 15.7617C31.8281 16.3633 31.7148 16.9492 31.4883 17.5195C31.2617 18.082 30.9688 18.5781 30.6094 19.0078Z" fill="black"/>
</svg>
