<svg width="54" height="54" viewBox="0 0 54 54" fill="none" xmlns="http://www.w3.org/2000/svg">
    <circle cx="27" cy="27" r="27" fill="white"/>
    <path d="M15.7799 32.5388L19.984 29.3238C19.7436 28.5937 19.6136 27.8126 19.6136 27.0001C19.6136 26.1876 19.7436 25.4065 19.984 24.6764L15.7799 21.4614C14.9599 23.1285 14.5 25.008 14.5 27.0001C14.5 28.9922 14.9599 30.8717 15.7799 32.5388Z" fill="#FBBC05"/>
    <path d="M19.9844 24.6763C20.9544 21.7301 23.722 19.6136 27.0004 19.6136C28.7618 19.6136 30.3527 20.2386 31.6027 21.2614L35.2391 17.625C33.0231 15.6932 30.1822 14.5 27.0004 14.5C22.0607 14.5 17.8135 17.3276 15.7803 21.4613L19.9844 24.6763Z" fill="#EA4335"/>
    <path d="M27.0002 39.5001C22.0591 39.5001 17.8109 36.6709 15.7783 32.5354L19.9808 29.3135C20.9477 32.2651 23.7179 34.3865 27.0002 34.3865C28.6063 34.3865 30.0294 34.0082 31.1564 33.297L35.1476 36.387C32.9627 38.4184 30.0491 39.5001 27.0002 39.5001Z" fill="#34A853"/>
    <path d="M27 24.7273H38.6477C38.8182 25.4659 38.9318 26.2614 38.9318 27C38.9318 31.0742 37.4413 34.254 35.1474 36.3869L31.1562 33.2969C32.4612 32.4733 33.3692 31.2032 33.7045 29.5568H27V24.7273Z" fill="#4285F4"/>
</svg>
