<svg width="390" height="215" viewBox="0 0 390 215" fill="none" xmlns="http://www.w3.org/2000/svg">
<rect width="390" height="215" fill="#0280F4"/>
<path d="M36.724 62.836C37.788 62.836 38.6093 63.1907 39.188 63.9C39.7667 64.6093 40.056 65.6313 40.056 66.966V67.582C40.056 69.234 39.734 70.48 39.09 71.32C38.446 72.16 37.5407 72.58 36.374 72.58C35.9167 72.58 35.478 72.524 35.058 72.412C34.638 72.2907 34.3113 72.1507 34.078 71.992L34.386 71.096C34.9087 71.404 35.548 71.558 36.304 71.558C37.0973 71.558 37.6993 71.292 38.11 70.76C38.53 70.2187 38.7633 69.318 38.81 68.058C38.2033 68.73 37.438 69.066 36.514 69.066C35.6927 69.066 35.0067 68.7953 34.456 68.254C33.9147 67.7127 33.644 66.9987 33.644 66.112C33.644 65.1787 33.9193 64.3993 34.47 63.774C35.0207 63.1487 35.772 62.836 36.724 62.836ZM36.738 63.83C36.15 63.83 35.688 64.0307 35.352 64.432C35.0253 64.8333 34.862 65.3607 34.862 66.014C34.862 66.6953 35.0347 67.2087 35.38 67.554C35.7347 67.89 36.206 68.058 36.794 68.058C37.186 68.058 37.564 67.946 37.928 67.722C38.3013 67.498 38.5953 67.2367 38.81 66.938V66.672C38.81 65.7853 38.6373 65.09 38.292 64.586C37.956 64.082 37.438 63.83 36.738 63.83ZM51.9226 73.966H43.1166V71.32H50.2286V70.494H43.1166V69.57H51.4606V72.174H44.3626V73.028H51.9226V73.966ZM47.3586 62.57C47.928 62.934 48.2126 63.4287 48.2126 64.054C48.2126 64.6793 47.928 65.174 47.3586 65.538C46.7893 65.8927 46.0613 66.07 45.1746 66.07C44.288 66.07 43.5553 65.888 42.9766 65.524C42.4073 65.16 42.1226 64.6653 42.1226 64.04C42.1226 63.4333 42.412 62.948 42.9906 62.584C43.5693 62.2107 44.2973 62.024 45.1746 62.024C46.0613 62.024 46.7893 62.206 47.3586 62.57ZM51.4606 69.08H50.2426V68.59H47.6246V67.708H50.2426V61.744H51.4606V69.08ZM45.7346 69.094H44.5026V67.596C42.9253 67.6333 41.894 67.6567 41.4086 67.666L41.2266 66.644C42.8133 66.644 44.1666 66.6207 45.2866 66.574C46.9946 66.4993 48.306 66.406 49.2206 66.294L49.3326 67.218C48.558 67.3207 47.3586 67.4233 45.7346 67.526V69.094ZM46.4626 64.824C46.7986 64.6467 46.9666 64.39 46.9666 64.054C46.9666 63.718 46.8033 63.4567 46.4766 63.27C46.15 63.0833 45.716 62.99 45.1746 62.99C44.6426 62.99 44.2133 63.0833 43.8866 63.27C43.56 63.4567 43.3966 63.718 43.3966 64.054C43.3966 64.39 43.56 64.6467 43.8866 64.824C44.2133 65.0013 44.6426 65.09 45.1746 65.09C45.7066 65.09 46.136 65.0013 46.4626 64.824ZM68.1757 72.202H57.1297V71.194H68.1757V72.202ZM66.7057 63.13C66.7057 66.2567 66.5143 68.6507 66.1317 70.312L64.9277 70.158C65.077 69.598 65.1983 68.702 65.2917 67.47C65.3943 66.2287 65.4457 65.1133 65.4457 64.124H58.2777V63.13H66.7057ZM79.5749 70.844H78.3849V66.322H77.0409V70.452H75.8649V61.968H77.0409V65.314H78.3849V61.744H79.5749V70.844ZM75.1509 67.806L75.2909 68.786C73.9376 69.0473 72.4069 69.178 70.6989 69.178H69.8029V65.328H73.3869V63.746H69.7609V62.738H74.6189V66.308H71.0349V68.17C72.6776 68.17 74.0496 68.0487 75.1509 67.806ZM79.8969 73.616H71.3849V69.92H72.6169V72.608H79.8969V73.616ZM91.0862 68.744H82.7842V62.948H90.9742V63.956H84.0162V67.75H91.0862V68.744ZM92.4022 72.328H81.3562V71.32H92.4022V72.328ZM107.227 65.902C107.227 66.854 106.868 67.638 106.149 68.254C105.44 68.8607 104.483 69.2107 103.279 69.304V71.376H108.193V72.398H97.1472V71.376H102.033V69.29C100.839 69.1873 99.8866 68.8327 99.1772 68.226C98.4679 67.6193 98.1132 66.8447 98.1132 65.902C98.1132 64.8847 98.5286 64.0633 99.3592 63.438C100.199 62.8127 101.301 62.5 102.663 62.5C104.045 62.5 105.151 62.8127 105.981 63.438C106.812 64.054 107.227 64.8753 107.227 65.902ZM105.043 67.61C105.65 67.1713 105.953 66.602 105.953 65.902C105.953 65.202 105.65 64.6327 105.043 64.194C104.446 63.7553 103.653 63.536 102.663 63.536C101.683 63.536 100.89 63.7553 100.283 64.194C99.6859 64.6327 99.3872 65.202 99.3872 65.902C99.3872 66.602 99.6859 67.1713 100.283 67.61C100.89 68.0487 101.683 68.268 102.663 68.268C103.643 68.268 104.437 68.0487 105.043 67.61ZM119.159 67.288H110.353V66.28H112.215L111.865 64.096L113.097 63.914L113.377 66.28H116.135L116.443 63.9L117.689 64.096L117.269 66.28H119.159V67.288ZM119.033 73.616H110.689V70.284H111.921V72.622H119.033V73.616ZM120.307 69.374H109.261V68.366H120.307V69.374ZM119.173 63.48H110.339V62.486H119.173V63.48ZM122.2 70.186L122.046 62.556H123.404L123.25 70.186H122.2ZM122.06 72.65V71.292H123.418V72.65H122.06Z" fill="white"/>
<path d="M53.04 106.232H33.72V104H41.952V100.592C40 100.368 38.44 99.728 37.272 98.672C36.12 97.6 35.544 96.288 35.544 94.736C35.544 92.992 36.264 91.576 37.704 90.488C39.144 89.4 41.04 88.856 43.392 88.856C45.744 88.856 47.64 89.4 49.08 90.488C50.52 91.576 51.24 92.992 51.24 94.736C51.24 96.304 50.656 97.624 49.488 98.696C48.32 99.752 46.744 100.384 44.76 100.592V104H53.04V106.232ZM48.408 94.76C48.408 93.688 47.952 92.824 47.04 92.168C46.128 91.496 44.912 91.16 43.392 91.16C41.888 91.16 40.68 91.496 39.768 92.168C38.856 92.824 38.4 93.688 38.4 94.76C38.4 95.848 38.856 96.72 39.768 97.376C40.68 98.032 41.888 98.36 43.392 98.36C44.896 98.36 46.104 98.032 47.016 97.376C47.944 96.72 48.408 95.848 48.408 94.76ZM73.8056 101.192H54.4856V98.96H73.8056V101.192ZM71.5736 108.32H56.9576V102.272H59.7416V106.112H71.5736V108.32ZM71.8136 97.352H56.4056V95.12H59.3336L58.8056 91.784L61.4936 91.376L61.9736 95.12H66.2456L66.7976 91.376L69.5336 91.784L68.8856 95.12H71.8136V97.352ZM71.8616 90.752H56.3336V88.544H71.8616V90.752ZM87.2753 99.68C85.3233 100.144 82.5153 100.376 78.8513 100.376H76.0193V93.488H82.5953V91.232H76.0193V88.976H85.4273V95.6H78.8513V98.168C82.6593 98.168 85.3473 97.952 86.9153 97.52L87.2753 99.68ZM90.1073 95.504H86.7953V93.2H90.1073V87.512H92.9153V103.16H90.1073V95.504ZM93.3713 108.32H78.7073V101.912H81.4913V106.088H93.3713V108.32ZM119.65 108.656H105.106V103.04H116.194V101.72H104.962V99.488H119.05V105.08H107.89V106.4H119.65V108.656ZM122.098 94.208H119.05V98.216H116.194V87.512H119.05V91.904H122.098V94.208ZM102.442 93.224C102.442 91.784 102.962 90.6 104.002 89.672C105.058 88.728 106.386 88.256 107.986 88.256C109.586 88.256 110.906 88.72 111.946 89.648C112.986 90.576 113.506 91.768 113.506 93.224C113.506 94.632 112.986 95.776 111.946 96.656C110.906 97.536 109.586 97.976 107.986 97.976C106.418 97.976 105.098 97.544 104.026 96.68C102.97 95.8 102.442 94.648 102.442 93.224ZM105.202 93.2C105.202 93.904 105.458 94.496 105.97 94.976C106.498 95.44 107.17 95.672 107.986 95.672C108.802 95.672 109.474 95.432 110.002 94.952C110.53 94.456 110.794 93.872 110.794 93.2C110.794 92.448 110.53 91.824 110.002 91.328C109.49 90.816 108.818 90.56 107.986 90.56C107.234 90.56 106.578 90.816 106.018 91.328C105.474 91.84 105.202 92.464 105.202 93.2ZM139.815 87.512V95.576H142.863V97.904H139.815V108.896H136.983V87.512H139.815ZM133.983 103.616H123.855V89.24H126.639V94.376H131.175V89.192H133.983V103.616ZM131.175 101.408V96.584H126.639V101.408H131.175ZM163.173 100.304H143.853V98.048H163.173V100.304ZM160.797 95.648H146.445V88.208H149.253V93.416H160.797V95.648ZM160.941 108.32H146.325V102.008H149.109V106.088H160.941V108.32ZM184.291 101.624L182.731 103.808C181.739 103.312 180.707 102.48 179.635 101.312C178.579 100.144 177.891 99.064 177.571 98.072C177.315 99.192 176.691 100.368 175.699 101.6C174.723 102.816 173.627 103.72 172.411 104.312L170.731 102.224C174.299 100.32 176.083 97.08 176.083 92.504V91.928H171.811V89.696H183.163V91.928H179.035V92.48C179.035 96.768 180.787 99.816 184.291 101.624ZM188.611 108.896H185.803V87.512H188.611V108.896ZM208.537 108.632H194.161V100.736H208.537V108.632ZM208.537 88.352C208.537 91.312 208.297 93.864 207.817 96.008H211.009V98.24H191.689V96.008H205.153C205.313 95.32 205.449 94.424 205.561 93.32C205.689 92.216 205.745 91.304 205.729 90.584H194.161V88.352H208.537ZM205.753 106.448V102.872H196.945V106.448H205.753ZM212.43 109.256L213.39 104.408H216.414L214.686 109.256H212.43ZM50.792 143.104C47.6773 143.701 43.4427 144 38.088 144H35.08V132.16H44.328V127.424H34.952V124.448H48.072V135.136H38.824V140.928C43.56 140.928 47.4427 140.651 50.472 140.096L50.792 143.104ZM56.232 122.016V132.96H60.232V136.032H56.232V150.528H52.488V122.016H56.232ZM85.1995 142.688H81.4875V122.016H85.1995V142.688ZM85.8395 149.76H66.0635V140.64H69.8395V146.816H85.8395V149.76ZM62.5435 131.168C62.5435 129.12 63.2475 127.435 64.6555 126.112C66.0848 124.789 67.9515 124.128 70.2555 124.128C72.5808 124.128 74.4475 124.789 75.8555 126.112C77.2635 127.435 77.9675 129.12 77.9675 131.168C77.9675 133.237 77.2635 134.923 75.8555 136.224C74.4475 137.525 72.5808 138.176 70.2555 138.176C67.9302 138.176 66.0635 137.525 64.6555 136.224C63.2475 134.923 62.5435 133.237 62.5435 131.168ZM66.3835 131.168C66.3835 132.32 66.7355 133.269 67.4395 134.016C68.1435 134.741 69.0822 135.104 70.2555 135.104C71.4715 135.104 72.4208 134.741 73.1035 134.016C73.8075 133.269 74.1595 132.32 74.1595 131.168C74.1595 130.059 73.8075 129.141 73.1035 128.416C72.3995 127.691 71.4502 127.328 70.2555 127.328C69.0822 127.328 68.1435 127.691 67.4395 128.416C66.7355 129.141 66.3835 130.059 66.3835 131.168ZM112.919 137.312H109.175V131.488H105.399V128.48H109.175V122.016H112.919V137.312ZM112.951 150.176H94.135V138.784H97.911V141.6H109.175V138.72H112.951V150.176ZM109.175 147.2V144.48H97.911V147.2H109.175ZM89.527 130.112C89.527 128.149 90.2203 126.528 91.607 125.248C93.015 123.947 94.7857 123.296 96.919 123.296C99.0523 123.296 100.812 123.936 102.199 125.216C103.586 126.496 104.279 128.128 104.279 130.112C104.279 132.096 103.586 133.685 102.199 134.88C100.834 136.053 99.0737 136.64 96.919 136.64C94.743 136.64 92.9617 136.053 91.575 134.88C90.2097 133.685 89.527 132.096 89.527 130.112ZM93.271 130.048C93.271 131.136 93.6123 131.989 94.295 132.608C94.9777 133.227 95.8523 133.536 96.919 133.536C97.9643 133.536 98.8283 133.227 99.511 132.608C100.215 131.989 100.567 131.136 100.567 130.048C100.567 128.896 100.226 128 99.543 127.36C98.8603 126.699 97.9857 126.368 96.919 126.368C95.8523 126.368 94.9777 126.709 94.295 127.392C93.6123 128.053 93.271 128.939 93.271 130.048Z" fill="white"/>
<path d="M269.597 84.8615C269.406 84.9414 269.277 85.0457 269.19 85.1178C268.676 85.5265 268.652 85.9228 268.346 86.3251C267.908 86.8972 267.555 86.6173 266.883 87.1911C266.592 87.442 266.341 87.9291 265.847 88.9048C265.313 89.9569 265.22 90.3758 265.179 90.6985C265.179 90.6985 265.118 91.1541 265.182 91.6278C265.76 96.0289 268.909 99.9983 286.562 109.15C299.087 116.814 304.127 119.335 306.474 121.354C308.292 115.744 309.616 114.097 310.653 113.471C311.468 112.98 306.007 109.942 305.685 109.122C305.478 108.592 305.187 108.204 304.976 107.964C304.927 107.915 304.854 107.836 304.766 107.741C303.886 106.798 303.219 105.964 302.809 105.414C302.589 105.123 302.445 104.921 302.378 104.83C301.01 102.944 298.971 101.65 296.68 99.4209C295.278 98.0575 295.606 98.1169 294.581 97.2224C292.945 95.7945 292.194 95.7156 290.368 94.5349C287.444 92.6446 287.612 91.7155 283.927 89.1985C282.851 88.462 282.84 88.548 281.63 87.7036C280.088 86.6316 279.104 85.8017 277.375 84.9073C276.905 84.6636 276.663 84.5405 276.348 84.4393C274.821 83.96 273.35 84.3623 272.844 84.5083C272.028 84.7432 272.076 84.8885 271.597 84.9116C270.785 84.9536 270.282 84.5499 269.59 84.8514L269.597 84.8615Z" fill="#F7F8F8" stroke="#313235" stroke-width="2" stroke-miterlimit="10"/>
<path d="M284.403 90.6882C284.305 88.9709 282.745 87.5721 281.195 88.0173C279.447 88.5183 278.533 91.1458 278.723 91.292C278.907 91.4353 280.179 89.2324 281.526 89.3169C282.39 89.371 283.083 90.3524 283.127 91.3578C283.218 93.2245 281.063 94.9678 281.144 95.0514C281.239 95.1439 284.549 93.3055 284.399 90.6935L284.403 90.6882Z" fill="#9FA0A0"/>
<path d="M370.386 75.6548C369.538 76.9362 368.479 76.5899 367.281 78.3677C366.58 79.4144 366.657 79.9609 365.875 80.5227C364.939 81.1961 363.802 81.1076 363.059 81.1076C363.059 81.1076 361.575 81.0576 360.208 80.338C357.38 78.8526 357.207 70.8368 355.966 65.4417C353.45 54.509 345.353 49.1561 346.905 47.486C347.884 46.4355 351.536 48.0825 353.35 49.2062C355.292 50.4029 355.361 51.1341 358.466 54.0125C362.111 57.3874 362.377 56.7217 363.848 58.6304C365.717 61.0586 365.093 61.8859 367.578 65.7688C368.937 67.893 369.504 68.0507 370.136 69.6554C370.54 70.679 371.711 73.6537 370.386 75.6548Z" fill="#F7F8F8" stroke="#313235" stroke-width="2" stroke-miterlimit="10" stroke-linecap="round"/>
<path d="M283.389 72.6919C284.237 73.9733 285.296 73.627 286.494 75.4048C287.195 76.4515 287.118 76.998 287.9 77.5598C288.837 78.2333 289.973 78.1447 290.717 78.1447C290.717 78.1447 292.2 78.0947 293.567 77.3751C296.395 75.8897 296.569 67.8739 297.809 62.4788C300.325 51.5461 308.423 46.1932 306.87 44.5231C305.892 43.4726 302.239 45.1196 300.425 46.2433C298.483 47.4401 298.414 48.1712 295.309 51.0497C291.664 54.4245 291.398 53.7588 289.927 55.6675C288.058 58.0957 288.682 58.923 286.198 62.8059C284.838 64.9301 284.271 65.0878 283.64 66.6925C283.235 67.7162 282.064 70.6908 283.389 72.6919Z" fill="#F7F8F8" stroke="#313235" stroke-width="2" stroke-miterlimit="10" stroke-linecap="round"/>
<path d="M360.774 140.805C360.674 140.959 360.562 141.055 360.485 141.12C360.046 141.505 359.695 141.463 359.295 141.667C358.724 141.959 358.913 142.313 358.305 142.81C358.039 143.025 357.573 143.167 356.64 143.445C355.635 143.745 355.253 143.76 354.964 143.745C354.964 143.745 354.556 143.725 354.152 143.595C350.392 142.39 351.355 134.925 348.223 122.803C346.427 115.865 345.534 112.397 344.139 110.023C343.126 108.295 341.45 105.871 342.163 105.063C342.721 104.428 344.601 104.959 345.268 105.371C345.699 105.636 345.992 105.952 346.169 106.175C346.204 106.225 346.262 106.302 346.331 106.394C347.017 107.314 347.641 108.03 348.057 108.476C348.277 108.715 348.431 108.872 348.5 108.946C349.933 110.442 350.742 112.432 352.329 114.791C353.3 116.234 353.3 115.938 353.92 116.977C354.911 118.635 354.86 119.305 355.604 121.09C356.794 123.95 357.634 123.95 359.252 127.575C359.726 128.633 359.649 128.629 360.196 129.822C360.89 131.342 361.46 132.335 361.968 133.99C362.107 134.44 362.176 134.671 362.215 134.963C362.392 136.375 361.806 137.599 361.598 138.019C361.263 138.696 361.144 138.63 361.048 139.046C360.882 139.75 361.155 140.254 360.782 140.812L360.774 140.805Z" fill="#F7F8F8" stroke="#313235" stroke-width="2" stroke-miterlimit="10"/>
<path d="M357.942 137.699C357.218 138.527 355.746 138.719 354.995 137.992C354.148 137.172 354.621 135.56 354.791 135.548C354.957 135.537 354.86 137.053 355.696 137.449C356.232 137.703 357.025 137.438 357.441 136.949C358.22 136.044 357.611 134.471 357.692 134.455C357.784 134.44 359.044 136.437 357.942 137.695V137.699Z" fill="#9FA0A0"/>
<path d="M350.187 159.657C347.907 159.007 347.086 159.211 346.481 158.53C346.308 158.333 346.084 157.991 346.007 157.39L346.042 157.186C346.362 156.79 346.774 156.167 346.955 155.328C347.152 154.4 346.909 153.942 347.155 153.227C347.491 152.253 348.4 151.784 348.808 151.526C350.434 150.495 351.066 148.347 351.867 145.623C353.917 138.661 350.688 126.974 347.918 116.946C347.876 116.792 347.841 116.661 347.791 116.496C347.398 115.118 346.389 111.882 344.486 108.141C342.663 104.563 341.076 102.596 339.947 101.361C339.728 101.122 338.657 99.9563 337.536 99.0404C332.793 95.146 326.394 94.9652 325.243 94.9459C324.538 94.9344 315.53 94.9459 309 101.769C306.612 104.266 305.406 106.744 304.751 108.288C292.13 138.053 298.529 148.162 298.529 148.162C299.354 150.556 300.336 151.464 301.122 151.826C301.403 151.957 302.155 152.245 302.459 152.957C302.655 153.415 302.575 153.827 302.551 154.089C302.486 154.785 302.686 155.84 303.946 157.34C303.946 157.356 303.95 157.367 303.954 157.383C303.364 158.21 302.767 158.703 302.343 158.995C301.222 159.765 300.533 159.68 299.254 160.627C298.938 160.862 298.483 161.204 298.032 161.762C297.22 162.774 296.95 163.848 296.846 164.487C296.765 164.983 296.68 165.475 296.599 165.972C296.507 166.522 296.592 168.011 297.651 168.766C298.264 169.204 298.98 169.216 299.423 169.17C301.107 168.831 302.401 168.931 303.276 169.093C304.031 169.231 304.25 169.358 305.032 169.489C306.708 169.766 308.03 169.47 308.573 169.37C309.921 169.12 312.256 168.997 316.578 169.57C316.844 169.57 318.266 169.543 319.414 168.396C320.138 167.673 320.589 166.668 320.589 165.564V162.358C320.589 160.55 320.962 157.914 321.664 155.447C321.883 154.674 322.338 153.981 322.981 153.496C323.536 153.077 324.183 152.73 324.977 152.723C325.381 152.723 325.755 152.803 326.094 152.938C327.161 153.358 327.951 154.289 328.271 155.389C328.983 157.871 329.361 160.534 329.361 162.358V165.564C329.361 167.777 331.156 169.57 333.371 169.57C334.184 169.27 335.402 168.95 336.85 169.089C337.567 169.158 337.956 169.301 338.553 169.428C340.24 169.789 341.357 169.531 343.091 169.37C347.371 168.97 348.138 169.809 350.946 168.935C352.04 168.593 352.873 168.173 353.443 167.365C354.078 166.472 354.125 165.483 354.152 164.944C354.179 164.375 354.232 163.205 353.531 162.224C353.485 162.158 353.158 161.824 352.507 161.162C351.871 160.515 351.686 160.346 351.424 160.173C351.008 159.899 350.63 159.772 350.176 159.645L350.187 159.657Z" fill="#F7F8F8" stroke="#313235" stroke-width="2" stroke-miterlimit="10"/>
<path d="M302.343 159.003C303.884 158.679 306.107 158.399 308.75 158.687C310.78 158.907 312.468 159.399 313.731 159.876" fill="#F7F8F8"/>
<path d="M302.343 159.003C303.884 158.679 306.107 158.399 308.75 158.687C310.78 158.907 312.468 159.399 313.731 159.876" stroke="#313235" stroke-width="2" stroke-miterlimit="10" stroke-linecap="round"/>
<path d="M350.187 159.657C348.646 159.334 346.423 159.053 343.781 159.341C341.75 159.561 340.063 160.053 338.799 160.531" fill="#F7F8F8"/>
<path d="M350.187 159.657C348.646 159.334 346.423 159.053 343.781 159.341C341.75 159.561 340.063 160.053 338.799 160.531" stroke="#313235" stroke-width="2" stroke-miterlimit="10" stroke-linecap="round"/>
<path d="M343.9 107.141C343.365 106.875 343.041 106.852 342.351 106.467C340.679 105.536 339.909 104.078 339.631 103.851C334.284 99.4599 327.069 99.2521 325.766 99.2328C315.919 99.0866 310.518 108.946 307.452 106.925C306.77 106.475 306.134 105.425 306.281 102.808C305.487 104.459 304.401 106.829 303.233 109.731C301.084 115.072 298.649 121.114 297.524 128.783C296.996 132.373 296.584 137.511 297.227 143.795C304.674 145.496 314.259 146.989 325.447 147.035C335.933 147.081 344.994 145.842 352.16 144.361C352.849 138.176 352.622 133.024 352.252 129.353C352.252 129.353 351.547 122.353 346.947 111.066C346.385 109.688 345.572 107.968 343.904 107.145L343.9 107.141Z" fill="#212732" stroke="#313235" stroke-width="2" stroke-miterlimit="10"/>
<path d="M329.931 126.951H320.92C319.883 126.951 319.098 126.197 319.163 125.281C319.228 124.385 320.088 123.673 321.085 123.673H329.761C330.759 123.673 331.622 124.385 331.684 125.281C331.749 126.193 330.963 126.951 329.927 126.951H329.931Z" fill="#2CE3A7"/>
<g style="mix-blend-mode:lighten">
<path d="M328.263 133.928L328.005 125.281C327.978 124.385 328.767 123.673 329.765 123.673C330.763 123.673 331.626 124.385 331.688 125.281L332.316 133.928C332.396 135.036 331.537 135.952 330.393 135.952C329.249 135.952 328.297 135.036 328.263 133.928Z" fill="#0280F4"/>
</g>
<path d="M324.468 133.024C324.453 134.617 323.085 135.952 321.417 135.952C319.749 135.952 318.493 134.621 318.608 133.024C318.724 131.427 320.08 130.268 321.652 130.268C323.224 130.268 324.483 131.48 324.468 133.024Z" fill="#2CE3EF"/>
<path d="M303.233 109.731C304.94 111.17 307.313 112.913 310.38 114.472C314.009 116.315 317.072 117.127 318.25 117.408C327.604 119.67 335.328 117.204 337.567 116.453C342.051 114.956 345.01 112.948 346.77 110.112C347.202 109.415 347.394 109.065 347.367 108.692C347.105 105.051 303.441 102.554 302.509 108.099C302.405 108.718 302.844 109.315 303.233 109.727V109.731Z" fill="#0D1219"/>
<path d="M338.691 113.713C332.358 115.253 327.119 115.272 324.938 115.245C317.576 115.145 312.999 115.087 307.637 112.355C304.547 110.781 299.223 107.318 299.693 104.736C299.843 103.912 300.548 103.362 301.203 103H348.877C349.486 103.331 350.214 103.885 350.388 104.736C350.804 106.794 347.675 109.146 346.389 110.115C343.095 112.597 339.959 113.406 338.695 113.713H338.691Z" fill="#2CE3A7" stroke="#313235" stroke-width="2" stroke-miterlimit="10"/>
<path d="M352.957 114.237C354.821 114.237 356.332 112.728 356.332 110.866C356.332 109.004 354.821 107.495 352.957 107.495C351.093 107.495 349.583 109.004 349.583 110.866C349.583 112.728 351.093 114.237 352.957 114.237Z" fill="#2180F4" stroke="#313235" stroke-width="2" stroke-miterlimit="10"/>
<path d="M357.31 107.214C359.174 107.214 360.685 105.705 360.685 103.843C360.685 101.981 359.174 100.472 357.31 100.472C355.446 100.472 353.936 101.981 353.936 103.843C353.936 105.705 355.446 107.214 357.31 107.214Z" fill="#2CE3EF" stroke="#313235" stroke-width="2" stroke-miterlimit="10"/>
<path d="M302.675 103.881C303.411 104.074 313.708 106.783 323.143 108.915C324.538 109.23 326.71 109.696 329.137 108.915C330.944 108.334 330.867 107.71 332.632 107.087C335.201 106.175 337.428 106.76 340.861 107.66C343.326 108.307 344.108 108.895 344.486 109.684C344.821 110.385 344.343 110.7 344.251 111.197C344.609 110.993 345.052 110.716 345.511 110.419C346.216 109.957 346.728 109.584 346.832 109.511C348.207 108.499 349.012 107.91 349.679 106.898C350.149 106.186 350.434 105.755 350.422 105.217C350.395 103.912 348.616 102.657 346.1 102.011L302.679 103.885L302.675 103.881Z" fill="#156347"/>
<path d="M358.027 99.1519C358.778 97.9513 359.356 96.6044 359.938 95.3961C362.022 91.0553 364.599 85.9026 363.166 80.9923C362.531 78.8181 361.598 76.717 361.259 74.4735C360.693 70.7523 361.679 66.9964 361.248 63.2637C360.855 59.8696 360.034 56.5448 358.143 53.6509C356.116 50.5531 353 48.6714 346.77 44.9117C344.124 43.3147 342.274 42.1872 339.466 41.1905C334.646 39.4742 330.632 39.3934 329.484 39.3895C327.019 39.3818 328.39 39.7089 319.641 40.8942C317.418 41.1943 314.49 41.5599 310.757 42.8568C310.449 42.9607 309.971 43.13 309.397 43.3609C301.889 46.3817 297.666 52.3233 296.149 54.7284C294.943 56.641 292.936 59.8311 292.234 64.3951C291.506 69.1437 293.013 70.0211 292.581 75.3047C292.423 77.2365 292.177 79.1259 291.449 80.9269C290.682 82.8202 289.495 84.6789 289.684 86.8069C289.8 88.0845 290.416 89.2659 290.655 90.5281C290.921 91.9212 290.724 93.3796 291.067 94.7573C291.737 97.4394 294.145 98.9287 296.002 100.726C298.079 102.735 299.936 104.843 302.613 106.082C306.215 107.749 310.071 108.853 314.032 109.215C314.032 109.215 321.972 110.296 326.067 107.737C326.086 107.726 326.26 107.606 326.522 107.549C326.61 107.529 326.703 107.518 326.803 107.514C328.59 107.483 329.137 111.104 331.93 112.209C332.639 112.49 333.283 112.524 333.614 112.528C333.807 112.52 333.88 112.459 333.911 112.413C334.219 111.982 332.786 110.3 332.628 109.746C332.628 109.734 332.531 109.407 332.531 109.407C332.501 109.292 332.474 109.173 332.451 109.053C332.427 108.934 332.408 108.815 332.393 108.695C332.377 108.576 332.37 108.457 332.366 108.334C332.366 108.214 332.366 108.095 332.381 107.976C332.42 107.653 332.431 107.629 332.451 107.626C332.466 107.622 332.528 107.61 332.682 107.833C332.732 107.937 332.82 108.091 332.967 108.249C333.094 108.388 333.186 108.445 333.394 108.595C334.018 109.038 334.134 109.184 334.627 109.465C334.627 109.465 334.696 109.504 334.77 109.542C335.043 109.684 338.826 110.681 338.969 110.204C339.104 109.757 335.714 109.211 335.155 107.083C335.155 107.075 335.143 107.064 335.147 107.048C335.205 106.806 338.291 107.606 340.668 107.653C343.68 107.714 346.05 106.548 346.84 106.167C348.119 105.548 349.147 104.586 350.384 103.912C352.087 102.985 354.113 102.746 355.727 101.657C356.671 101.018 357.403 100.133 358.016 99.148L358.027 99.1519Z" fill="#F7F8F8" stroke="#313235" stroke-width="2" stroke-miterlimit="10"/>
<path d="M313.365 65.0608C313.465 65.8497 313.739 67.1811 314.625 68.5396C314.771 68.7627 316.894 71.8913 320.781 72.2184C323.586 72.4532 327.088 71.2102 327.504 69.2592C327.708 68.2971 327.188 67.0657 326.591 66.9695C326.001 66.8733 325.277 67.8738 325.061 68.7743C324.784 69.9364 325.35 70.9408 325.466 71.1332C326.687 73.1882 330.366 73.6538 332.994 72.9303C336.873 71.8605 338.526 68.1894 338.788 67.589" stroke="#313235" stroke-linecap="round" stroke-linejoin="round"/>
<path d="M325.755 88.1652C327.103 87.0416 327.404 86.676 327.404 86.676C327.704 86.3066 328.078 85.814 328.482 85.2098C328.602 85.0828 328.633 84.8943 328.563 84.7365C328.498 84.5864 328.351 84.4748 328.159 84.4748C327.415 84.3055 326.44 84.1593 325.3 84.1708C324.279 84.1824 323.397 84.317 322.707 84.4748C322.627 84.4902 322.388 84.5479 322.303 84.7365C322.226 84.9135 322.326 85.1059 322.384 85.2098C322.95 86.2604 323.463 86.8184 323.463 86.8184C324.241 87.6611 324.356 87.5341 325.111 88.1652C325.154 88.2037 325.273 88.2999 325.431 88.3038C325.589 88.3038 325.709 88.2076 325.759 88.1652H325.755Z" fill="#313235"/>
<path d="M336.472 90.9822C336.314 91.2208 334.577 93.7721 331.349 93.876C328.359 93.9684 326.51 91.8903 325.974 91.1977C325.897 91.0976 325.743 91.0976 325.666 91.1977C325.135 91.8903 323.281 93.9722 320.292 93.876C317.06 93.776 316.49 91.9981 316.335 91.7595" stroke="#313235" stroke-width="2" stroke-linecap="round" stroke-linejoin="round"/>
<path d="M316.332 84.1671C317.644 84.1671 318.709 82.234 318.709 79.8494C318.709 77.4648 317.644 75.5317 316.332 75.5317C315.019 75.5317 313.955 77.4648 313.955 79.8494C313.955 82.234 315.019 84.1671 316.332 84.1671Z" fill="#313235"/>
<path d="M335.721 84.1671C337.034 84.1671 338.098 82.234 338.098 79.8494C338.098 77.4648 337.034 75.5317 335.721 75.5317C334.408 75.5317 333.344 77.4648 333.344 79.8494C333.344 82.234 334.408 84.1671 335.721 84.1671Z" fill="#313235"/>
</svg>
