<svg width="19" height="22" viewBox="0 0 22 22" fill="none" xmlns="http://www.w3.org/2000/svg">
    <defs>
        <linearGradient id="paint0_linear_213_33215" x1="-3.82955" y1="10.7073" x2="23.483" y2="10.7073" gradientUnits="userSpaceOnUse">
            <stop stop-color="#1280F4"/>
            <stop offset="0.49339" stop-color="#2CE3F4"/>
            <stop offset="0.903029" stop-color="#2CE3A7"/>
        </linearGradient>
    </defs>
    <path d="M0.28125 16.3203C0.28125 15.9948 0.375651 15.679 0.564453 15.373C0.753255 15.0671 0.98763 14.7676 1.26758 14.4746C1.55404 14.1816 1.83724 13.8887 2.11719 13.5957C2.33203 13.3743 2.49805 13.0846 2.61523 12.7266C2.73893 12.3685 2.83008 11.9876 2.88867 11.584C2.94727 11.1803 2.98958 10.7897 3.01562 10.4121C3.03516 9.12956 3.16862 8.00326 3.41602 7.0332C3.66341 6.05664 4.05078 5.24284 4.57812 4.5918C5.11198 3.94076 5.81185 3.45898 6.67773 3.14648C6.84049 2.50846 7.16927 1.9681 7.66406 1.52539C8.16536 1.08268 8.77409 0.861328 9.49023 0.861328C10.2129 0.861328 10.8216 1.08268 11.3164 1.52539C11.8177 1.9681 12.1497 2.50846 12.3125 3.14648C13.1784 3.45898 13.875 3.94076 14.4023 4.5918C14.9297 5.24284 15.3171 6.05664 15.5645 7.0332C15.8184 8.00326 15.9551 9.12956 15.9746 10.4121C16.0007 10.7897 16.043 11.1803 16.1016 11.584C16.1602 11.9876 16.248 12.3685 16.3652 12.7266C16.4889 13.0846 16.6582 13.3743 16.873 13.5957C17.153 13.8887 17.4329 14.1816 17.7129 14.4746C17.9993 14.7676 18.237 15.0671 18.4258 15.373C18.6146 15.679 18.709 15.9948 18.709 16.3203C18.709 16.6784 18.5788 16.9648 18.3184 17.1797C18.0579 17.3945 17.6966 17.502 17.2344 17.502H13.1133C13.0872 18.1335 12.9147 18.7161 12.5957 19.25C12.2832 19.7904 11.86 20.2233 11.3262 20.5488C10.7923 20.8743 10.1803 21.0371 9.49023 21.0371C8.80664 21.0371 8.19792 20.8711 7.66406 20.5391C7.13021 20.2135 6.70378 19.7839 6.38477 19.25C6.07227 18.7161 5.90299 18.1335 5.87695 17.502H1.75586C1.29362 17.502 0.932292 17.3945 0.671875 17.1797C0.411458 16.9648 0.28125 16.6784 0.28125 16.3203ZM2.17578 16.0273H16.8047V15.9102C16.7461 15.819 16.6484 15.6986 16.5117 15.5488C16.3815 15.3926 16.2285 15.2233 16.0527 15.041C15.8835 14.8587 15.7109 14.6732 15.5352 14.4844C15.3594 14.2891 15.2064 14.0645 15.0762 13.8105C14.946 13.5501 14.8353 13.2572 14.7441 12.9316C14.6595 12.6061 14.5879 12.2448 14.5293 11.8477C14.4772 11.4505 14.4414 11.0143 14.4219 10.5391C14.3958 9.11979 14.2461 7.99349 13.9727 7.16016C13.7057 6.32682 13.3477 5.70833 12.8984 5.30469C12.4557 4.89453 11.9544 4.61133 11.3945 4.45508C11.2773 4.42904 11.1829 4.38346 11.1113 4.31836C11.0462 4.24674 11.0137 4.14909 11.0137 4.02539C10.9941 3.51758 10.8477 3.10417 10.5742 2.78516C10.3073 2.45964 9.94596 2.29688 9.49023 2.29688C9.04102 2.29688 8.67969 2.45964 8.40625 2.78516C8.13932 3.10417 7.99609 3.51758 7.97656 4.02539C7.97005 4.14909 7.93424 4.24674 7.86914 4.31836C7.80404 4.38346 7.70964 4.42904 7.58594 4.45508C7.02604 4.61133 6.52148 4.89453 6.07227 5.30469C5.62956 5.70833 5.27474 6.32682 5.00781 7.16016C4.74089 7.99349 4.5944 9.11979 4.56836 10.5391C4.54232 11.0143 4.50326 11.4505 4.45117 11.8477C4.39909 12.2448 4.32747 12.6061 4.23633 12.9316C4.14518 13.2572 4.03451 13.5501 3.9043 13.8105C3.77409 14.0645 3.62109 14.2891 3.44531 14.4844C3.27604 14.6732 3.10352 14.8587 2.92773 15.041C2.75846 15.2233 2.60547 15.3926 2.46875 15.5488C2.33203 15.6986 2.23438 15.819 2.17578 15.9102V16.0273ZM7.40039 17.502C7.43294 18.166 7.64128 18.6901 8.02539 19.0742C8.41602 19.4648 8.9043 19.6602 9.49023 19.6602C10.0827 19.6602 10.571 19.4648 10.9551 19.0742C11.3392 18.6901 11.5508 18.166 11.5898 17.502H7.40039Z" fill="url(#paint0_linear_213_33215)"/>
</svg>
