<svg width="44" height="44" viewBox="0 0 44 44" fill="none" xmlns="http://www.w3.org/2000/svg">
<circle cx="22" cy="22" r="22" fill="#2CE3A7"/>
<path d="M12.332 21.5391C12.332 21.25 12.4336 21.0039 12.6367 20.8008C12.8477 20.5898 13.0938 20.4844 13.375 20.4844H20.957V12.9141C20.957 12.6328 21.0586 12.3906 21.2617 12.1875C21.4648 11.9766 21.7109 11.8711 22 11.8711C22.2891 11.8711 22.5352 11.9766 22.7383 12.1875C22.9492 12.3906 23.0547 12.6328 23.0547 12.9141V20.4844H30.625C30.9062 20.4844 31.1484 20.5898 31.3516 20.8008C31.5625 21.0039 31.668 21.25 31.668 21.5391C31.668 21.8281 31.5625 22.0742 31.3516 22.2773C31.1484 22.4805 30.9062 22.582 30.625 22.582H23.0547V30.1641C23.0547 30.4453 22.9492 30.6875 22.7383 30.8906C22.5352 31.1016 22.2891 31.207 22 31.207C21.7109 31.207 21.4648 31.1016 21.2617 30.8906C21.0586 30.6875 20.957 30.4453 20.957 30.1641V22.582H13.375C13.0938 22.582 12.8477 22.4805 12.6367 22.2773C12.4336 22.0742 12.332 21.8281 12.332 21.5391Z" fill="black"/>
</svg>
