<svg width="44" height="44" viewBox="0 0 44 44" fill="none" xmlns="http://www.w3.org/2000/svg">
<circle cx="22" cy="22" r="22" fill="#2F3237"/>
<path d="M15.136 14.6913C15.3404 14.4869 15.5862 14.3847 15.8735 14.3847C16.1718 14.3847 16.4204 14.4842 16.6192 14.6831L21.9806 20.0444L27.3336 14.6913C27.5324 14.4925 27.7755 14.393 28.0628 14.393C28.3556 14.3875 28.6042 14.4869 28.8086 14.6913C29.0129 14.8957 29.1124 15.1443 29.1069 15.4371C29.1124 15.7299 29.0157 15.9757 28.8168 16.1746L23.4638 21.5276L28.8168 26.8806C29.0157 27.0795 29.1124 27.3253 29.1069 27.6181C29.1124 27.9109 29.0129 28.1595 28.8086 28.3639C28.6042 28.5683 28.3556 28.6677 28.0628 28.6622C27.7755 28.6622 27.5324 28.5628 27.3336 28.3639L21.9806 23.0109L16.6192 28.3722C16.4204 28.5711 16.1745 28.6677 15.8818 28.6622C15.589 28.6677 15.3404 28.5683 15.136 28.3639C14.9316 28.1595 14.8321 27.9109 14.8377 27.6181C14.8377 27.3309 14.9371 27.0878 15.136 26.8889L20.4973 21.5276L15.136 16.1663C14.9371 15.9674 14.8349 15.7216 14.8294 15.4288C14.8294 15.1416 14.9316 14.8957 15.136 14.6913Z" fill="white"/>
</svg>
