<svg width="28" height="25" viewBox="0 0 28 25" fill="none" xmlns="http://www.w3.org/2000/svg">
    <path d="M10.6133 23.6523V15.1211C10.6133 14.8555 10.6953 14.6406 10.8594 14.4766C11.0234 14.3125 11.2422 14.2305 11.5156 14.2305H16.4844C16.75 14.2305 16.9648 14.3125 17.1289 14.4766C17.293 14.6406 17.375 14.8555 17.375 15.1211V23.6523H10.6133ZM6.03125 24.8594C5.19531 24.8594 4.54297 24.6328 4.07422 24.1797C3.61328 23.7266 3.38281 23.0898 3.38281 22.2695V9.32031L5.26953 8.04297V21.7891C5.26953 22.1719 5.36719 22.4648 5.5625 22.668C5.76562 22.8711 6.05469 22.9727 6.42969 22.9727H21.4883C21.8633 22.9727 22.1484 22.8711 22.3438 22.668C22.5391 22.4648 22.6367 22.1719 22.6367 21.7891V8.03125L24.5234 9.32031V22.2695C24.5234 23.0898 24.293 23.7266 23.832 24.1797C23.3711 24.6328 22.7227 24.8594 21.8867 24.8594H6.03125ZM0.0078125 11.8164C0.0078125 11.5117 0.132812 11.2578 0.382812 11.0547L12.5938 0.800781C13.0312 0.433594 13.5 0.25 14 0.25C14.5078 0.25 14.9805 0.433594 15.418 0.800781L27.6172 11.0547C27.8594 11.2578 27.9805 11.5234 27.9805 11.8516C27.9805 12.1328 27.8828 12.3555 27.6875 12.5195C27.4922 12.6758 27.2578 12.7539 26.9844 12.7539C26.8203 12.7539 26.668 12.7148 26.5273 12.6367C26.3945 12.5586 26.2695 12.4727 26.1523 12.3789L14.4219 2.53516C14.2891 2.41797 14.1484 2.35938 14 2.35938C13.8594 2.35938 13.7227 2.41797 13.5898 2.53516L1.85938 12.3789C1.73438 12.4727 1.60156 12.5586 1.46094 12.6367C1.32812 12.7148 1.17969 12.7539 1.01562 12.7539C0.703125 12.7539 0.457031 12.6602 0.277344 12.4727C0.0976562 12.2773 0.0078125 12.0586 0.0078125 11.8164ZM21.582 6.53125V3.60156C21.582 3.34375 21.6602 3.14063 21.8164 2.99219C21.9727 2.83594 22.1758 2.75781 22.4258 2.75781H23.6797C23.9375 2.75781 24.1406 2.83594 24.2891 2.99219C24.4453 3.14063 24.5234 3.34375 24.5234 3.60156V9.01562L21.582 6.53125Z" fill="url(#paint0_linear_313_33210)"/>
    <defs>
        <linearGradient id="paint0_linear_313_33210" x1="-5.70455" y1="13.1463" x2="34.6705" y2="13.1463" gradientUnits="userSpaceOnUse">
            <stop stop-color="#1280F4"/>
            <stop offset="0.49339" stop-color="#2CE3F4"/>
            <stop offset="0.903029" stop-color="#2CE3A7"/>
        </linearGradient>
    </defs>
</svg>
