<svg width="338" height="47" viewBox="0 0 338 47" fill="none" xmlns="http://www.w3.org/2000/svg">
<rect width="338" height="47" rx="10" fill="#212732"/>
<g clip-path="url(#clip0_730_1618)">
<path d="M25.9469 36.2976C24.3858 36.2976 23.2125 35.9352 22.427 35.2104C21.6515 34.4948 21.2637 33.4167 21.2637 31.9763V14.9556C21.2637 13.5151 21.6515 12.4371 22.427 11.7215C23.2125 10.9966 24.3858 10.6342 25.9469 10.6342H44.0386C45.5996 10.6342 46.7679 10.9966 47.5435 11.7215C48.3291 12.4371 48.7217 13.5151 48.7217 14.9556V31.9763C48.7217 33.4167 48.3291 34.4948 47.5435 35.2104C46.7679 35.9352 45.5996 36.2976 44.0386 36.2976H25.9469ZM25.9767 34.0533H44.0087C44.7444 34.0533 45.3113 33.8722 45.709 33.5097C46.1167 33.138 46.3205 32.5896 46.3205 31.8648V15.0671C46.3205 14.3422 46.1167 13.7985 45.709 13.4361C45.3113 13.0644 44.7444 12.8785 44.0087 12.8785H25.9767C25.231 12.8785 24.6593 13.0644 24.2615 13.4361C23.8638 13.7985 23.665 14.3422 23.665 15.0671V31.8648C23.665 32.5896 23.8638 33.138 24.2615 33.5097C24.6593 33.8722 25.231 34.0533 25.9767 34.0533ZM27.1699 24.6159C26.7324 24.6159 26.4242 24.5045 26.2452 24.2814C26.0662 24.049 26.0115 23.7935 26.0811 23.5147C26.1508 23.236 26.3496 23.0268 26.6777 22.8874L40.7572 16.6284C41.145 16.4611 41.4931 16.4332 41.8014 16.5447C42.1196 16.6562 42.3382 16.856 42.4576 17.1441C42.5768 17.4322 42.5471 17.7575 42.3681 18.1199L35.7459 31.3071C35.5968 31.6045 35.3731 31.7905 35.0748 31.8648C34.7864 31.9297 34.5179 31.8787 34.2694 31.7115C34.0208 31.5441 33.8965 31.2514 33.8965 30.8332V25.0759C33.8965 24.7693 33.7374 24.6159 33.4192 24.6159H27.1699Z" fill="#D9D9D9"/>
</g>
<defs>
<clipPath id="clip0_730_1618">
<rect width="28" height="26.17" fill="white" transform="translate(21 10.415)"/>
</clipPath>
</defs>
</svg>
