<svg width="22" height="22" viewBox="0 0 22 22" fill="none" xmlns="http://www.w3.org/2000/svg">
<path d="M3.88672 21.7584C2.66016 21.7584 1.73828 21.4537 1.12109 20.8444C0.511719 20.2428 0.207031 19.3365 0.207031 18.1256V3.81702C0.207031 2.60608 0.511719 1.69983 1.12109 1.09827C1.73828 0.488892 2.66016 0.184204 3.88672 0.184204H18.1016C19.3281 0.184204 20.2461 0.488892 20.8555 1.09827C21.4727 1.69983 21.7812 2.60608 21.7812 3.81702V18.1256C21.7812 19.3365 21.4727 20.2428 20.8555 20.8444C20.2461 21.4537 19.3281 21.7584 18.1016 21.7584H3.88672ZM3.91016 19.8717H18.0781C18.6562 19.8717 19.1016 19.7194 19.4141 19.4147C19.7344 19.1022 19.8945 18.6412 19.8945 18.0319V3.91077C19.8945 3.30139 19.7344 2.84436 19.4141 2.53967C19.1016 2.22717 18.6562 2.07092 18.0781 2.07092H3.91016C3.32422 2.07092 2.875 2.22717 2.5625 2.53967C2.25 2.84436 2.09375 3.30139 2.09375 3.91077V18.0319C2.09375 18.6412 2.25 19.1022 2.5625 19.4147C2.875 19.7194 3.32422 19.8717 3.91016 19.8717ZM4.84766 11.9381C4.50391 11.9381 4.26172 11.8444 4.12109 11.6569C3.98047 11.4615 3.9375 11.2467 3.99219 11.0123C4.04688 10.778 4.20312 10.6022 4.46094 10.485L15.5234 5.22327C15.8281 5.08264 16.1016 5.0592 16.3438 5.15295C16.5938 5.2467 16.7656 5.41467 16.8594 5.65686C16.9531 5.89905 16.9297 6.17249 16.7891 6.47717L11.5859 17.5631C11.4688 17.8131 11.293 17.9694 11.0586 18.0319C10.832 18.0865 10.6211 18.0436 10.4258 17.903C10.2305 17.7623 10.1328 17.5162 10.1328 17.1647V12.3248C10.1328 12.067 10.0078 11.9381 9.75781 11.9381H4.84766Z" fill="#D9D9D9"/>
</svg>
