<svg width="232" height="62" viewBox="0 0 232 62" fill="none" xmlns="http://www.w3.org/2000/svg">
<g clip-path="url(#clip0_488_729)">
<path d="M12.5748 15.2126H9.60596V4.33215H12.5748V15.2126Z" fill="white"/>
<path d="M24.3165 15.2126H21.3477V8.85843C21.3477 8.07503 21.2071 7.48581 20.9293 7.09077C20.6515 6.69572 20.2063 6.50155 19.5972 6.50155C18.7671 6.50155 18.168 6.77942 17.7964 7.33516C17.4249 7.8909 17.2408 8.80821 17.2408 10.0938V15.2126H14.272V4.33215H16.5379L16.9362 5.72485H17.1002C17.4316 5.19924 17.8868 4.80085 18.4658 4.53302C19.0449 4.26519 19.7076 4.12793 20.4473 4.12793C21.7125 4.12793 22.6731 4.46941 23.3258 5.15572C23.9818 5.83868 24.3098 6.82964 24.3098 8.11856V15.2126H24.3165Z" fill="white"/>
<path d="M30.8797 15.4068C29.1292 15.4068 27.7602 14.9247 26.7729 13.9572C25.7855 12.9897 25.2935 11.6204 25.2935 9.84939C25.2935 8.07838 25.7487 6.61538 26.6591 5.62107C27.5695 4.62676 28.8313 4.12793 30.4379 4.12793C32.0445 4.12793 33.1724 4.5665 34.0293 5.44028C34.8861 6.31742 35.3146 7.52599 35.3146 9.06934V10.5089H28.2991C28.3326 11.3526 28.5803 12.0121 29.0489 12.4841C29.5175 12.9595 30.1701 13.1939 31.0136 13.1939C31.6696 13.1939 32.2888 13.1269 32.8712 12.9897C33.4536 12.8524 34.0661 12.6348 34.6987 12.3368V14.6335C34.1799 14.8912 33.6243 15.0854 33.0352 15.2126C32.4461 15.3398 31.7265 15.4035 30.8764 15.4035L30.8797 15.4068ZM30.4613 6.24042C29.8321 6.24042 29.3401 6.44129 28.9819 6.83968C28.6238 7.23807 28.4196 7.80386 28.3694 8.53704H32.5332C32.5198 7.80386 32.329 7.23807 31.9608 6.83968C31.5926 6.44129 31.0906 6.24042 30.4613 6.24042Z" fill="white"/>
<path d="M48.1242 0.984253V10.1908C48.1242 11.242 47.8899 12.1627 47.418 12.9561C46.946 13.7496 46.2699 14.3555 45.3796 14.7774C44.4893 15.1992 43.4417 15.4101 42.2267 15.4101C40.3992 15.4101 38.9767 14.9414 37.9659 14.004C36.955 13.0666 36.4463 11.7844 36.4463 10.154V0.984253H39.452V9.69533C39.452 10.7934 39.6729 11.5969 40.1147 12.1091C40.5565 12.6213 41.2861 12.8791 42.3037 12.8791C43.3212 12.8791 44.004 12.6213 44.4491 12.1058C44.8943 11.5902 45.1152 10.78 45.1152 9.67859V0.984253H48.1208H48.1242Z" fill="white"/>
<path d="M55.9325 15.4068C54.6539 15.4068 53.6532 14.9415 52.9269 14.0141H52.7729C52.8766 14.9214 52.9269 15.447 52.9269 15.5909V20H49.958V4.33215H52.3712L52.7896 5.74494H52.9269C53.6197 4.66693 54.6506 4.12793 56.0095 4.12793C57.2948 4.12793 58.2989 4.62341 59.0252 5.61772C59.7515 6.60868 60.1164 7.98799 60.1164 9.7523C60.1164 10.914 59.9457 11.9217 59.6043 12.7787C59.2629 13.6358 58.7775 14.2886 58.1483 14.7339C57.519 15.1825 56.7793 15.4068 55.9292 15.4068H55.9325ZM55.0556 6.50155C54.3226 6.50155 53.7871 6.72585 53.449 7.17781C53.1109 7.62977 52.9369 8.37299 52.9235 9.41082V9.73221C52.9235 10.9006 53.0976 11.7376 53.4456 12.2431C53.7937 12.7486 54.3427 13.0031 55.0958 13.0031C56.4245 13.0031 57.0906 11.9083 57.0906 9.71213C57.0906 8.64082 56.9266 7.83734 56.5986 7.30503C56.2706 6.76938 55.7585 6.50155 55.0556 6.50155Z" fill="white"/>
<path d="M7.50412 12.3837H1.34887C0.603909 12.3837 0 12.9877 0 13.7328V14.2116C0 14.9567 0.603909 15.5608 1.34887 15.5608H7.50412C8.24908 15.5608 8.85299 14.9567 8.85299 14.2116V13.7328C8.85299 12.9877 8.24908 12.3837 7.50412 12.3837Z" fill="#2CE3A7"/>
<g style="mix-blend-mode:lighten">
<path d="M3.17285 14.2116L3.17285 2.28656C3.17285 1.54143 2.56894 0.937378 1.82398 0.937378H1.34535C0.600395 0.937378 -0.00351357 1.54143 -0.00351357 2.28656L-0.00351357 14.2116C-0.00351357 14.9567 0.600395 15.5607 1.34535 15.5607H1.82398C2.56894 15.5607 3.17285 14.9567 3.17285 14.2116Z" fill="#0280F4"/>
</g>
<g style="mix-blend-mode:lighten">
<path d="M65 9.71542V2.28656C65 1.54143 64.3961 0.937378 63.6511 0.937378H63.1725C62.4275 0.937378 61.8236 1.54143 61.8236 2.28656V9.71542C61.8236 10.4605 62.4275 11.0646 63.1725 11.0646H63.6511C64.3961 11.0646 65 10.4605 65 9.71542Z" fill="#0280F4"/>
</g>
<path d="M11.1224 3.1001C11.9783 3.1001 12.6721 2.40612 12.6721 1.55005C12.6721 0.693981 11.9783 0 11.1224 0C10.2666 0 9.57275 0.693981 9.57275 1.55005C9.57275 2.40612 10.2666 3.1001 11.1224 3.1001Z" fill="#2CE3EF"/>
<path d="M63.4135 15.4135C64.2693 15.4135 64.9632 14.7195 64.9632 13.8634C64.9632 13.0073 64.2693 12.3134 63.4135 12.3134C62.5576 12.3134 61.8638 13.0073 61.8638 13.8634C61.8638 14.7195 62.5576 15.4135 63.4135 15.4135Z" fill="#2CE3EF"/>
</g>
<path d="M5.5 33.27C5.5 33.8167 5.28333 34.2667 4.85 34.62C4.41667 34.9667 3.86333 35.14 3.19 35.14C2.51 35.14 1.95333 34.9667 1.52 34.62C1.09333 34.2667 0.88 33.8167 0.88 33.27C0.88 32.71 1.09333 32.2567 1.52 31.91C1.94667 31.5567 2.50333 31.38 3.19 31.38C3.87 31.38 4.42333 31.5567 4.85 31.91C5.28333 32.2567 5.5 32.71 5.5 33.27ZM7.61 39.7H6.73V30.96H7.61V39.7ZM3.62 39.44H2.74V36.51C2.18667 36.53 1.40333 36.5467 0.39 36.56L0.26 35.79C1.44 35.79 2.43 35.7733 3.23 35.74C4.50333 35.6867 5.49667 35.62 6.21 35.54L6.31 36.24C5.91 36.3 5.01333 36.3733 3.62 36.46V39.44ZM4.19 34.07C4.45667 33.8633 4.59 33.5933 4.59 33.26C4.59 32.9267 4.45667 32.6567 4.19 32.45C3.92333 32.2367 3.59 32.13 3.19 32.13C2.79 32.13 2.45667 32.2367 2.19 32.45C1.92333 32.6567 1.79 32.9267 1.79 33.26C1.79 33.5867 1.92333 33.8533 2.19 34.06C2.45667 34.2667 2.79 34.37 3.19 34.37C3.59667 34.37 3.93 34.27 4.19 34.07ZM14.5823 37.33L14.0823 38.02C13.609 37.7933 13.1423 37.4533 12.6823 37C12.2223 36.54 11.9223 36.0967 11.7823 35.67C11.669 36.1233 11.399 36.5967 10.9723 37.09C10.5457 37.5833 10.089 37.96 9.60234 38.22L9.04234 37.56C9.70234 37.2267 10.2457 36.7467 10.6723 36.12C11.1057 35.4933 11.3223 34.7833 11.3223 33.99V33.85H9.34234V33.12H14.2123V33.85H12.2323V33.98C12.2323 35.4333 13.0157 36.55 14.5823 37.33ZM16.2623 39.7H15.3823V30.96H16.2623V39.7ZM13.1023 32.24H10.4923V31.51H13.1023V32.24ZM24.8547 39.7H23.9647V30.96H24.8547V39.7ZM22.2947 31.89C22.268 33.23 21.8947 34.4167 21.1747 35.45C20.4614 36.4767 19.4814 37.33 18.2347 38.01L17.6947 37.34C18.728 36.8467 19.5714 36.1767 20.2247 35.33C20.8847 34.4767 21.2547 33.58 21.3347 32.64H18.0847V31.89H22.2947ZM34.397 34.25H33.087V37.29H32.207V30.96H33.087V33.51H34.397V34.25ZM33.397 39.42H27.537V36.71H28.417V38.7H33.397V39.42ZM30.747 35.99H26.617V31.55H27.487V33.04H29.867V31.54H30.747V35.99ZM29.867 35.28V33.74H27.487V35.28H29.867ZM42.1994 39.7H41.3094V34.78H39.3594V34.03H41.3094V30.96H42.1994V39.7ZM40.2494 36.96L39.7194 37.62C39.2927 37.34 38.8694 36.9533 38.4494 36.46C38.0294 35.9667 37.7427 35.48 37.5894 35C37.4427 35.5267 37.1694 36.05 36.7694 36.57C36.376 37.0833 35.9327 37.5033 35.4394 37.83L34.8794 37.18C35.5527 36.76 36.096 36.1933 36.5094 35.48C36.9227 34.7667 37.1294 34.0133 37.1294 33.22V31.71H38.0394V33.18C38.0394 33.9667 38.246 34.6933 38.6594 35.36C39.0727 36.0267 39.6027 36.56 40.2494 36.96ZM50.8617 39.7H49.9717V30.96H50.8617V39.7ZM48.2917 37.53H44.0717V31.71H44.9517V33.89H47.4117V31.7H48.2917V37.53ZM47.4117 36.82V34.61H44.9517V36.82H47.4117ZM59.9441 35.39L59.4641 36.09C58.7774 35.8967 58.1174 35.5567 57.4841 35.07C56.8574 34.5833 56.4407 34.0967 56.2341 33.61C56.0607 34.1033 55.6574 34.5933 55.0241 35.08C54.3907 35.56 53.7174 35.8933 53.0041 36.08L52.5541 35.36C53.0474 35.2733 53.5374 35.09 54.0241 34.81C54.5107 34.53 54.9241 34.17 55.2641 33.73C55.6107 33.29 55.7841 32.8367 55.7841 32.37V31.69H56.6941V32.37C56.6941 32.83 56.8741 33.2833 57.2341 33.73C57.5941 34.1767 58.0174 34.5433 58.5041 34.83C58.9974 35.11 59.4774 35.2967 59.9441 35.39ZM60.1841 38.52H52.2941V37.8H60.1841V38.52ZM70.7834 39.7H69.8934V30.96H70.7834V39.7ZM63.8834 34.7C63.8834 33.7867 64.0734 33.0467 64.4534 32.48C64.8334 31.9067 65.3934 31.62 66.1334 31.62C66.8734 31.62 67.43 31.9067 67.8034 32.48C68.1834 33.0467 68.3734 33.79 68.3734 34.71C68.3734 35.63 68.1834 36.3767 67.8034 36.95C67.43 37.5167 66.8734 37.8 66.1334 37.8C65.3934 37.8 64.8334 37.5133 64.4534 36.94C64.0734 36.3667 63.8834 35.62 63.8834 34.7ZM67.1434 36.4C67.3767 35.9733 67.4934 35.41 67.4934 34.71C67.4934 34.01 67.3767 33.4467 67.1434 33.02C66.91 32.5933 66.5734 32.38 66.1334 32.38C65.7 32.38 65.3667 32.5933 65.1334 33.02C64.9 33.4467 64.7834 34.01 64.7834 34.71C64.7834 35.41 64.9 35.9733 65.1334 36.4C65.3667 36.82 65.7 37.03 66.1334 37.03C66.5734 37.03 66.91 36.82 67.1434 36.4ZM79.1757 32.82C79.1757 33.42 78.8257 33.8633 78.1257 34.15V35.34H80.1157V36.06H72.2257V35.34H74.1757V34.13C73.4957 33.8433 73.1557 33.4067 73.1557 32.82C73.1557 32.3133 73.419 31.9167 73.9457 31.63C74.479 31.3367 75.219 31.19 76.1657 31.19C77.1124 31.19 77.849 31.3367 78.3757 31.63C78.909 31.9167 79.1757 32.3133 79.1757 32.82ZM78.4457 36.95C78.999 37.2233 79.2757 37.61 79.2757 38.11C79.2757 38.61 78.999 38.9967 78.4457 39.27C77.899 39.55 77.139 39.69 76.1657 39.69C75.199 39.69 74.4424 39.55 73.8957 39.27C73.349 38.9967 73.0757 38.61 73.0757 38.11C73.0757 37.61 73.349 37.2233 73.8957 36.95C74.4424 36.6767 75.199 36.54 76.1657 36.54C77.139 36.54 77.899 36.6767 78.4457 36.95ZM78.2757 32.82C78.2757 32.52 78.089 32.29 77.7157 32.13C77.3424 31.97 76.8257 31.89 76.1657 31.89C75.5124 31.89 74.999 31.9733 74.6257 32.14C74.2524 32.3 74.0657 32.5267 74.0657 32.82C74.0657 33.1133 74.2524 33.3433 74.6257 33.51C74.999 33.67 75.5124 33.75 76.1657 33.75C76.819 33.75 77.3324 33.67 77.7057 33.51C78.0857 33.3433 78.2757 33.1133 78.2757 32.82ZM76.1657 37.25C75.5057 37.25 74.9824 37.3267 74.5957 37.48C74.209 37.6267 74.0157 37.84 74.0157 38.12C74.0157 38.3933 74.209 38.6033 74.5957 38.75C74.9824 38.8967 75.5057 38.97 76.1657 38.97C76.839 38.97 77.369 38.8967 77.7557 38.75C78.149 38.6033 78.3457 38.3933 78.3457 38.12C78.3457 37.84 78.149 37.6267 77.7557 37.48C77.3624 37.3267 76.8324 37.25 76.1657 37.25ZM76.1657 34.46C75.7524 34.46 75.3824 34.43 75.0557 34.37V35.34H77.2457V34.38C76.9057 34.4333 76.5457 34.46 76.1657 34.46ZM81.638 32.04C82.0847 31.6467 82.6347 31.45 83.288 31.45C83.9414 31.45 84.4914 31.6467 84.938 32.04C85.3847 32.4333 85.608 32.9367 85.608 33.55C85.608 34.1633 85.3847 34.66 84.938 35.04C84.498 35.42 83.948 35.61 83.288 35.61C82.6347 35.61 82.0847 35.42 81.638 35.04C81.1914 34.66 80.968 34.1633 80.968 33.55C80.968 32.9367 81.1914 32.4333 81.638 32.04ZM88.928 34.11V34.85H87.628V36.1H86.738V30.96H87.628V32.3H88.928V33.03H87.628V34.11H88.928ZM87.628 39.71H86.748V37.26H81.968V36.55H87.628V39.71ZM83.288 32.2C82.8747 32.2 82.5347 32.3267 82.268 32.58C82.008 32.8333 81.878 33.1533 81.878 33.54C81.878 33.94 82.008 34.2667 82.268 34.52C82.5347 34.7667 82.8747 34.89 83.288 34.89C83.7147 34.89 84.058 34.7667 84.318 34.52C84.578 34.2667 84.708 33.9433 84.708 33.55C84.708 33.1567 84.578 32.8333 84.318 32.58C84.058 32.3267 83.7147 32.2 83.288 32.2ZM97.6204 34.45H96.3204V37.5H95.4504V30.96H96.3204V33.71H97.6204V34.45ZM96.6304 39.48H90.7504V36.93H91.6304V38.76H96.6304V39.48ZM94.9604 35.93C94.0871 36.0633 93.1571 36.1467 92.1704 36.18C91.2904 36.2267 90.3937 36.25 89.4804 36.25L89.3504 35.51C90.1571 35.51 90.7704 35.5033 91.1904 35.49V33.62H92.0704V35.47C93.1771 35.4367 94.1071 35.3633 94.8604 35.25L94.9604 35.93ZM94.2504 31.62C94.2504 33.04 94.1671 34.06 94.0004 34.68L93.1404 34.54C93.2871 34.0467 93.3604 33.3133 93.3604 32.34H89.9504V31.62H94.2504ZM110.817 39.7H109.967V35.05H108.937V39.27H108.107V31.16H108.937V34.33H109.967V30.96H110.817V39.7ZM107.127 32.03C107.113 33.3167 106.84 34.44 106.307 35.4C105.78 36.36 104.98 37.2 103.907 37.92L103.297 37.27C104.183 36.7567 104.877 36.1067 105.377 35.32C105.877 34.5267 106.167 33.6733 106.247 32.76H103.687V32.03H107.127ZM119.259 37.31H118.369V30.96H119.259V37.31ZM119.459 39.43H113.509V36.71H114.399V38.72H119.459V39.43ZM112.949 32.18C113.389 31.76 113.946 31.55 114.619 31.55C115.292 31.55 115.849 31.7567 116.289 32.17C116.736 32.5833 116.959 33.1033 116.959 33.73C116.959 34.3567 116.739 34.87 116.299 35.27C115.859 35.6633 115.299 35.86 114.619 35.86C113.946 35.86 113.389 35.6633 112.949 35.27C112.509 34.87 112.289 34.36 112.289 33.74C112.289 33.1133 112.509 32.5933 112.949 32.18ZM114.619 32.31C114.212 32.31 113.876 32.4433 113.609 32.71C113.349 32.9767 113.219 33.3133 113.219 33.72C113.219 34.12 113.349 34.4533 113.609 34.72C113.876 34.9867 114.212 35.12 114.619 35.12C115.046 35.12 115.386 34.99 115.639 34.73C115.892 34.47 116.019 34.1367 116.019 33.73C116.019 33.31 115.892 32.97 115.639 32.71C115.386 32.4433 115.046 32.31 114.619 32.31ZM127.181 36.77C127.701 37.07 127.961 37.4833 127.961 38.01C127.961 38.5367 127.705 38.95 127.191 39.25C126.678 39.55 125.951 39.7 125.011 39.7C124.085 39.7 123.361 39.55 122.841 39.25C122.328 38.95 122.071 38.5367 122.071 38.01C122.071 37.4833 122.328 37.07 122.841 36.77C123.361 36.4633 124.085 36.31 125.011 36.31C125.945 36.31 126.668 36.4633 127.181 36.77ZM120.941 32.39V31.67H125.721V32.39H123.811V32.68C123.811 33.26 124.025 33.7867 124.451 34.26C124.878 34.7267 125.361 35.0433 125.901 35.21L125.411 35.92C125.011 35.76 124.615 35.5067 124.221 35.16C123.828 34.8067 123.545 34.4367 123.371 34.05C123.238 34.4567 122.955 34.8633 122.521 35.27C122.088 35.6767 121.638 35.9767 121.171 36.17L120.671 35.47C121.271 35.2567 121.795 34.89 122.241 34.37C122.688 33.8433 122.911 33.2867 122.911 32.7V32.39H120.941ZM125.011 37.04C124.371 37.04 123.871 37.1267 123.511 37.3C123.151 37.4667 122.971 37.7033 122.971 38.01C122.971 38.3167 123.151 38.5567 123.511 38.73C123.871 38.8967 124.371 38.98 125.011 38.98C125.658 38.98 126.161 38.8967 126.521 38.73C126.881 38.5567 127.061 38.3167 127.061 38.01C127.061 37.7033 126.881 37.4667 126.521 37.3C126.161 37.1267 125.658 37.04 125.011 37.04ZM127.021 33.89H125.391V33.16H127.021V30.96H127.911V36.38H127.021V33.89ZM136.324 36.19H133.764V37.91H137.284V38.63H129.394V37.91H132.874V36.19H130.344V31.57H131.234V33.16H135.444V31.57H136.324V36.19ZM135.444 35.46V33.88H131.234V35.46H135.444ZM143.196 37.32L142.686 37.97C142.233 37.75 141.799 37.4167 141.386 36.97C140.973 36.5233 140.699 36.0833 140.566 35.65C140.446 36.11 140.176 36.5833 139.756 37.07C139.336 37.55 138.883 37.92 138.396 38.18L137.826 37.54C138.479 37.2067 139.019 36.7267 139.446 36.1C139.879 35.4733 140.096 34.7633 140.096 33.97V33.75H138.136V33.03H142.976V33.75H141.016V33.96C141.016 34.7467 141.226 35.4333 141.646 36.02C142.066 36.6067 142.583 37.04 143.196 37.32ZM144.326 35.53H142.556V34.79H144.326V30.96H145.206V39.7H144.326V35.53ZM141.856 32.24H139.236V31.51H141.856V32.24ZM152.258 36.62L152.348 37.35C151.288 37.5233 149.918 37.62 148.238 37.64H147.148V34.2H150.418V32.47H147.108V31.75H151.298V34.91H148.028V36.89H148.288C149.982 36.89 151.305 36.8 152.258 36.62ZM153.018 30.96H153.908V39.7H153.018V30.96ZM163.401 33.91H162.101V36.23H161.211V30.96H162.101V33.18H163.401V33.91ZM161.441 36.75C161.947 37.0567 162.201 37.47 162.201 37.99C162.201 38.51 161.944 38.9233 161.431 39.23C160.924 39.5367 160.211 39.69 159.291 39.69C158.377 39.69 157.667 39.5367 157.161 39.23C156.661 38.9233 156.411 38.51 156.411 37.99C156.411 37.47 156.661 37.0567 157.161 36.75C157.667 36.4433 158.377 36.29 159.291 36.29C160.217 36.29 160.934 36.4433 161.441 36.75ZM159.291 37.01C158.671 37.01 158.184 37.1 157.831 37.28C157.484 37.4533 157.311 37.69 157.311 37.99C157.311 38.29 157.487 38.53 157.841 38.71C158.194 38.8833 158.677 38.97 159.291 38.97C159.924 38.97 160.417 38.8833 160.771 38.71C161.124 38.5367 161.301 38.2967 161.301 37.99C161.301 37.69 161.124 37.4533 160.771 37.28C160.417 37.1 159.924 37.01 159.291 37.01ZM159.751 35.62H155.631V31.41H156.511V32.82H158.861V31.4H159.751V35.62ZM158.861 34.9V33.54H156.511V34.9H158.861ZM171.173 39.58H165.453V36.61H171.173V39.58ZM169.313 35.28L168.853 35.97C168.453 35.85 168.04 35.6333 167.613 35.32C167.186 35.0067 166.876 34.6667 166.683 34.3C166.536 34.6933 166.263 35.0733 165.863 35.44C165.463 35.8 165.023 36.0633 164.543 36.23L164.053 35.53C164.633 35.35 165.126 35.0567 165.533 34.65C165.94 34.2367 166.17 33.77 166.223 33.25H164.353V32.52H169.133V33.25H167.143C167.216 33.7433 167.463 34.17 167.883 34.53C168.303 34.89 168.78 35.14 169.313 35.28ZM170.283 38.88V37.32H166.343V38.88H170.283ZM171.173 36.13H170.283V30.96H171.173V36.13ZM167.903 31.88H165.533V31.16H167.903V31.88Z" fill="#8F8F8F"/>
<path d="M6.27 59.03C5.43 59.13 4.43667 59.2133 3.29 59.28C1.85 59.34 0.933333 59.37 0.54 59.37L0.39 58.63C1.15 58.63 1.96 58.61 2.82 58.57V57.77C2.32 57.7033 1.92 57.54 1.62 57.28C1.32 57.02 1.17 56.7 1.17 56.32C1.17 55.88 1.36667 55.5267 1.76 55.26C2.15333 54.9867 2.66 54.85 3.28 54.85C3.91333 54.85 4.42333 54.9833 4.81 55.25C5.20333 55.5167 5.4 55.8733 5.4 56.32C5.4 56.7067 5.24333 57.0333 4.93 57.3C4.62333 57.56 4.21333 57.72 3.7 57.78V58.52C4.74667 58.4733 5.57667 58.41 6.19 58.33L6.27 59.03ZM7.61 60.7H6.73V51.96H7.61V60.7ZM5.91 54.4H0.7V53.69H5.91V54.4ZM4.14 56.87C4.36667 56.7233 4.48 56.54 4.48 56.32C4.48 56.1 4.36667 55.9167 4.14 55.77C3.91333 55.6233 3.62667 55.55 3.28 55.55C2.94 55.55 2.65667 55.6233 2.43 55.77C2.21 55.9167 2.1 56.1 2.1 56.32C2.1 56.54 2.21 56.7233 2.43 56.87C2.65667 57.0167 2.94 57.09 3.28 57.09C3.62667 57.09 3.91333 57.0167 4.14 56.87ZM4.5 53.09H1.97V52.38H4.5V53.09ZM14.1323 54C14.1323 54.4867 13.9157 54.8767 13.4823 55.17C13.0557 55.4633 12.499 55.61 11.8123 55.61C11.1323 55.61 10.5757 55.4633 10.1423 55.17C9.70901 54.8767 9.49234 54.4833 9.49234 53.99C9.49234 53.5033 9.70901 53.1133 10.1423 52.82C10.5757 52.52 11.1323 52.37 11.8123 52.37C12.4923 52.37 13.049 52.52 13.4823 52.82C13.9157 53.1133 14.1323 53.5067 14.1323 54ZM16.2623 58.68H15.3923V57.75H13.6723V57.09H15.3923V51.96H16.2623V58.68ZM16.4323 60.48H10.0923V57.93H10.9723V59.76H16.4323V60.48ZM12.3323 58.3H11.4423V56.75C11.109 56.7633 10.6457 56.7767 10.0523 56.79C9.46568 56.8033 9.13568 56.81 9.06234 56.81L8.92234 56.08C10.0623 56.08 11.0323 56.0633 11.8323 56.03C12.9323 55.9833 13.8657 55.9167 14.6323 55.83L14.6923 56.49C14.1857 56.57 13.399 56.64 12.3323 56.7V58.3ZM13.1823 54C13.1823 53.7333 13.0557 53.5133 12.8023 53.34C12.549 53.1667 12.219 53.08 11.8123 53.08C11.4057 53.08 11.0757 53.1667 10.8223 53.34C10.569 53.5133 10.4423 53.7333 10.4423 54C10.4423 54.26 10.5657 54.4767 10.8123 54.65C11.0657 54.8167 11.399 54.9 11.8123 54.9C12.2257 54.9 12.5557 54.8167 12.8023 54.65C13.0557 54.4767 13.1823 54.26 13.1823 54ZM18.4447 53.04C18.8914 52.6467 19.4414 52.45 20.0947 52.45C20.748 52.45 21.298 52.6467 21.7447 53.04C22.1914 53.4333 22.4147 53.9367 22.4147 54.55C22.4147 55.1633 22.1914 55.66 21.7447 56.04C21.3047 56.42 20.7547 56.61 20.0947 56.61C19.4414 56.61 18.8914 56.42 18.4447 56.04C17.998 55.66 17.7747 55.1633 17.7747 54.55C17.7747 53.9367 17.998 53.4333 18.4447 53.04ZM25.7347 55.11V55.85H24.4347V57.1H23.5447V51.96H24.4347V53.3H25.7347V54.03H24.4347V55.11H25.7347ZM24.4347 60.71H23.5547V58.26H18.7747V57.55H24.4347V60.71ZM20.0947 53.2C19.6814 53.2 19.3414 53.3267 19.0747 53.58C18.8147 53.8333 18.6847 54.1533 18.6847 54.54C18.6847 54.94 18.8147 55.2667 19.0747 55.52C19.3414 55.7667 19.6814 55.89 20.0947 55.89C20.5214 55.89 20.8647 55.7667 21.1247 55.52C21.3847 55.2667 21.5147 54.9433 21.5147 54.55C21.5147 54.1567 21.3847 53.8333 21.1247 53.58C20.8647 53.3267 20.5214 53.2 20.0947 53.2ZM34.427 55.45H33.127V58.5H32.257V51.96H33.127V54.71H34.427V55.45ZM33.437 60.48H27.557V57.93H28.437V59.76H33.437V60.48ZM31.767 56.93C30.8937 57.0633 29.9637 57.1467 28.977 57.18C28.097 57.2267 27.2004 57.25 26.287 57.25L26.157 56.51C26.9637 56.51 27.577 56.5033 27.997 56.49V54.62H28.877V56.47C29.9837 56.4367 30.9137 56.3633 31.667 56.25L31.767 56.93ZM31.057 52.62C31.057 54.04 30.9737 55.06 30.807 55.68L29.947 55.54C30.0937 55.0467 30.167 54.3133 30.167 53.34H26.757V52.62H31.057ZM38.2663 60.6V52.28H39.0063V60.6H38.2663ZM50.9458 59.43H43.0558V58.7H46.0558V55.76H46.9458V58.7H50.9458V59.43ZM49.9258 52.77V54.11C49.9058 55.53 49.7824 56.72 49.5558 57.68C49.1824 57.6133 48.8991 57.5667 48.7058 57.54C48.9124 56.7267 49.0158 55.7267 49.0158 54.54V53.49H43.8658V52.77H49.9258ZM59.0881 57.11H58.2381V54.91H57.2381V57.03H56.4081V52.12H57.2381V54.19H58.2381V51.96H59.0881V57.11ZM55.4881 52.61C55.4681 54.67 54.3915 56.2 52.2581 57.2L51.7081 56.52C52.5148 56.2133 53.1715 55.7733 53.6781 55.2C54.1848 54.62 54.4748 53.9967 54.5481 53.33H52.0981V52.61H55.4881ZM59.0881 60.71H58.2081V58.27H53.1881V57.56H59.0881V60.71ZM67.7405 58.46H66.8905V51.96H67.7405V58.46ZM68.0505 60.44H61.9605V57.66H62.8505V59.72H68.0505V60.44ZM66.0805 58.19H65.2305V54.93H64.0105V54.21H65.2305V52.12H66.0805V58.19ZM64.7405 56.34L64.2605 56.99C63.9271 56.8233 63.5971 56.57 63.2705 56.23C62.9505 55.8833 62.7271 55.5433 62.6005 55.21C62.4871 55.5833 62.2671 55.9633 61.9405 56.35C61.6138 56.73 61.2471 57.0333 60.8405 57.26C60.7938 57.2 60.7405 57.1367 60.6805 57.07C60.6271 56.9967 60.5638 56.9167 60.4905 56.83C60.4238 56.7433 60.3705 56.6767 60.3305 56.63C60.8771 56.3433 61.3138 55.9433 61.6405 55.43C61.9738 54.9167 62.1405 54.3533 62.1405 53.74V52.66H63.0105V53.72C63.0105 54.3067 63.1771 54.8333 63.5105 55.3C63.8438 55.76 64.2538 56.1067 64.7405 56.34ZM70.1728 57.92H70.3928C71.9928 57.92 73.2095 57.8267 74.0428 57.64L74.1728 58.36C73.2928 58.54 71.9628 58.6367 70.1828 58.65H69.3028V52.77H73.4628V53.48H70.1728V55.17H73.0728V55.88H70.1728V57.92ZM76.1728 60.7H75.2928V55.99H73.5928V55.24H75.2928V51.96H76.1728V60.7Z" fill="#8F8F8F"/>
<defs>
<clipPath id="clip0_488_729">
<rect width="65" height="20" fill="white"/>
</clipPath>
</defs>
</svg>
