<svg width="326" height="22" viewBox="0 0 326 22" fill="none" xmlns="http://www.w3.org/2000/svg">
<rect width="32" height="22" rx="5" fill="#212732"/>
<path d="M14.6577 14.05C14.6577 14.5567 14.3943 14.9533 13.8677 15.24C13.341 15.5333 12.5977 15.68 11.6377 15.68C10.671 15.68 9.92099 15.5333 9.38766 15.24C8.85432 14.9533 8.58766 14.5567 8.58766 14.05C8.58766 13.5367 8.85099 13.1367 9.37766 12.85C9.91099 12.5567 10.6643 12.41 11.6377 12.41C12.6043 12.41 13.3477 12.5567 13.8677 12.85C14.3943 13.1367 14.6577 13.5367 14.6577 14.05ZM15.6177 11.76H7.72766V11.04H10.9477V9.22H11.8277V11.04H15.6177V11.76ZM13.1877 14.73C13.5677 14.57 13.7577 14.3433 13.7577 14.05C13.7577 13.7567 13.5677 13.53 13.1877 13.37C12.8077 13.21 12.291 13.13 11.6377 13.13C10.9777 13.13 10.4543 13.21 10.0677 13.37C9.68766 13.53 9.49766 13.7567 9.49766 14.05C9.49766 14.3433 9.68766 14.57 10.0677 14.73C10.4477 14.89 10.971 14.97 11.6377 14.97C12.291 14.97 12.8077 14.89 13.1877 14.73ZM14.6777 7.42C14.6777 7.53333 14.6743 7.68333 14.6677 7.87C14.6677 8.05667 14.6677 8.19667 14.6677 8.29C14.6477 9.17 14.5643 9.91333 14.4177 10.52C14.231 10.5 13.9443 10.4633 13.5577 10.41C13.711 9.82333 13.7877 9.06667 13.7877 8.14H8.67766V7.42H14.6777ZM21.76 12.96L21.24 13.62C20.7933 13.36 20.3567 12.9867 19.93 12.5C19.5033 12.0067 19.2233 11.5267 19.09 11.06C18.9633 11.5733 18.6967 12.0867 18.29 12.6C17.8833 13.1067 17.42 13.5133 16.9 13.82L16.34 13.18C17.0267 12.7733 17.58 12.2267 18 11.54C18.42 10.8467 18.63 10.0867 18.63 9.26V8.56H16.65V7.84H21.5V8.56H19.54V9.26C19.54 10.0733 19.7467 10.8067 20.16 11.46C20.5733 12.1067 21.1067 12.6067 21.76 12.96ZM22.7 6.96H23.59V15.7H22.7V6.96Z" fill="#FF0000"/>
<path d="M42.296 15.532L45.428 8.332H41.42V7.444H46.592V8.116L43.484 15.532H42.296ZM46.9897 16.72L49.7737 6.736H50.6977L47.9137 16.72H46.9897ZM51.6692 15.496V14.872L53.5172 12.952C54.1892 12.248 54.6772 11.664 54.9812 11.2C55.2932 10.728 55.4492 10.236 55.4492 9.724C55.4492 9.196 55.3172 8.808 55.0532 8.56C54.7892 8.304 54.3772 8.176 53.8172 8.176C53.2652 8.176 52.6692 8.388 52.0292 8.812L51.7772 7.996C52.4972 7.516 53.2452 7.276 54.0212 7.276C54.8372 7.276 55.4652 7.484 55.9052 7.9C56.3452 8.316 56.5652 8.888 56.5652 9.616C56.5652 10.264 56.3852 10.86 56.0252 11.404C55.6732 11.94 55.1052 12.604 54.3212 13.396L53.1212 14.608H56.7212V15.496H51.6692ZM58.0677 15.496V14.872L59.9157 12.952C60.5877 12.248 61.0757 11.664 61.3797 11.2C61.6917 10.728 61.8477 10.236 61.8477 9.724C61.8477 9.196 61.7157 8.808 61.4517 8.56C61.1877 8.304 60.7757 8.176 60.2157 8.176C59.6637 8.176 59.0677 8.388 58.4277 8.812L58.1757 7.996C58.8957 7.516 59.6437 7.276 60.4197 7.276C61.2357 7.276 61.8637 7.484 62.3037 7.9C62.7437 8.316 62.9637 8.888 62.9637 9.616C62.9637 10.264 62.7837 10.86 62.4237 11.404C62.0717 11.94 61.5037 12.604 60.7197 13.396L59.5197 14.608H63.1197V15.496H58.0677ZM66.5061 16.72C65.8821 16.104 65.3741 15.38 64.9821 14.548C64.5901 13.716 64.3941 12.808 64.3941 11.824V11.62C64.3941 9.74 65.0981 8.112 66.5061 6.736H67.4061C66.8301 7.376 66.3581 8.112 65.9901 8.944C65.6301 9.776 65.4501 10.636 65.4501 11.524V11.836C65.4501 12.7 65.6341 13.572 66.0021 14.452C66.3701 15.332 66.8381 16.088 67.4061 16.72H66.5061ZM77.4904 12.46H68.0224V11.584H72.1984V10.336H69.2344V6.736H76.2904V10.336H73.2664V11.584H77.4904V12.46ZM75.2104 9.496V7.588H70.2904V9.496H75.2104ZM69.0664 13.48H76.3264V16.888H75.2704V14.344H69.0664V13.48ZM78.0812 16.72C78.6652 16.08 79.1372 15.344 79.4972 14.512C79.8652 13.68 80.0492 12.82 80.0492 11.932V11.608C80.0492 10.744 79.8652 9.876 79.4972 9.004C79.1292 8.124 78.6572 7.368 78.0812 6.736H78.9932C79.6252 7.352 80.1372 8.076 80.5292 8.908C80.9212 9.732 81.1172 10.636 81.1172 11.62V11.824C81.1172 12.808 80.9212 13.716 80.5292 14.548C80.1372 15.38 79.6252 16.104 78.9932 16.72H78.0812ZM93.9819 13.972H92.9139V6.352H93.9819V13.972ZM91.7259 11.512L91.1139 12.34C90.6019 12.124 90.1019 11.788 89.6139 11.332C89.1339 10.868 88.7859 10.38 88.5699 9.868C88.4099 10.42 88.0819 10.968 87.5859 11.512C87.0979 12.048 86.5779 12.44 86.0259 12.688L85.3779 11.86C86.1219 11.548 86.7459 11.048 87.2499 10.36C87.7619 9.664 88.0179 8.916 88.0179 8.116V6.94H89.0979V8.068C89.0979 8.86 89.3619 9.572 89.8899 10.204C90.4259 10.836 91.0379 11.272 91.7259 11.512ZM94.2099 16.54H87.1419V13.264H88.2099V15.676H94.2099V16.54ZM103.945 7.108C103.945 8.82 103.817 10.304 103.561 11.56H105.229V12.424H102.805V16.84H101.749V12.424H99.1927V16.84H98.1367V12.424H95.7607V11.56H102.529C102.761 10.624 102.877 9.428 102.877 7.972H96.9127V7.108H103.945ZM117.984 16.756H110.412V14.248H116.544V13.444H110.412V12.592H113.472V11.716H109.296V10.84H118.764V11.716H114.54V12.592H117.6V15.052H111.468V15.88H117.984V16.756ZM118.308 9.508L117.828 10.36C116.996 10.24 116.22 10.004 115.5 9.652C114.788 9.292 114.296 8.88 114.024 8.416C113.816 8.888 113.352 9.304 112.632 9.664C111.92 10.016 111.124 10.248 110.244 10.36L109.788 9.532C110.668 9.468 111.452 9.272 112.14 8.944C112.836 8.608 113.264 8.164 113.424 7.612H110.208V6.76H117.852V7.612H114.66C114.836 8.148 115.284 8.584 116.004 8.92C116.732 9.248 117.5 9.444 118.308 9.508ZM128.331 16.84H127.263V10.936H124.923V10.036H127.263V6.352H128.331V16.84ZM125.991 13.552L125.355 14.344C124.843 14.008 124.335 13.544 123.831 12.952C123.327 12.36 122.983 11.776 122.799 11.2C122.623 11.832 122.295 12.46 121.815 13.084C121.343 13.7 120.811 14.204 120.219 14.596L119.547 13.816C120.355 13.312 121.007 12.632 121.503 11.776C121.999 10.92 122.247 10.016 122.247 9.064V7.252H123.339V9.016C123.339 9.96 123.587 10.832 124.083 11.632C124.579 12.432 125.215 13.072 125.991 13.552ZM138.665 16.84H137.597V6.352H138.665V16.84ZM135.593 7.468C135.561 9.076 135.113 10.5 134.249 11.74C133.393 12.972 132.217 13.996 130.721 14.812L130.073 14.008C131.313 13.416 132.325 12.612 133.109 11.596C133.901 10.572 134.345 9.496 134.441 8.368H130.541V7.468H135.593ZM152.249 16.84H151.181V10.936H148.841V10.036H151.181V6.352H152.249V16.84ZM149.909 13.552L149.273 14.344C148.761 14.008 148.253 13.544 147.749 12.952C147.245 12.36 146.901 11.776 146.717 11.2C146.541 11.832 146.213 12.46 145.733 13.084C145.261 13.7 144.729 14.204 144.137 14.596L143.465 13.816C144.273 13.312 144.925 12.632 145.421 11.776C145.917 10.92 146.165 10.016 146.165 9.064V7.252H147.257V9.016C147.257 9.96 147.505 10.832 148.001 11.632C148.497 12.432 149.133 13.072 149.909 13.552ZM162.643 16.84H161.575V6.352H162.643V16.84ZM159.559 14.236H154.495V7.252H155.551V9.868H158.503V7.24H159.559V14.236ZM158.503 13.384V10.732H155.551V13.384H158.503ZM173.542 11.668L172.966 12.508C172.142 12.276 171.35 11.868 170.59 11.284C169.838 10.7 169.338 10.116 169.09 9.532C168.882 10.124 168.398 10.712 167.638 11.296C166.878 11.872 166.07 12.272 165.214 12.496L164.674 11.632C165.266 11.528 165.854 11.308 166.438 10.972C167.022 10.636 167.518 10.204 167.926 9.676C168.342 9.148 168.55 8.604 168.55 8.044V7.228H169.642V8.044C169.642 8.596 169.858 9.14 170.29 9.676C170.722 10.212 171.23 10.652 171.814 10.996C172.406 11.332 172.982 11.556 173.542 11.668ZM173.83 15.424H164.362V14.56H173.83V15.424ZM186.381 11.236H183.141V12.352H187.365V13.228H177.897V12.352H182.073V11.236H179.085V8.596H185.085V7.6H179.061V6.772H186.153V9.388H180.153V10.42H186.381V11.236ZM186.237 16.528H179.121V13.816H180.177V15.676H186.237V16.528ZM196.068 13.432C196.684 13.776 196.992 14.252 196.992 14.86C196.992 15.468 196.684 15.948 196.068 16.3C195.452 16.652 194.584 16.828 193.464 16.828C192.344 16.828 191.472 16.652 190.848 16.3C190.232 15.948 189.924 15.468 189.924 14.86C189.924 14.252 190.232 13.776 190.848 13.432C191.472 13.08 192.344 12.904 193.464 12.904C194.584 12.904 195.452 13.08 196.068 13.432ZM194.652 11.536L194.1 12.364C193.62 12.22 193.124 11.96 192.612 11.584C192.1 11.208 191.728 10.8 191.496 10.36C191.32 10.832 190.992 11.288 190.512 11.728C190.032 12.16 189.504 12.476 188.928 12.676L188.34 11.836C189.02 11.628 189.6 11.288 190.08 10.816C190.56 10.336 190.844 9.792 190.932 9.184H188.7V8.32H194.436V9.184H192.072C192.176 9.76 192.476 10.256 192.972 10.672C193.476 11.088 194.036 11.376 194.652 11.536ZM195.24 15.664C195.672 15.464 195.888 15.196 195.888 14.86C195.888 14.524 195.672 14.26 195.24 14.068C194.816 13.876 194.224 13.78 193.464 13.78C192.704 13.78 192.108 13.876 191.676 14.068C191.252 14.26 191.04 14.524 191.04 14.86C191.04 15.196 191.252 15.464 191.676 15.664C192.108 15.856 192.704 15.952 193.464 15.952C194.224 15.952 194.816 15.856 195.24 15.664ZM196.884 12.904H195.816V6.352H196.884V12.904ZM192.96 7.456H190.116V6.592H192.96V7.456Z" fill="#AFAFAF"/>
<path d="M326 11C326 11.0876 325.983 11.1682 325.95 11.2419C325.916 11.3203 325.866 11.3917 325.8 11.4562L320.124 16.8203C319.995 16.9401 319.84 17 319.658 17C319.534 17 319.425 16.9724 319.329 16.9171C319.229 16.8618 319.15 16.7857 319.093 16.6889C319.031 16.5968 319 16.4908 319 16.371C319 16.2005 319.064 16.0507 319.193 15.9217L324.404 11L319.193 6.07834C319.064 5.94931 319 5.79954 319 5.62903C319 5.50922 319.031 5.40323 319.093 5.31106C319.15 5.21429 319.229 5.13825 319.329 5.08295C319.425 5.02765 319.534 5 319.658 5C319.84 5 319.995 5.06221 320.124 5.18664L325.8 10.5438C325.866 10.6083 325.916 10.6774 325.95 10.7512C325.983 10.8295 326 10.9124 326 11Z" fill="#959595"/>
</svg>
