<svg width="232" height="43" viewBox="0 0 232 43" fill="none" xmlns="http://www.w3.org/2000/svg">
<path d="M15.32 21.58H13V3.76H15.32V21.58ZM2.32 15.96C1.50667 14.8 1.1 13.2667 1.1 11.36C1.1 9.45333 1.50667 7.91333 2.32 6.74C3.14667 5.56667 4.27333 4.98 5.7 4.98C7.14 4.98 8.26667 5.56667 9.08 6.74C9.90667 7.91333 10.32 9.45333 10.32 11.36C10.32 13.2533 9.90667 14.7867 9.08 15.96C8.26667 17.12 7.14 17.7 5.7 17.7C4.27333 17.7 3.14667 17.12 2.32 15.96ZM8.08 11.36C8.08 9.97333 7.86 8.88 7.42 8.08C6.98 7.26667 6.40667 6.86 5.7 6.86C5.02 6.86 4.46 7.26667 4.02 8.08C3.59333 8.88 3.38 9.97333 3.38 11.36C3.38 12.7333 3.59333 13.82 4.02 14.62C4.46 15.42 5.02 15.82 5.7 15.82C6.40667 15.82 6.98 15.42 7.42 14.62C7.86 13.82 8.08 12.7333 8.08 11.36ZM30.3047 10.42H27.7647V8.52H30.3047V3.76H32.6247V16.68H30.3047V10.42ZM33.0247 21.1H20.9047V15.48H23.2447V19.26H33.0247V21.1ZM26.8647 13.74H18.4647V4.84H20.8247V7.6H24.5447V4.8H26.8647V13.74ZM24.5447 11.88V9.42H20.8247V11.88H24.5447ZM36.9494 12.2L35.9294 10.38C37.3427 10.2333 38.656 9.78667 39.8694 9.04C41.0827 8.28 41.7827 7.39333 41.9694 6.38H36.6494V4.52H49.8494V6.38H44.5294C44.6627 7.06 45.0494 7.69333 45.6894 8.28C46.3294 8.85333 47.076 9.31333 47.9294 9.66C48.796 9.99333 49.6827 10.2067 50.5894 10.3C50.4694 10.54 50.2894 10.8733 50.0494 11.3C49.8227 11.7267 49.676 12 49.6094 12.12C48.4227 11.9867 47.1827 11.5667 45.8894 10.86C44.6094 10.14 43.7294 9.36667 43.2494 8.54C42.796 9.42 41.9494 10.2133 40.7094 10.92C39.4694 11.6133 38.216 12.04 36.9494 12.2ZM44.3894 21.56H42.0294V15.36H35.2094V13.5H51.3094V15.36H44.3894V21.56Z" fill="url(#paint0_linear_488_699)"/>
<path d="M72.488 16.68H70.168V3.76H72.488V16.68ZM72.888 21.1H60.528V15.4H62.888V19.26H72.888V21.1ZM58.328 9.48C58.328 8.2 58.768 7.14667 59.648 6.32C60.5413 5.49333 61.708 5.08 63.148 5.08C64.6013 5.08 65.768 5.49333 66.648 6.32C67.528 7.14667 67.968 8.2 67.968 9.48C67.968 10.7733 67.528 11.8267 66.648 12.64C65.768 13.4533 64.6013 13.86 63.148 13.86C61.6946 13.86 60.528 13.4533 59.648 12.64C58.768 11.8267 58.328 10.7733 58.328 9.48ZM60.728 9.48C60.728 10.2 60.948 10.7933 61.388 11.26C61.828 11.7133 62.4146 11.94 63.148 11.94C63.908 11.94 64.5013 11.7133 64.928 11.26C65.368 10.7933 65.588 10.2 65.588 9.48C65.588 8.78667 65.368 8.21333 64.928 7.76C64.488 7.30667 63.8946 7.08 63.148 7.08C62.4146 7.08 61.828 7.30667 61.388 7.76C60.948 8.21333 60.728 8.78667 60.728 9.48ZM89.8127 21.58H87.4727V3.76H89.8127V21.58ZM84.3327 5.62C84.186 11.3 81.5327 15.5467 76.3727 18.36L74.9327 16.6C76.8527 15.72 78.4393 14.4467 79.6927 12.78C80.946 11.1 81.6527 9.36 81.8127 7.56H76.0127V5.62H84.3327ZM98.6513 19.18V5.46H101.111V17.24H106.911V19.18H98.6513ZM108.978 19.18V8.88H111.298V19.18H108.978ZM108.978 7.18V5.08H111.318V7.18H108.978ZM114.075 19.18V8.88H116.295V9.8H116.375C117.388 9.06667 118.515 8.7 119.755 8.7C120.768 8.7 121.522 8.92667 122.015 9.38C122.508 9.82 122.755 10.54 122.755 11.54V19.18H120.435V12.08C120.435 11.5467 120.315 11.1733 120.075 10.96C119.835 10.7333 119.375 10.62 118.695 10.62C117.922 10.62 117.148 10.8067 116.375 11.18V19.18H114.075ZM129.942 19.36C128.263 19.36 126.989 18.9067 126.123 18C125.269 17.0933 124.843 15.8133 124.843 14.16V13.88C124.843 12.2133 125.283 10.94 126.163 10.06C127.056 9.16667 128.189 8.72 129.563 8.72C131.056 8.72 132.156 9.13333 132.863 9.96C133.569 10.7867 133.923 12.0333 133.923 13.7V14.66H127.203C127.269 15.7 127.563 16.4467 128.083 16.9C128.616 17.34 129.389 17.56 130.403 17.56C131.536 17.56 132.596 17.3067 133.583 16.8V18.4C132.609 19.04 131.396 19.36 129.942 19.36ZM129.523 10.42C128.109 10.42 127.336 11.3067 127.203 13.08H131.583C131.583 12.1333 131.409 11.4533 131.063 11.04C130.729 10.6267 130.216 10.42 129.523 10.42ZM145.488 18.18C144.648 19.0067 143.348 19.42 141.588 19.42C139.828 19.42 138.488 19 137.568 18.16C136.648 17.32 136.188 16.06 136.188 14.38V5.46H138.688V14.22C138.688 15.4333 138.928 16.2933 139.408 16.8C139.901 17.3067 140.661 17.56 141.688 17.56C142.688 17.56 143.414 17.3133 143.868 16.82C144.334 16.3133 144.568 15.4467 144.568 14.22V5.46H146.768V14.3C146.768 16.0467 146.341 17.34 145.488 18.18ZM149.661 22.16V8.88H151.881V9.76H151.961C152.667 9.05333 153.661 8.7 154.941 8.7C156.141 8.7 157.121 9.1 157.881 9.9C158.641 10.6867 159.021 11.96 159.021 13.72V13.98C159.021 17.5667 157.467 19.36 154.361 19.36C153.454 19.36 152.654 19.1667 151.961 18.78V22.16H149.661ZM154.041 17.62C154.894 17.62 155.534 17.3667 155.961 16.86C156.401 16.34 156.621 15.48 156.621 14.28V13.86C156.621 12.6467 156.414 11.8 156.001 11.32C155.601 10.8267 154.974 10.58 154.121 10.58C153.254 10.58 152.534 10.78 151.961 11.18V17.02C152.454 17.42 153.147 17.62 154.041 17.62ZM161.644 15.2L161.324 4.94H163.924L163.644 15.2H161.644ZM161.444 19.46V17.12H163.844V19.46H161.444Z" fill="white"/>
<path d="M9.504 36.468L9.024 37.32C8.232 37.192 7.456 36.912 6.696 36.48C5.944 36.048 5.44 35.592 5.184 35.112C4.952 35.608 4.468 36.076 3.732 36.516C3.004 36.948 2.224 37.228 1.392 37.356L0.888 36.516C1.776 36.42 2.604 36.132 3.372 35.652C4.14 35.164 4.56 34.604 4.632 33.972H1.332V33.096H9.072V33.972H5.76C5.84 34.596 6.268 35.148 7.044 35.628C7.828 36.1 8.648 36.38 9.504 36.468ZM5.7 42.84H4.632V39.168H0.456V38.304H9.924V39.168H5.7V42.84ZM16.0828 40.212H11.1748V33.408H16.0828V40.212ZM15.0148 39.36V34.272H12.2308V39.36H15.0148ZM20.6188 37.392H18.9388V42.84H17.8708V32.352H18.9388V36.516H20.6188V37.392ZM22.7216 39.396H23.1536C25.0256 39.396 26.4816 39.284 27.5216 39.06L27.6416 39.924C26.5536 40.148 24.9536 40.268 22.8416 40.284H21.6656V33.456H26.6216V34.332H22.7216V39.396ZM29.3216 32.352V36.444H30.9536V37.332H29.3216V42.84H28.2656V32.352H29.3216ZM44.5248 37.344H42.8568V42.84H41.8008V32.352H42.8568V36.456H44.5248V37.344ZM40.0128 40.236H35.0928V33.24H36.1368V35.856H38.9448V33.228H40.0128V40.236ZM38.9448 39.384V36.708H36.1368V39.384H38.9448ZM49.1596 42.276H48.1036V38.028C47.1676 38.06 46.1836 38.084 45.1516 38.1L45.0076 37.176C45.8716 37.176 46.5156 37.172 46.9396 37.164C47.1636 36.204 47.2756 35.164 47.2756 34.044H45.7516V33.192H48.3436C48.3436 34.512 48.2196 35.828 47.9716 37.14C48.0916 37.14 48.2876 37.132 48.5596 37.116C48.5756 37.116 49.0836 37.092 50.0836 37.044C50.2916 36.124 50.3956 35.124 50.3956 34.044H48.8956V33.192H51.4516C51.4516 34.512 51.3436 35.772 51.1276 36.972C51.4876 36.948 51.8236 36.912 52.1356 36.864L52.2436 37.728C51.3316 37.848 50.3036 37.932 49.1596 37.98V42.276ZM53.8156 42.84H52.7596V32.352H53.8156V42.84ZM64.9904 38.556H55.5224V37.692H64.9904V38.556ZM63.9944 42.612H56.7824V39.504H57.8384V41.736H63.9944V42.612ZM63.9464 36.456H56.8184V32.784H57.8744V35.592H63.9464V36.456ZM77.6616 39.972H76.5936V32.352H77.6616V39.972ZM77.9016 42.516H70.7616V39.252H71.8296V41.664H77.9016V42.516ZM70.0896 33.816C70.6176 33.312 71.2856 33.06 72.0936 33.06C72.9016 33.06 73.5696 33.308 74.0976 33.804C74.6336 34.3 74.9016 34.924 74.9016 35.676C74.9016 36.428 74.6376 37.044 74.1096 37.524C73.5816 37.996 72.9096 38.232 72.0936 38.232C71.2856 38.232 70.6176 37.996 70.0896 37.524C69.5616 37.044 69.2976 36.432 69.2976 35.688C69.2976 34.936 69.5616 34.312 70.0896 33.816ZM72.0936 33.972C71.6056 33.972 71.2016 34.132 70.8816 34.452C70.5696 34.772 70.4136 35.176 70.4136 35.664C70.4136 36.144 70.5696 36.544 70.8816 36.864C71.2016 37.184 71.6056 37.344 72.0936 37.344C72.6056 37.344 73.0136 37.188 73.3176 36.876C73.6216 36.564 73.7736 36.164 73.7736 35.676C73.7736 35.172 73.6216 34.764 73.3176 34.452C73.0136 34.132 72.6056 33.972 72.0936 33.972ZM88.0444 42.84H86.9764V32.352H88.0444V42.84ZM84.9724 33.468C84.9404 35.076 84.4924 36.5 83.6284 37.74C82.7724 38.972 81.5964 39.996 80.1004 40.812L79.4524 40.008C80.6924 39.416 81.7044 38.612 82.4884 37.596C83.2804 36.572 83.7244 35.496 83.8204 34.368H79.9204V33.468H84.9724ZM99.1915 39.12L99.2995 40.008C97.9395 40.24 96.3795 40.356 94.6195 40.356H93.3595V36.24H97.1275V34.164H93.3235V33.3H98.1835V37.092H94.4155V39.48C96.3035 39.496 97.8955 39.376 99.1915 39.12ZM101.076 32.352V36.516H102.708V37.392H101.076V42.84H100.02V32.352H101.076ZM111.962 39.972H110.894V32.352H111.962V39.972ZM112.202 42.516H105.062V39.252H106.13V41.664H112.202V42.516ZM104.39 33.816C104.918 33.312 105.586 33.06 106.394 33.06C107.202 33.06 107.87 33.308 108.398 33.804C108.934 34.3 109.202 34.924 109.202 35.676C109.202 36.428 108.938 37.044 108.41 37.524C107.882 37.996 107.21 38.232 106.394 38.232C105.586 38.232 104.918 37.996 104.39 37.524C103.862 37.044 103.598 36.432 103.598 35.688C103.598 34.936 103.862 34.312 104.39 33.816ZM106.394 33.972C105.906 33.972 105.502 34.132 105.182 34.452C104.87 34.772 104.714 35.176 104.714 35.664C104.714 36.144 104.87 36.544 105.182 36.864C105.502 37.184 105.906 37.344 106.394 37.344C106.906 37.344 107.314 37.188 107.618 36.876C107.922 36.564 108.074 36.164 108.074 35.676C108.074 35.172 107.922 34.764 107.618 34.452C107.314 34.132 106.906 33.972 106.394 33.972ZM121.277 35.688H119.609V34.824H121.277V32.352H122.345V37.956H121.277V35.688ZM122.345 42.708H115.601V38.532H116.657V39.78H121.277V38.508H122.345V42.708ZM121.277 41.856V40.62H116.657V41.856H121.277ZM114.605 33.54C115.117 33.084 115.753 32.856 116.513 32.856C117.273 32.856 117.905 33.084 118.409 33.54C118.921 33.988 119.177 34.572 119.177 35.292C119.177 36.012 118.921 36.592 118.409 37.032C117.905 37.464 117.273 37.68 116.513 37.68C115.753 37.68 115.117 37.464 114.605 37.032C114.101 36.592 113.849 36.016 113.849 35.304C113.849 34.584 114.101 33.996 114.605 33.54ZM116.513 33.756C116.049 33.756 115.665 33.896 115.361 34.176C115.057 34.456 114.905 34.824 114.905 35.28C114.905 35.736 115.057 36.1 115.361 36.372C115.665 36.644 116.049 36.78 116.513 36.78C116.977 36.78 117.357 36.644 117.653 36.372C117.949 36.1 118.097 35.74 118.097 35.292C118.097 34.828 117.949 34.456 117.653 34.176C117.365 33.896 116.985 33.756 116.513 33.756ZM135.592 40.86C135.592 41.468 135.276 41.944 134.644 42.288C134.012 42.64 133.12 42.816 131.968 42.816C130.808 42.816 129.908 42.64 129.268 42.288C128.628 41.944 128.308 41.468 128.308 40.86C128.308 40.244 128.624 39.764 129.256 39.42C129.896 39.068 130.8 38.892 131.968 38.892C133.128 38.892 134.02 39.068 134.644 39.42C135.276 39.764 135.592 40.244 135.592 40.86ZM136.744 38.112H127.276V37.248H131.14V35.064H132.196V37.248H136.744V38.112ZM133.828 41.676C134.284 41.484 134.512 41.212 134.512 40.86C134.512 40.508 134.284 40.236 133.828 40.044C133.372 39.852 132.752 39.756 131.968 39.756C131.176 39.756 130.548 39.852 130.084 40.044C129.628 40.236 129.4 40.508 129.4 40.86C129.4 41.212 129.628 41.484 130.084 41.676C130.54 41.868 131.168 41.964 131.968 41.964C132.752 41.964 133.372 41.868 133.828 41.676ZM135.616 32.904C135.616 33.04 135.612 33.22 135.604 33.444C135.604 33.668 135.604 33.836 135.604 33.948C135.58 35.004 135.48 35.896 135.304 36.624C135.08 36.6 134.736 36.556 134.272 36.492C134.456 35.788 134.548 34.88 134.548 33.768H128.416V32.904H135.616ZM147.127 41.316H137.659V40.44H141.259V36.912H142.327V40.44H147.127V41.316ZM145.903 33.324V34.932C145.879 36.636 145.731 38.064 145.459 39.216C145.011 39.136 144.671 39.08 144.439 39.048C144.687 38.072 144.811 36.872 144.811 35.448V34.188H138.631V33.324H145.903ZM157.51 38.016H148.042V37.2H157.51V38.016ZM156.754 42.648H149.122V40.332H155.362V39.552H149.122V38.748H156.418V41.076H150.178V41.844H156.754V42.648ZM156.574 36.456H149.23V34.236H155.302V33.504H149.242V32.712H156.358V34.956H150.298V35.664H156.574V36.456ZM168.105 38.952C167.209 39.08 166.101 39.176 164.781 39.24C163.197 39.32 162.105 39.36 161.505 39.36L161.349 38.484C162.165 38.484 163.125 38.464 164.229 38.424V37.764C163.669 37.708 163.217 37.564 162.873 37.332C162.537 37.092 162.369 36.776 162.369 36.384C162.369 35.92 162.593 35.564 163.041 35.316C163.497 35.06 164.077 34.932 164.781 34.932C165.485 34.932 166.065 35.06 166.521 35.316C166.977 35.564 167.205 35.916 167.205 36.372C167.205 36.764 167.029 37.08 166.677 37.32C166.325 37.56 165.865 37.708 165.297 37.764V38.364C166.609 38.3 167.509 38.224 167.997 38.136L168.105 38.952ZM171.285 36.66H169.725V39.348H168.681V32.352H169.725V35.784H171.285V36.66ZM162.789 39.888H169.725V42.888H168.681V40.752H162.789V39.888ZM167.769 34.656H161.733V33.828H167.769V34.656ZM166.173 36.372C166.173 36.164 166.045 36.004 165.789 35.892C165.533 35.78 165.197 35.724 164.781 35.724C164.365 35.724 164.029 35.78 163.773 35.892C163.525 36.004 163.401 36.164 163.401 36.372C163.401 36.572 163.529 36.732 163.785 36.852C164.041 36.964 164.373 37.02 164.781 37.02C165.189 37.02 165.521 36.964 165.777 36.852C166.041 36.732 166.173 36.572 166.173 36.372ZM166.221 33.312H163.293V32.484H166.221V33.312ZM180.564 39.972H179.496V32.352H180.564V39.972ZM180.804 42.516H173.664V39.252H174.732V41.664H180.804V42.516ZM172.992 33.816C173.52 33.312 174.188 33.06 174.996 33.06C175.804 33.06 176.472 33.308 177 33.804C177.536 34.3 177.804 34.924 177.804 35.676C177.804 36.428 177.54 37.044 177.012 37.524C176.484 37.996 175.812 38.232 174.996 38.232C174.188 38.232 173.52 37.996 172.992 37.524C172.464 37.044 172.2 36.432 172.2 35.688C172.2 34.936 172.464 34.312 172.992 33.816ZM174.996 33.972C174.508 33.972 174.104 34.132 173.784 34.452C173.472 34.772 173.316 35.176 173.316 35.664C173.316 36.144 173.472 36.544 173.784 36.864C174.104 37.184 174.508 37.344 174.996 37.344C175.508 37.344 175.916 37.188 176.22 36.876C176.524 36.564 176.676 36.164 176.676 35.676C176.676 35.172 176.524 34.764 176.22 34.452C175.916 34.132 175.508 33.972 174.996 33.972ZM191.199 42.84H190.179V37.56H189.099V42.324H188.079V32.58H189.099V36.684H190.179V32.352H191.199V42.84ZM187.347 38.34C187.347 38.972 187.135 39.476 186.711 39.852C186.287 40.22 185.731 40.404 185.043 40.404C184.363 40.404 183.807 40.212 183.375 39.828C182.943 39.436 182.727 38.94 182.727 38.34C182.727 37.716 182.939 37.22 183.363 36.852C183.795 36.476 184.355 36.288 185.043 36.288C185.731 36.288 186.287 36.476 186.711 36.852C187.135 37.22 187.347 37.716 187.347 38.34ZM185.955 39.204C186.203 38.972 186.327 38.684 186.327 38.34C186.327 37.996 186.203 37.712 185.955 37.488C185.715 37.264 185.411 37.152 185.043 37.152C184.667 37.152 184.355 37.268 184.107 37.5C183.867 37.724 183.747 38.004 183.747 38.34C183.747 38.692 183.867 38.984 184.107 39.216C184.347 39.44 184.659 39.552 185.043 39.552C185.411 39.552 185.715 39.436 185.955 39.204ZM187.563 35.808H182.367V34.932H187.563V35.808ZM186.351 34.008H183.531V33.144H186.351V34.008ZM201.042 38.628H197.97V40.692H202.194V41.556H192.726V40.692H196.902V38.628H193.866V33.084H194.934V34.992H199.986V33.084H201.042V38.628ZM199.986 37.752V35.856H194.934V37.752H199.986ZM211.964 42.84H210.944V32.352H211.964V42.84ZM209.888 42.324H208.88V36.948H207.224V36.072H208.88V32.592H209.888V42.324ZM208.328 39.48L207.68 40.224C207.272 39.944 206.872 39.536 206.48 39C206.088 38.464 205.816 37.924 205.664 37.38C205.536 37.956 205.272 38.532 204.872 39.108C204.48 39.684 204.024 40.148 203.504 40.5L202.844 39.756C203.5 39.332 204.048 38.708 204.488 37.884C204.928 37.06 205.148 36.144 205.148 35.136V33.348H206.168V35.124C206.168 36.092 206.368 36.964 206.768 37.74C207.176 38.508 207.696 39.088 208.328 39.48ZM221.051 33.804C221.771 34.3 222.131 34.956 222.131 35.772C222.131 36.588 221.771 37.244 221.051 37.74C220.339 38.236 219.395 38.484 218.219 38.484C217.051 38.484 216.107 38.236 215.387 37.74C214.675 37.244 214.319 36.588 214.319 35.772C214.319 34.956 214.675 34.3 215.387 33.804C216.107 33.3 217.051 33.048 218.219 33.048C219.395 33.048 220.339 33.3 221.051 33.804ZM221.039 35.772C221.039 35.22 220.779 34.776 220.259 34.44C219.747 34.096 219.067 33.924 218.219 33.924C217.371 33.924 216.691 34.096 216.179 34.44C215.667 34.776 215.411 35.22 215.411 35.772C215.411 36.316 215.667 36.76 216.179 37.104C216.699 37.44 217.379 37.608 218.219 37.608C219.067 37.608 219.747 37.44 220.259 37.104C220.779 36.76 221.039 36.316 221.039 35.772ZM222.959 41.508H213.491V40.644H215.759V38.784L216.827 38.748V40.644H219.599V38.748L220.655 38.784V40.644H222.959V41.508ZM224.582 39.588L224.45 33.048H225.614L225.482 39.588H224.582ZM224.462 41.7V40.536H225.626V41.7H224.462Z" fill="#AFAFAF"/>
<defs>
<linearGradient id="paint0_linear_488_699" x1="-13.3636" y1="11.2195" x2="186.136" y2="11.2195" gradientUnits="userSpaceOnUse">
<stop offset="0.078125" stop-color="#1280F4"/>
<stop offset="0.49339" stop-color="#2CE3F4"/>
<stop offset="0.903029" stop-color="#2CE3A7"/>
</linearGradient>
</defs>
</svg>
