<svg width="197" height="36" viewBox="0 0 197 36" fill="none" xmlns="http://www.w3.org/2000/svg">
<rect width="197" height="36" rx="15" fill="#212732"/>
<path d="M16.3911 20.98C15.9351 20.292 15.7071 19.4 15.7071 18.304C15.7071 17.208 15.9351 16.316 16.3911 15.628C16.8471 14.94 17.5191 14.596 18.4071 14.596C19.2231 14.596 19.8511 14.892 20.2911 15.484C20.7391 16.068 20.9991 16.848 21.0711 17.824H23.1951V13.852H24.2631V24.34H23.1951V18.724H21.0711C21.0071 19.716 20.7511 20.512 20.3031 21.112C19.8631 21.712 19.2311 22.012 18.4071 22.012C17.5191 22.012 16.8471 21.668 16.3911 20.98ZM20.0271 18.316C20.0271 17.476 19.8831 16.8 19.5951 16.288C19.3151 15.768 18.9191 15.508 18.4071 15.508C17.8871 15.508 17.4871 15.764 17.2071 16.276C16.9351 16.788 16.7991 17.468 16.7991 18.316C16.7991 19.148 16.9351 19.82 17.2071 20.332C17.4871 20.844 17.8871 21.1 18.4071 21.1C18.9191 21.1 19.3151 20.844 19.5951 20.332C19.8831 19.82 20.0271 19.148 20.0271 18.316ZM34.7779 21.496H33.7579V17.536H31.9819V16.672H33.7579V13.852H34.7779V21.496ZM32.9539 19.516C32.0899 19.7 30.9499 19.792 29.5339 19.792V14.728H32.4139V15.58H30.5659V18.916C31.4859 18.916 32.2379 18.844 32.8219 18.7L32.9539 19.516ZM35.0059 24.016H27.8659V20.788H28.9219V23.164H35.0059V24.016ZM29.2459 19.492C28.4299 19.676 27.4459 19.768 26.2939 19.768V14.728H28.8979V15.58H27.3259V18.892C28.0699 18.876 28.6699 18.808 29.1259 18.688L29.2459 19.492ZM48.2651 24.256H40.6931V21.748H46.8251V20.944H40.6931V20.092H43.7531V19.216H39.5771V18.34H49.0451V19.216H44.8211V20.092H47.8811V22.552H41.7491V23.38H48.2651V24.256ZM48.5891 17.008L48.1091 17.86C47.2771 17.74 46.5011 17.504 45.7811 17.152C45.0691 16.792 44.5771 16.38 44.3051 15.916C44.0971 16.388 43.6331 16.804 42.9131 17.164C42.2011 17.516 41.4051 17.748 40.5251 17.86L40.0691 17.032C40.9491 16.968 41.7331 16.772 42.4211 16.444C43.1171 16.108 43.5451 15.664 43.7051 15.112H40.4891V14.26H48.1331V15.112H44.9411C45.1171 15.648 45.5651 16.084 46.2851 16.42C47.0131 16.748 47.7811 16.944 48.5891 17.008ZM58.6119 24.34H57.5439V18.436H55.2039V17.536H57.5439V13.852H58.6119V24.34ZM56.2719 21.052L55.6359 21.844C55.1239 21.508 54.6159 21.044 54.1119 20.452C53.6079 19.86 53.2639 19.276 53.0799 18.7C52.9039 19.332 52.5759 19.96 52.0959 20.584C51.6239 21.2 51.0919 21.704 50.4999 22.096L49.8279 21.316C50.6359 20.812 51.2879 20.132 51.7839 19.276C52.2799 18.42 52.5279 17.516 52.5279 16.564V14.752H53.6199V16.516C53.6199 17.46 53.8679 18.332 54.3639 19.132C54.8599 19.932 55.4959 20.572 56.2719 21.052ZM68.9467 24.34H67.8787V13.852H68.9467V24.34ZM65.8747 14.968C65.8427 16.576 65.3947 18 64.5307 19.24C63.6747 20.472 62.4987 21.496 61.0027 22.312L60.3547 21.508C61.5947 20.916 62.6067 20.112 63.3907 19.096C64.1827 18.072 64.6267 16.996 64.7227 15.868H60.8227V14.968H65.8747ZM80.1935 19.516H70.7255V18.7H80.1935V19.516ZM79.4375 24.148H71.8055V21.832H78.0455V21.052H71.8055V20.248H79.1015V22.576H72.8615V23.344H79.4375V24.148ZM79.2575 17.956H71.9135V15.736H77.9855V15.004H71.9255V14.212H79.0415V16.456H72.9815V17.164H79.2575V17.956ZM94.0287 19.108H92.3607V24.34H91.2927V13.852H92.3607V18.22H94.0287V19.108ZM88.8927 15.4H85.7607V14.536H88.8927V15.4ZM90.4167 17.2H84.2007V16.348H90.4167V17.2ZM89.8287 20.008C89.8287 20.64 89.6007 21.164 89.1447 21.58C88.6887 21.996 88.0927 22.204 87.3567 22.204C86.6207 22.204 86.0207 22 85.5567 21.592C85.1007 21.176 84.8727 20.648 84.8727 20.008C84.8727 19.376 85.1047 18.848 85.5687 18.424C86.0327 18 86.6287 17.788 87.3567 17.788C88.0927 17.788 88.6887 18 89.1447 18.424C89.6007 18.84 89.8287 19.368 89.8287 20.008ZM88.3887 20.956C88.6527 20.708 88.7847 20.392 88.7847 20.008C88.7847 19.624 88.6487 19.308 88.3767 19.06C88.1047 18.804 87.7647 18.676 87.3567 18.676C86.9487 18.676 86.6087 18.8 86.3367 19.048C86.0727 19.296 85.9407 19.616 85.9407 20.008C85.9407 20.392 86.0727 20.708 86.3367 20.956C86.6007 21.196 86.9407 21.316 87.3567 21.316C87.7887 21.316 88.1327 21.196 88.3887 20.956ZM104.112 22.816H94.6435V21.94H98.2435V18.412H99.3115V21.94H104.112V22.816ZM102.888 14.824V16.432C102.864 18.136 102.716 19.564 102.444 20.716C101.996 20.636 101.656 20.58 101.424 20.548C101.672 19.572 101.796 18.372 101.796 16.948V15.688H95.6155V14.824H102.888ZM116.951 24.184H109.679V23.32H111.263L110.987 21.58L112.043 21.448L112.259 23.32H114.395L114.683 21.46L115.715 21.592L115.367 23.32H116.951V24.184ZM114.503 18.556L113.879 19.384C113.375 19.16 112.883 18.828 112.403 18.388C111.931 17.948 111.591 17.484 111.383 16.996C111.231 17.524 110.919 18.036 110.447 18.532C109.975 19.02 109.427 19.416 108.803 19.72L108.167 18.892C108.935 18.564 109.571 18.072 110.075 17.416C110.579 16.76 110.831 16.036 110.831 15.244V14.296H111.923V15.196C111.923 15.964 112.187 16.66 112.715 17.284C113.243 17.9 113.839 18.324 114.503 18.556ZM116.783 19.612H115.715V13.852H116.783V19.612ZM116.843 21.076H109.775V20.212H116.843V21.076ZM128.029 20.056H118.561V19.192H128.029V20.056ZM126.901 24.028H119.785V20.98H120.841V23.176H126.901V24.028ZM125.989 14.728C126.637 15.088 126.961 15.592 126.961 16.24C126.961 16.888 126.633 17.396 125.977 17.764C125.329 18.132 124.433 18.316 123.289 18.316C122.145 18.316 121.249 18.132 120.601 17.764C119.961 17.396 119.641 16.888 119.641 16.24C119.641 15.592 119.961 15.088 120.601 14.728C121.249 14.36 122.145 14.176 123.289 14.176C124.441 14.176 125.341 14.36 125.989 14.728ZM123.289 15.04C122.521 15.04 121.909 15.148 121.453 15.364C121.005 15.58 120.781 15.872 120.781 16.24C120.781 16.608 121.005 16.9 121.453 17.116C121.909 17.332 122.521 17.44 123.289 17.44C124.065 17.44 124.685 17.332 125.149 17.116C125.613 16.9 125.845 16.608 125.845 16.24C125.845 15.872 125.613 15.58 125.149 15.364C124.685 15.148 124.065 15.04 123.289 15.04ZM137.044 13.852V18.148H138.724V19.036H137.044V24.34H135.988V13.852H137.044ZM134.284 14.968C134.252 16.6 133.832 18.032 133.024 19.264C132.216 20.496 131.076 21.512 129.604 22.312L128.956 21.508C130.172 20.924 131.148 20.124 131.884 19.108C132.628 18.092 133.048 17.012 133.144 15.868H129.412V14.968H134.284ZM146.887 15.304C147.607 15.8 147.967 16.456 147.967 17.272C147.967 18.088 147.607 18.744 146.887 19.24C146.175 19.736 145.231 19.984 144.055 19.984C142.887 19.984 141.943 19.736 141.223 19.24C140.511 18.744 140.155 18.088 140.155 17.272C140.155 16.456 140.511 15.8 141.223 15.304C141.943 14.8 142.887 14.548 144.055 14.548C145.231 14.548 146.175 14.8 146.887 15.304ZM146.875 17.272C146.875 16.72 146.615 16.276 146.095 15.94C145.583 15.596 144.903 15.424 144.055 15.424C143.207 15.424 142.527 15.596 142.015 15.94C141.503 16.276 141.247 16.72 141.247 17.272C141.247 17.816 141.503 18.26 142.015 18.604C142.535 18.94 143.215 19.108 144.055 19.108C144.903 19.108 145.583 18.94 146.095 18.604C146.615 18.26 146.875 17.816 146.875 17.272ZM148.795 23.008H139.327V22.144H141.595V20.284L142.663 20.248V22.144H145.435V20.248L146.491 20.284V22.144H148.795V23.008ZM151.03 21.316V20.308C151.03 20.044 151.082 19.808 151.186 19.6C151.298 19.384 151.414 19.216 151.534 19.096C151.662 18.976 151.894 18.78 152.23 18.508C152.478 18.308 152.674 18.048 152.818 17.728C152.962 17.408 153.034 17.076 153.034 16.732C153.034 16.332 152.898 16.036 152.626 15.844C152.354 15.644 151.986 15.544 151.522 15.544C151.042 15.544 150.51 15.644 149.926 15.844L149.818 15.028C150.362 14.788 151.014 14.668 151.774 14.668C152.446 14.668 153.006 14.84 153.454 15.184C153.91 15.528 154.138 16.036 154.138 16.708C154.138 17.196 154.034 17.628 153.826 18.004C153.626 18.38 153.302 18.752 152.854 19.12C152.462 19.448 152.222 19.68 152.134 19.816C152.03 19.984 151.978 20.172 151.978 20.38V21.316H151.03ZM150.934 23.284V22.108H152.098V23.284H150.934Z" fill="#AFAFAF"/>
<path d="M164.867 16.8906C164.867 16.0312 165.029 15.2266 165.352 14.4766C165.674 13.7214 166.122 13.0573 166.695 12.4844C167.268 11.9115 167.93 11.4635 168.68 11.1406C169.435 10.8177 170.242 10.6562 171.102 10.6562C171.961 10.6562 172.766 10.8177 173.516 11.1406C174.271 11.4635 174.935 11.9115 175.508 12.4844C176.081 13.0573 176.529 13.7214 176.852 14.4766C177.174 15.2266 177.336 16.0312 177.336 16.8906C177.336 17.6042 177.221 18.2812 176.992 18.9219C176.768 19.5625 176.456 20.1432 176.055 20.6641L179.875 24.5078C179.958 24.5911 180.021 24.6875 180.062 24.7969C180.109 24.9062 180.133 25.0234 180.133 25.1484C180.133 25.3203 180.094 25.4766 180.016 25.6172C179.943 25.7578 179.839 25.8672 179.703 25.9453C179.568 26.0286 179.411 26.0703 179.234 26.0703C179.109 26.0703 178.99 26.0469 178.875 26C178.766 25.9583 178.664 25.8932 178.57 25.8047L174.727 21.9531C174.216 22.3177 173.654 22.6042 173.039 22.8125C172.424 23.0208 171.779 23.125 171.102 23.125C170.242 23.125 169.435 22.9635 168.68 22.6406C167.93 22.3177 167.268 21.8698 166.695 21.2969C166.122 20.724 165.674 20.0625 165.352 19.3125C165.029 18.5573 164.867 17.75 164.867 16.8906ZM166.203 16.8906C166.203 17.5677 166.328 18.2031 166.578 18.7969C166.833 19.3854 167.185 19.9036 167.633 20.3516C168.086 20.7995 168.607 21.151 169.195 21.4062C169.789 21.6615 170.424 21.7891 171.102 21.7891C171.779 21.7891 172.411 21.6615 173 21.4062C173.594 21.151 174.115 20.7995 174.562 20.3516C175.01 19.9036 175.362 19.3854 175.617 18.7969C175.872 18.2031 176 17.5677 176 16.8906C176 16.2135 175.872 15.5807 175.617 14.9922C175.362 14.3984 175.01 13.8776 174.562 13.4297C174.115 12.9766 173.594 12.625 173 12.375C172.411 12.1198 171.779 11.9922 171.102 11.9922C170.424 11.9922 169.789 12.1198 169.195 12.375C168.607 12.625 168.086 12.9766 167.633 13.4297C167.185 13.8776 166.833 14.3984 166.578 14.9922C166.328 15.5807 166.203 16.2135 166.203 16.8906Z" fill="#616161"/>
</svg>
