<svg width="46" height="46" viewBox="0 0 46 46" fill="none" xmlns="http://www.w3.org/2000/svg">
<path style="mix-blend-mode:lighten" d="M32.3722 19.3518C34.3398 19.3518 35.9349 17.7568 35.9349 15.7892C35.9349 13.8216 34.3398 12.2266 32.3722 12.2266C30.4046 12.2266 28.8096 13.8216 28.8096 15.7892C28.8096 17.7568 30.4046 19.3518 32.3722 19.3518Z" fill="url(#paint0_linear_416_33347)"/>
<path d="M11.5757 29.9512V35.229C11.5757 35.626 11.8955 35.9459 12.2926 35.9459H17.4381C17.8351 35.9459 18.155 35.626 18.155 35.229V32.2399C18.155 31.1589 19.0319 30.2766 20.1183 30.2766H22.7765C23.8574 30.2766 24.7398 31.1534 24.7398 32.2399V35.229C24.7398 35.626 25.0597 35.9459 25.4568 35.9459H30.6022C30.9993 35.9459 31.3191 35.626 31.3191 35.229V29.9512" stroke="url(#paint1_linear_416_33347)" stroke-width="2" stroke-linecap="round" stroke-linejoin="round"/>
<path d="M33.4865 20.2837L34.4792 23.907C34.6943 24.9769 34.4185 26.1185 33.6464 26.8906C33.0508 27.4862 32.2291 27.8557 31.3191 27.8557C29.9404 27.8557 28.7602 27.0064 28.2694 25.8042C28.1811 25.5891 27.8723 25.5891 27.7841 25.8042C27.2932 27.0064 26.113 27.8557 24.7343 27.8557C23.3556 27.8557 22.1754 27.0064 21.6846 25.8042C21.5963 25.5891 21.2875 25.5891 21.1992 25.8042C20.7084 27.0064 19.5282 27.8557 18.1495 27.8557C16.7708 27.8557 15.5906 27.0064 15.0997 25.8042C15.0115 25.5891 14.7027 25.5891 14.6144 25.8042C14.1236 27.0064 12.9434 27.8557 11.5647 27.8557C10.6547 27.8557 9.83298 27.4862 9.23737 26.8906C8.46528 26.1185 8.18953 24.9769 8.40461 23.907L11.5095 12.5628C11.5426 12.3919 11.5592 12.2154 11.5702 12.0389C11.7025 10.3458 13.1199 9.01123 14.8516 9.01123C16.2303 9.01123 17.4105 9.86053 17.9013 11.0628C17.9896 11.2779 18.2984 11.2779 18.3866 11.0628C18.8775 9.86053 20.0577 9.01123 21.4364 9.01123C22.8151 9.01123 23.9953 9.86053 24.4861 11.0628C24.5744 11.2779 24.8832 11.2779 24.9715 11.0628C25.4623 9.86053 26.6425 9.01123 28.0212 9.01123C29.4992 9.01123 30.7456 9.98186 31.1647 11.322" stroke="url(#paint2_linear_416_33347)" stroke-width="2" stroke-linecap="round" stroke-linejoin="round"/>
<path opacity="0.2" d="M37.656 16.8369C37.656 14.8681 36.0622 13.2743 34.0934 13.2743C33.768 13.2743 33.4592 13.3184 33.1614 13.4011C33.1503 13.2963 33.1393 13.1916 33.1283 13.0868C32.9959 11.3937 31.5786 10.0591 29.8469 10.0591C28.4682 10.0591 27.288 10.9084 26.7971 12.1106C26.7089 12.3257 26.4001 12.3257 26.3118 12.1106C25.821 10.9084 24.6408 10.0591 23.2621 10.0591C21.8833 10.0591 20.7031 10.9084 20.2123 12.1106C20.1241 12.3257 19.8152 12.3257 19.727 12.1106C19.2362 10.9084 18.056 10.0591 16.6772 10.0591C14.9511 10.0591 13.5337 11.3937 13.3959 13.0868C13.3793 13.2633 13.3683 13.4397 13.3352 13.6107L10.2303 24.9549C10.0152 26.0248 10.291 27.1664 11.0631 27.9385C11.6587 28.5341 12.4804 28.9036 13.3904 28.9036V36.2715C13.3904 36.6686 13.7102 36.9885 14.1073 36.9885H19.2527C19.6498 36.9885 19.9697 36.6686 19.9697 36.2715V33.2824C19.9697 32.2015 20.8465 31.3191 21.933 31.3191H24.5912C25.6721 31.3191 26.5545 32.196 26.5545 33.2824V36.2715C26.5545 36.6686 26.8743 36.9885 27.2714 36.9885H32.4168C32.8139 36.9885 33.1338 36.6686 33.1338 36.2715V28.9036C34.0438 28.9036 34.8655 28.5341 35.4611 27.9385C36.2332 27.1664 36.5089 26.0248 36.2938 24.9549L35.0144 20.2782C36.5365 19.8701 37.656 18.4859 37.656 16.8424V16.8369Z" fill="#2CE3A7"/>
<defs>
<linearGradient id="paint0_linear_416_33347" x1="35.9349" y1="15.7892" x2="28.8096" y2="15.7892" gradientUnits="userSpaceOnUse">
<stop stop-color="#2CE3A7"/>
<stop offset="0.22" stop-color="#24D2B3"/>
<stop offset="0.65" stop-color="#12A7D5"/>
<stop offset="1" stop-color="#0280F4"/>
</linearGradient>
<linearGradient id="paint1_linear_416_33347" x1="21.4474" y1="36.4974" x2="21.4474" y2="29.3997" gradientUnits="userSpaceOnUse">
<stop stop-color="#0280F4"/>
<stop offset="0.45" stop-color="#18B4CB"/>
<stop offset="0.81" stop-color="#26D6B1"/>
<stop offset="1" stop-color="#2CE3A7"/>
</linearGradient>
<linearGradient id="paint2_linear_416_33347" x1="21.4474" y1="28.4072" x2="21.4474" y2="8.45974" gradientUnits="userSpaceOnUse">
<stop stop-color="#0280F4"/>
<stop offset="0.45" stop-color="#18B4CB"/>
<stop offset="0.81" stop-color="#26D6B1"/>
<stop offset="1" stop-color="#2CE3A7"/>
</linearGradient>
</defs>
</svg>
